STARTFONT 2.1
FONT -FontForge-HanWangYanKai-Book-R-Normal--26-250-75-75-P-257-ISO10646-1
SIZE 27 75 75
FONTBOUNDINGBOX 27 27 0 -4
COMMENT "Generated by fontforge, http://fontforge.sourceforge.net"
COMMENT "(C)Copyright Dr. Hann-Tzong Wang, 2002-2004."
STARTPROPERTIES 40
FOUNDRY "FontForge"
FAMILY_NAME "HanWangYanKai"
WEIGHT_NAME "Book"
SLANT "R"
SETWIDTH_NAME "Normal"
ADD_STYLE_NAME ""
PIXEL_SIZE 26
POINT_SIZE 250
RESOLUTION_X 75
RESOLUTION_Y 75
SPACING "P"
AVERAGE_WIDTH 257
CHARSET_REGISTRY "ISO10646"
CHARSET_ENCODING "1"
FONTNAME_REGISTRY ""
CHARSET_COLLECTIONS "ASCII ISOLatin1Encoding GB2312.1980 BIG5 ISO10646-1"
FONT_NAME "HanWangYanKai"
FACE_NAME "HanWangYanKai"
COPYRIGHT "(C)Copyright Dr. Hann-Tzong Wang, 2002-2004."
FONT_VERSION "1.3(license under GNU GPL)"
FONT_ASCENT 21
FONT_DESCENT 5
UNDERLINE_POSITION -3
UNDERLINE_THICKNESS 2
X_HEIGHT 10
CAP_HEIGHT 15
RAW_ASCENT 800
RAW_DESCENT 199
NORM_SPACE 13
RELATIVE_WEIGHT 40
RELATIVE_SETWIDTH 50
SUPERSCRIPT_X 0
SUPERSCRIPT_Y 12
SUPERSCRIPT_SIZE 18
SUBSCRIPT_X 0
SUBSCRIPT_Y 3
SUBSCRIPT_SIZE 18
FIGURE_WIDTH 15
AVG_LOWERCASE_WIDTH 218
AVG_UPPERCASE_WIDTH 229
ENDPROPERTIES
CHARS 14160
STARTCHAR uni0009
ENCODING 9
SWIDTH 500 0
DWIDTH 13 0
BBX 1 1 0 0
BITMAP
00
ENDCHAR
STARTCHAR nonmarkingreturn
ENCODING 13
SWIDTH 500 0
DWIDTH 13 0
BBX 1 1 0 0
BITMAP
00
ENDCHAR
STARTCHAR space
ENCODING 32
SWIDTH 500 0
DWIDTH 13 0
BBX 1 1 0 0
BITMAP
00
ENDCHAR
STARTCHAR exclam
ENCODING 33
SWIDTH 267 0
DWIDTH 7 0
BBX 4 18 2 -1
BITMAP
60
E0
F0
E0
E0
60
60
60
60
60
60
60
60
00
00
E0
F0
F0
ENDCHAR
STARTCHAR quotedbl
ENCODING 34
SWIDTH 331 0
DWIDTH 9 0
BBX 7 7 1 14
BITMAP
44
EE
EE
CC
C4
44
44
ENDCHAR
STARTCHAR numbersign
ENCODING 35
SWIDTH 636 0
DWIDTH 17 0
BBX 15 17 1 -1
BITMAP
0618
0418
0C10
7FFC
7FFE
7FFE
0C30
1820
1860
1860
1860
FFFC
FFFC
FFFC
30C0
30C0
30C0
ENDCHAR
STARTCHAR dollar
ENCODING 36
SWIDTH 565 0
DWIDTH 15 0
BBX 13 21 1 -3
BITMAP
0200
0200
1FA0
3BE0
3270
7230
7210
7A00
3E00
3F00
0FC0
03E0
03F0
0278
C238
6238
7270
7AF0
3FC0
0300
0200
ENDCHAR
STARTCHAR percent
ENCODING 37
SWIDTH 836 0
DWIDTH 22 0
BBX 20 20 2 -2
BITMAP
100000
7C00C0
C60180
C60380
C70700
C70600
C60C00
E61800
7C3000
186000
00E000
01C7C0
018660
030E70
060C70
0C0C70
180C70
380E60
3006E0
000380
ENDCHAR
STARTCHAR ampersand
ENCODING 38
SWIDTH 713 0
DWIDTH 19 0
BBX 17 17 1 -1
BITMAP
0FC000
1CC000
186000
186000
18C000
1DC000
1F8000
1E3F00
3E3F00
670C00
E70C00
C39800
C1F000
E1F180
E0F100
79FF00
3F3E00
ENDCHAR
STARTCHAR quotesingle
ENCODING 39
SWIDTH 244 0
DWIDTH 6 0
BBX 5 6 1 15
BITMAP
10
38
30
60
40
80
ENDCHAR
STARTCHAR parenleft
ENCODING 40
SWIDTH 316 0
DWIDTH 8 0
BBX 6 22 2 -3
BITMAP
04
0C
18
30
30
60
60
E0
E0
C0
C0
C0
C0
E0
E0
60
60
70
30
18
18
04
ENDCHAR
STARTCHAR parenright
ENCODING 41
SWIDTH 316 0
DWIDTH 8 0
BBX 7 22 1 -3
BITMAP
C0
60
30
38
18
1C
0C
0C
0E
0E
0E
0E
0E
0E
0C
0C
1C
18
18
30
60
40
ENDCHAR
STARTCHAR asterisk
ENCODING 42
SWIDTH 661 0
DWIDTH 17 0
BBX 16 17 1 -1
BITMAP
03C0
03C0
03C0
63C6
F18F
F99F
7DBE
1F78
0180
1FF0
7DBE
F99F
F98F
63CE
03C0
03C0
03C0
ENDCHAR
STARTCHAR plus
ENCODING 43
SWIDTH 651 0
DWIDTH 17 0
BBX 15 17 1 -1
BITMAP
0300
0300
0300
0380
0380
0380
0380
FFFE
FFFE
FFFE
0300
0380
0380
0380
0380
0380
0300
ENDCHAR
STARTCHAR comma
ENCODING 44
SWIDTH 228 0
DWIDTH 6 0
BBX 4 7 1 -4
BITMAP
60
F0
F0
70
30
20
40
ENDCHAR
STARTCHAR hyphen
ENCODING 45
SWIDTH 288 0
DWIDTH 7 0
BBX 6 3 1 6
BITMAP
F8
FC
FC
ENDCHAR
STARTCHAR period
ENCODING 46
SWIDTH 230 0
DWIDTH 6 0
BBX 4 4 1 -2
BITMAP
70
F0
F0
70
ENDCHAR
STARTCHAR slash
ENCODING 47
SWIDTH 480 0
DWIDTH 13 0
BBX 11 22 1 -3
BITMAP
0060
0060
00C0
00C0
0180
0180
0180
0300
0300
0600
0600
0C00
0C00
1C00
1800
1800
3000
3000
6000
6000
E000
C000
ENDCHAR
STARTCHAR zero
ENCODING 48
SWIDTH 580 0
DWIDTH 15 0
BBX 12 17 2 -1
BITMAP
1F80
39C0
70E0
6060
E070
E070
E070
E070
E070
E070
E070
E070
E070
60E0
70E0
39C0
1F80
ENDCHAR
STARTCHAR one
ENCODING 49
SWIDTH 580 0
DWIDTH 15 0
BBX 10 17 3 -1
BITMAP
0C00
FC00
FC00
1C00
1C00
1C00
1C00
1C00
1C00
1C00
1C00
1C00
1C00
1C00
1C00
1E00
FFC0
ENDCHAR
STARTCHAR two
ENCODING 50
SWIDTH 580 0
DWIDTH 15 0
BBX 12 17 2 -1
BITMAP
3F80
71E0
40E0
C070
C070
F0E0
70E0
21C0
0380
0700
0C00
1800
3030
6030
E070
FFE0
FFE0
ENDCHAR
STARTCHAR three
ENCODING 51
SWIDTH 580 0
DWIDTH 15 0
BBX 11 17 2 -1
BITMAP
1F80
73C0
60E0
E0E0
70E0
70C0
01C0
0780
0780
01C0
00E0
E0E0
E0E0
E0E0
C0E0
71C0
3F80
ENDCHAR
STARTCHAR four
ENCODING 52
SWIDTH 580 0
DWIDTH 15 0
BBX 13 17 1 -1
BITMAP
00E0
00E0
01E0
03E0
03E0
06E0
0CE0
18E0
10E0
30E0
60E0
40E0
FFF8
00E0
00E0
01E0
07F8
ENDCHAR
STARTCHAR five
ENCODING 53
SWIDTH 580 0
DWIDTH 15 0
BBX 12 17 2 -1
BITMAP
7FE0
7FE0
7FC0
4000
4000
4600
7F80
71C0
60E0
00E0
0070
4070
E0E0
E0E0
C0E0
63C0
3F80
ENDCHAR
STARTCHAR six
ENCODING 54
SWIDTH 580 0
DWIDTH 15 0
BBX 12 17 2 -1
BITMAP
0FC0
1CE0
3860
70E0
70E0
6000
6000
FFC0
F8E0
E060
E070
6070
7070
7070
70E0
38C0
1F80
ENDCHAR
STARTCHAR seven
ENCODING 55
SWIDTH 580 0
DWIDTH 15 0
BBX 13 17 1 -1
BITMAP
7FF8
7FF8
7FF0
4020
C060
00C0
0080
0180
0180
0300
0300
0700
0700
0700
0700
0700
0600
ENDCHAR
STARTCHAR eight
ENCODING 56
SWIDTH 580 0
DWIDTH 15 0
BBX 12 17 2 -1
BITMAP
1F80
79C0
60E0
E0E0
E0E0
E0E0
79C0
3F80
1F80
7FC0
E1E0
E0F0
C070
E070
E0E0
71E0
3F80
ENDCHAR
STARTCHAR nine
ENCODING 57
SWIDTH 580 0
DWIDTH 15 0
BBX 12 17 2 -1
BITMAP
1F80
39C0
70C0
E0E0
E0E0
E060
E070
E070
70F0
3FF0
0C60
00E0
70E0
70E0
61C0
7380
3F00
ENDCHAR
STARTCHAR colon
ENCODING 58
SWIDTH 230 0
DWIDTH 6 0
BBX 5 14 1 -1
BITMAP
70
78
F8
78
20
00
00
00
00
00
70
F8
78
70
ENDCHAR
STARTCHAR semicolon
ENCODING 59
SWIDTH 230 0
DWIDTH 6 0
BBX 5 16 1 -3
BITMAP
70
F0
F8
F0
20
00
00
00
00
00
70
F0
F8
30
30
20
ENDCHAR
STARTCHAR less
ENCODING 60
SWIDTH 498 0
DWIDTH 13 0
BBX 11 17 1 -1
BITMAP
0040
00E0
01C0
0380
0700
1E00
3C00
7000
F000
7000
3800
1E00
0700
0380
01C0
00E0
0040
ENDCHAR
STARTCHAR equal
ENCODING 61
SWIDTH 505 0
DWIDTH 13 0
BBX 11 9 1 3
BITMAP
FFE0
FFE0
0000
0000
0000
0000
0000
FFE0
FFE0
ENDCHAR
STARTCHAR greater
ENCODING 62
SWIDTH 498 0
DWIDTH 13 0
BBX 11 16 1 -1
BITMAP
E000
7000
3800
1C00
0F00
0780
01C0
00E0
01C0
0780
0F00
1C00
3800
7000
E000
4000
ENDCHAR
STARTCHAR question
ENCODING 63
SWIDTH 473 0
DWIDTH 12 0
BBX 11 18 1 -1
BITMAP
0E00
7F80
E1C0
E0E0
E0E0
E0E0
01C0
0380
0300
0600
0600
0C00
0C00
0000
0000
1E00
1E00
1E00
ENDCHAR
STARTCHAR at
ENCODING 64
SWIDTH 760 0
DWIDTH 20 0
BBX 18 19 2 -2
BITMAP
07FC00
0E0E00
380300
300180
70FC80
E39CC0
E71CC0
C61CC0
CE18C0
CE18C0
CC3880
CC3980
EE7B00
E7FF00
7108C0
380180
1C0700
0F3C00
03F000
ENDCHAR
STARTCHAR A
ENCODING 65
SWIDTH 689 0
DWIDTH 18 0
BBX 16 17 1 -1
BITMAP
0180
0380
03C0
03C0
07C0
06E0
04E0
0CF0
0C70
0870
1FF8
1FF8
303C
301C
301E
701E
F83F
ENDCHAR
STARTCHAR B
ENCODING 66
SWIDTH 613 0
DWIDTH 16 0
BBX 15 17 1 -1
BITMAP
FFE0
3C78
3818
181C
181C
181C
1838
1FF0
1FF0
1838
181C
180C
180E
181C
181C
3C78
7FF0
ENDCHAR
STARTCHAR C
ENCODING 67
SWIDTH 584 0
DWIDTH 15 0
BBX 13 17 1 -1
BITMAP
0FF0
1C70
3818
7008
7000
7000
E000
E000
E000
E000
E000
7000
7008
7818
3C30
1FF0
0FE0
ENDCHAR
STARTCHAR D
ENCODING 68
SWIDTH 689 0
DWIDTH 18 0
BBX 16 17 1 -1
BITMAP
FFE0
3C78
381C
380E
380E
3807
3807
3807
3807
3807
3807
3807
380E
380E
381C
3C78
FFF0
ENDCHAR
STARTCHAR E
ENCODING 69
SWIDTH 610 0
DWIDTH 16 0
BBX 14 17 1 -1
BITMAP
FFFC
3C3C
380C
380C
3804
3840
3840
38C0
3FC0
3840
3840
3840
3804
3804
180C
3C3C
7FFC
ENDCHAR
STARTCHAR F
ENCODING 70
SWIDTH 602 0
DWIDTH 16 0
BBX 14 17 1 -1
BITMAP
FFFC
7C3C
380C
380C
3804
3840
3840
38C0
3FC0
38C0
3840
3840
3800
3800
3800
3C00
FE00
ENDCHAR
STARTCHAR G
ENCODING 71
SWIDTH 664 0
DWIDTH 17 0
BBX 16 17 1 -1
BITMAP
0FF8
1C3C
381C
700C
7004
7000
E000
E000
E000
E03F
E03E
601C
701C
701C
381C
1C3C
0FF0
ENDCHAR
STARTCHAR H
ENCODING 72
SWIDTH 758 0
DWIDTH 20 0
BBX 17 17 1 -1
BITMAP
FE1F80
7C0F00
380700
380600
380600
380600
380600
380600
3FFE00
380600
380600
380600
380600
380600
380600
3C0F00
FE1F80
ENDCHAR
STARTCHAR I
ENCODING 73
SWIDTH 353 0
DWIDTH 9 0
BBX 7 17 1 -1
BITMAP
FE
3C
38
38
38
38
38
38
38
38
38
38
38
38
38
3C
FE
ENDCHAR
STARTCHAR J
ENCODING 74
SWIDTH 429 0
DWIDTH 11 0
BBX 9 17 1 -1
BITMAP
1F80
0F00
0600
0600
0600
0600
0600
0600
0600
0600
0600
0600
0600
0600
C600
EC00
7C00
ENDCHAR
STARTCHAR K
ENCODING 75
SWIDTH 705 0
DWIDTH 18 0
BBX 17 17 1 -1
BITMAP
FE1F00
7C0E00
381800
383000
386000
38C000
398000
3BC000
3FE000
3CE000
387000
387800
383800
381C00
381E00
3C1F00
FE3F80
ENDCHAR
STARTCHAR L
ENCODING 76
SWIDTH 604 0
DWIDTH 16 0
BBX 14 17 1 -1
BITMAP
FE00
3C00
3800
3800
3800
3800
3800
3800
3800
3800
3800
3800
3804
380C
380C
3C3C
FFFC
ENDCHAR
STARTCHAR M
ENCODING 77
SWIDTH 867 0
DWIDTH 23 0
BBX 20 17 1 -1
BITMAP
F801F0
3C01E0
3C03E0
3E03C0
3E03C0
3E06C0
3706C0
3704C0
338CC0
3388C0
33D8C0
31D8C0
31F0C0
30F0C0
30E0C0
3061E0
FC63F0
ENDCHAR
STARTCHAR N
ENCODING 78
SWIDTH 733 0
DWIDTH 19 0
BBX 17 17 1 -1
BITMAP
F80F80
780700
3C0200
3E0200
3F0200
370200
338200
33C200
31E200
30E200
307200
303E00
303E00
301E00
300E00
300600
FC0600
ENDCHAR
STARTCHAR O
ENCODING 79
SWIDTH 659 0
DWIDTH 17 0
BBX 15 17 2 -1
BITMAP
0FE0
1C70
3838
701C
E01C
E00E
E00E
E00E
E00E
E00E
E00E
E00E
E01C
701C
3038
3C70
0FE0
ENDCHAR
STARTCHAR P
ENCODING 80
SWIDTH 606 0
DWIDTH 16 0
BBX 14 17 1 -1
BITMAP
FFE0
3C78
381C
381C
381C
381C
381C
3838
3FF0
3F80
3800
3800
3800
3800
3800
3C00
FE00
ENDCHAR
STARTCHAR Q
ENCODING 81
SWIDTH 650 0
DWIDTH 17 0
BBX 15 20 2 -4
BITMAP
0FE0
3C70
7038
701C
E01C
E01C
E00E
E00E
C00E
E00E
E00E
E00C
EF9C
799C
78F8
3CF0
1FE0
0060
007C
0038
ENDCHAR
STARTCHAR R
ENCODING 82
SWIDTH 683 0
DWIDTH 18 0
BBX 16 17 1 -1
BITMAP
FFF0
3C78
381C
381C
380E
381C
381C
3CF8
3FE0
38E0
38E0
3870
3870
3838
383C
3C1E
FE1F
ENDCHAR
STARTCHAR S
ENCODING 83
SWIDTH 545 0
DWIDTH 14 0
BBX 13 17 1 -1
BITMAP
1FA0
3DE0
3070
7030
7010
7800
3C00
3F80
0FC0
03F0
00F0
0078
C038
6038
7070
38F0
3FE0
ENDCHAR
STARTCHAR T
ENCODING 84
SWIDTH 673 0
DWIDTH 18 0
BBX 16 17 1 -1
BITMAP
7FFE
F3CE
C382
8383
8381
0380
0380
0380
0380
0380
0380
0380
0380
0380
0380
03C0
0FE0
ENDCHAR
STARTCHAR U
ENCODING 85
SWIDTH 707 0
DWIDTH 18 0
BBX 16 17 1 -1
BITMAP
FE1F
3C1F
3804
3804
3804
3804
3804
3804
3804
3804
3804
3804
3804
1804
1C0C
0F38
07F0
ENDCHAR
STARTCHAR V
ENCODING 86
SWIDTH 687 0
DWIDTH 18 0
BBX 16 17 1 -1
BITMAP
FC1F
7C0E
380C
380C
3808
1C18
1C18
0E10
0E30
0E20
0760
0760
07C0
03C0
03C0
0180
0180
ENDCHAR
STARTCHAR W
ENCODING 87
SWIDTH 892 0
DWIDTH 23 0
BBX 22 17 1 -1
BITMAP
FCFCFC
787870
383830
383820
387860
387C60
1C5C40
1CDCC0
1CDCC0
0E8E80
0F8E80
0F8F80
070780
070700
070700
070300
020200
ENDCHAR
STARTCHAR X
ENCODING 88
SWIDTH 658 0
DWIDTH 17 0
BBX 16 17 1 -1
BITMAP
FE7E
7C3C
3C18
1C30
1E20
0F60
07C0
0780
03C0
03C0
07E0
04F0
0C70
1878
103C
783E
FC7F
ENDCHAR
STARTCHAR Y
ENCODING 89
SWIDTH 682 0
DWIDTH 18 0
BBX 16 17 1 -1
BITMAP
FE1F
7C0E
380C
3C08
1C18
0E30
0E30
0760
07C0
03C0
03C0
01C0
01C0
01C0
01C0
03C0
07F0
ENDCHAR
STARTCHAR Z
ENCODING 90
SWIDTH 558 0
DWIDTH 15 0
BBX 13 17 1 -1
BITMAP
7FF8
7870
60F0
40E0
41C0
03C0
0380
0700
0F00
0E00
1E00
1C00
3818
7818
7030
F0F0
FFF0
ENDCHAR
STARTCHAR bracketleft
ENCODING 91
SWIDTH 320 0
DWIDTH 8 0
BBX 7 23 1 -4
BITMAP
FE
FE
C0
C0
C0
C0
C0
C0
C0
C0
C0
C0
C0
C0
C0
C0
C0
C0
C0
C0
FC
FE
FC
ENDCHAR
STARTCHAR backslash
ENCODING 92
SWIDTH 480 0
DWIDTH 13 0
BBX 11 22 1 -3
BITMAP
C000
C000
E000
6000
6000
3000
3000
1800
1800
1C00
0C00
0C00
0600
0600
0300
0300
0380
0180
0180
00C0
00C0
0060
ENDCHAR
STARTCHAR bracketright
ENCODING 93
SWIDTH 320 0
DWIDTH 8 0
BBX 6 23 1 -4
BITMAP
FC
FC
0C
0C
0C
0C
0C
0C
0C
0C
0C
0C
0C
0C
0C
0C
0C
0C
0C
0C
FC
FC
FC
ENDCHAR
STARTCHAR asciicircum
ENCODING 94
SWIDTH 383 0
DWIDTH 10 0
BBX 8 4 1 17
BITMAP
18
7E
E7
81
ENDCHAR
STARTCHAR underscore
ENCODING 95
SWIDTH 509 0
DWIDTH 13 0
BBX 13 2 0 -5
BITMAP
FFF8
FFF8
ENDCHAR
STARTCHAR grave
ENCODING 96
SWIDTH 326 0
DWIDTH 8 0
BBX 6 3 2 17
BITMAP
E0
78
04
ENDCHAR
STARTCHAR a
ENCODING 97
SWIDTH 500 0
DWIDTH 13 0
BBX 11 14 1 -2
BITMAP
0400
3F80
71C0
61C0
60C0
01C0
1FC0
38C0
70C0
E0C0
E1C0
E3C0
7CE0
0040
ENDCHAR
STARTCHAR b
ENCODING 98
SWIDTH 594 0
DWIDTH 15 0
BBX 14 17 1 -1
BITMAP
1800
F800
7800
3800
38C0
3FF0
3C38
3818
381C
381C
381C
381C
381C
381C
3838
3C70
37E0
ENDCHAR
STARTCHAR c
ENCODING 99
SWIDTH 466 0
DWIDTH 12 0
BBX 11 13 1 -1
BITMAP
0600
1F80
31C0
70C0
E0C0
E000
E000
E000
E000
E060
70C0
3D80
1F00
ENDCHAR
STARTCHAR d
ENCODING 100
SWIDTH 580 0
DWIDTH 15 0
BBX 13 17 1 -1
BITMAP
0010
00F0
0070
0070
0670
1FF0
38F0
7070
6070
E070
E070
E070
E070
6070
7070
38F8
1FF8
ENDCHAR
STARTCHAR e
ENCODING 101
SWIDTH 451 0
DWIDTH 12 0
BBX 11 13 1 -1
BITMAP
0400
1F80
31C0
70C0
60C0
7FE0
FFC0
E000
E000
6000
70C0
3D80
1F00
ENDCHAR
STARTCHAR f
ENCODING 102
SWIDTH 412 0
DWIDTH 11 0
BBX 9 17 1 -1
BITMAP
0F00
1B80
3980
3000
3800
FE00
3800
3800
3800
3800
3800
3800
3800
3800
3000
7800
FC00
ENDCHAR
STARTCHAR g
ENCODING 103
SWIDTH 584 0
DWIDTH 15 0
BBX 13 17 1 -5
BITMAP
0610
1FF8
39C8
70E0
70E0
70E0
70E0
39C0
3F80
3000
3C00
3FC0
7BF0
E070
E070
FFE0
3F80
ENDCHAR
STARTCHAR h
ENCODING 104
SWIDTH 640 0
DWIDTH 17 0
BBX 15 17 1 -1
BITMAP
1800
F800
7800
3800
3880
3FF0
3C78
3838
3838
3838
3838
3838
3838
3838
3838
783C
7C7E
ENDCHAR
STARTCHAR i
ENCODING 105
SWIDTH 322 0
DWIDTH 8 0
BBX 6 17 1 -1
BITMAP
38
38
30
00
00
18
F8
38
38
38
38
38
38
38
38
78
7C
ENDCHAR
STARTCHAR j
ENCODING 106
SWIDTH 345 0
DWIDTH 9 0
BBX 8 21 0 -5
BITMAP
06
0F
06
00
00
06
1E
06
06
06
06
06
06
06
06
06
06
46
E6
7C
38
ENDCHAR
STARTCHAR k
ENCODING 107
SWIDTH 619 0
DWIDTH 16 0
BBX 15 17 1 -1
BITMAP
1800
F800
3800
3800
38F8
38FC
3870
38C0
3B80
3F80
3FC0
39C0
38E0
3870
3870
3C7C
7CFE
ENDCHAR
STARTCHAR l
ENCODING 108
SWIDTH 322 0
DWIDTH 8 0
BBX 6 17 1 -1
BITMAP
18
F8
38
38
38
38
38
38
38
38
38
38
38
38
38
78
7C
ENDCHAR
STARTCHAR m
ENCODING 109
SWIDTH 881 0
DWIDTH 23 0
BBX 21 13 1 -1
BITMAP
008100
1FE7C0
FC7CE0
387860
383060
383060
383060
383060
383060
383060
383060
3C78F0
7CFDF8
ENDCHAR
STARTCHAR n
ENCODING 110
SWIDTH 640 0
DWIDTH 17 0
BBX 15 13 1 -1
BITMAP
00C0
1BF0
FE38
3C38
3818
3818
3818
3818
3818
3818
3818
3C3C
7C7E
ENDCHAR
STARTCHAR o
ENCODING 111
SWIDTH 493 0
DWIDTH 13 0
BBX 12 13 1 -1
BITMAP
0600
1F80
30C0
60E0
6060
E060
E070
E070
E060
6060
60E0
31C0
1F80
ENDCHAR
STARTCHAR p
ENCODING 112
SWIDTH 594 0
DWIDTH 15 0
BBX 14 17 1 -5
BITMAP
0080
1FF0
FC78
3838
3818
381C
381C
381C
381C
3818
3838
3C70
3FE0
3800
3800
7C00
7C00
ENDCHAR
STARTCHAR q
ENCODING 113
SWIDTH 582 0
DWIDTH 15 0
BBX 13 17 1 -5
BITMAP
0400
3FF0
70F0
6070
E070
E070
C070
C070
E070
E070
7070
39F0
1FF0
0070
0070
00F8
01F8
ENDCHAR
STARTCHAR r
ENCODING 114
SWIDTH 442 0
DWIDTH 12 0
BBX 10 13 1 -1
BITMAP
0100
33C0
FDC0
3800
3800
3800
3000
3000
3000
3000
3000
7800
FC00
ENDCHAR
STARTCHAR s
ENCODING 115
SWIDTH 471 0
DWIDTH 12 0
BBX 10 13 1 -1
BITMAP
0800
7F80
61C0
C0C0
E040
7800
3E00
1F80
03C0
81C0
C0C0
71C0
7F80
ENDCHAR
STARTCHAR t
ENCODING 116
SWIDTH 362 0
DWIDTH 9 0
BBX 8 17 1 -1
BITMAP
10
10
30
30
70
FE
30
30
30
30
30
30
30
30
30
33
3E
ENDCHAR
STARTCHAR u
ENCODING 117
SWIDTH 638 0
DWIDTH 17 0
BBX 14 12 1 -1
BITMAP
1810
F8F8
3838
3838
3838
3838
3838
3838
3838
3870
1CF8
1FBC
ENDCHAR
STARTCHAR v
ENCODING 118
SWIDTH 587 0
DWIDTH 15 0
BBX 14 12 1 -1
BITMAP
FC7C
7830
3820
3820
1860
1C40
0CC0
0E80
0F80
0700
0700
0600
ENDCHAR
STARTCHAR w
ENCODING 119
SWIDTH 823 0
DWIDTH 21 0
BBX 20 12 1 -1
BITMAP
FDF9F0
78F0E0
3070C0
387080
38F180
18B900
1DB900
0D1B00
0F1E00
0F1E00
060C00
060C00
ENDCHAR
STARTCHAR x
ENCODING 120
SWIDTH 595 0
DWIDTH 15 0
BBX 14 12 1 -1
BITMAP
FCF8
7870
3C60
1CC0
0F80
0700
0780
0FC0
19E0
30F0
70F8
F8FC
ENDCHAR
STARTCHAR y
ENCODING 121
SWIDTH 575 0
DWIDTH 15 0
BBX 14 16 1 -5
BITMAP
FC7C
7830
3830
1820
1C60
1C40
0CC0
0E80
0780
0700
0300
0300
0200
6600
7C00
3800
ENDCHAR
STARTCHAR z
ENCODING 122
SWIDTH 443 0
DWIDTH 12 0
BBX 10 12 1 -1
BITMAP
7FC0
E380
C380
8700
0E00
0E00
1C00
3800
38C0
70C0
F3C0
FF80
ENDCHAR
STARTCHAR braceleft
ENCODING 123
SWIDTH 263 0
DWIDTH 7 0
BBX 6 23 0 -4
BITMAP
0C
18
18
18
38
38
38
38
38
38
70
F0
38
18
18
18
18
18
18
18
18
1C
04
ENDCHAR
STARTCHAR bar
ENCODING 124
SWIDTH 179 0
DWIDTH 5 0
BBX 2 26 1 -5
BITMAP
C0
C0
C0
C0
C0
C0
C0
C0
C0
C0
C0
C0
C0
C0
C0
C0
C0
C0
C0
C0
C0
C0
C0
C0
C0
C0
ENDCHAR
STARTCHAR braceright
ENCODING 125
SWIDTH 263 0
DWIDTH 7 0
BBX 6 23 1 -4
BITMAP
C0
60
60
60
60
60
60
60
60
70
38
3C
70
60
60
60
60
60
60
60
60
E0
80
ENDCHAR
STARTCHAR asciitilde
ENCODING 126
SWIDTH 547 0
DWIDTH 14 0
BBX 12 4 1 6
BITMAP
3E10
7FB0
C7E0
00C0
ENDCHAR
STARTCHAR uni0080
ENCODING 128
SWIDTH 500 0
DWIDTH 13 0
BBX 1 1 0 0
BITMAP
00
ENDCHAR
STARTCHAR cent
ENCODING 162
SWIDTH 500 0
DWIDTH 13 0
BBX 1 1 0 0
BITMAP
00
ENDCHAR
STARTCHAR sterling
ENCODING 163
SWIDTH 1000 0
DWIDTH 26 0
BBX 14 17 6 -1
BITMAP
07F0
0E38
0C38
1C38
1C30
1C00
0E00
0E00
FFF0
0700
0700
0700
7F00
7F04
CF8C
EFF8
7CF8
ENDCHAR
STARTCHAR section
ENCODING 167
SWIDTH 1000 0
DWIDTH 26 0
BBX 10 20 9 -2
BITMAP
3F00
6180
E1C0
C3C0
E380
7100
7C00
7F00
C780
C1C0
E0C0
F0C0
7C80
1F80
0780
61C0
F1C0
E0C0
6180
7F00
ENDCHAR
STARTCHAR macron
ENCODING 175
SWIDTH 1000 0
DWIDTH 26 0
BBX 26 2 0 19
BITMAP
FFFFFFC0
00000040
ENDCHAR
STARTCHAR degree
ENCODING 176
SWIDTH 1000 0
DWIDTH 26 0
BBX 6 6 1 14
BITMAP
78
C8
8C
8C
D8
70
ENDCHAR
STARTCHAR plusminus
ENCODING 177
SWIDTH 1000 0
DWIDTH 26 0
BBX 16 17 5 -1
BITMAP
0180
0180
0180
0180
0180
7FFE
FFFF
7FFF
0180
0180
0180
0180
0180
0000
0000
FFFF
FFFF
ENDCHAR
STARTCHAR periodcentered
ENCODING 183
SWIDTH 1000 0
DWIDTH 26 0
BBX 5 4 5 6
BITMAP
70
F0
F8
F0
ENDCHAR
STARTCHAR multiply
ENCODING 215
SWIDTH 1000 0
DWIDTH 26 0
BBX 15 15 6 0
BITMAP
600C
700C
301C
3838
1C70
0EE0
07C0
0380
07C0
0FE0
1C70
3838
3818
701C
E00E
ENDCHAR
STARTCHAR divide
ENCODING 247
SWIDTH 1000 0
DWIDTH 26 0
BBX 16 17 5 -1
BITMAP
0180
03C0
03C0
03C0
0180
0000
0000
7FFE
FFFF
7FFF
0000
0000
0180
03C0
03C0
03C0
0180
ENDCHAR
STARTCHAR caron
ENCODING 711
SWIDTH 1000 0
DWIDTH 26 0
BBX 14 14 6 1
BITMAP
8004
C00C
E01C
6018
7038
3870
3870
1CE0
1FE0
0FC0
0FC0
0780
0780
0300
ENDCHAR
STARTCHAR uni02C9
ENCODING 713
SWIDTH 1000 0
DWIDTH 26 0
BBX 1 1 0 0
BITMAP
00
ENDCHAR
STARTCHAR uni02CA
ENCODING 714
SWIDTH 1000 0
DWIDTH 26 0
BBX 12 12 8 2
BITMAP
0030
0060
00E0
01C0
0380
0700
0F00
1E00
7C00
F800
F000
7000
ENDCHAR
STARTCHAR uni02CB
ENCODING 715
SWIDTH 1000 0
DWIDTH 26 0
BBX 12 12 7 2
BITMAP
3000
7800
FC00
7E00
1E00
0F00
0780
03C0
01E0
0060
0030
0010
ENDCHAR
STARTCHAR uni02CD
ENCODING 717
SWIDTH 1000 0
DWIDTH 26 0
BBX 26 2 0 -5
BITMAP
FFFFFFC0
FFFFFFC0
ENDCHAR
STARTCHAR dotaccent
ENCODING 729
SWIDTH 1000 0
DWIDTH 26 0
BBX 7 7 10 4
BITMAP
78
FC
FE
FE
FE
7C
30
ENDCHAR
STARTCHAR macron.dup1
ENCODING 773
SWIDTH 1000 0
DWIDTH 26 0
BBX 26 2 0 19
BITMAP
FFFFFFC0
00000040
ENDCHAR
STARTCHAR Alpha
ENCODING 913
SWIDTH 1000 0
DWIDTH 26 0
BBX 17 17 5 -1
BITMAP
018000
01C000
03C000
03C000
03E000
06E000
06F000
047000
0C7000
0C3800
0FF800
1FFC00
181C00
101C00
300E00
701F00
F83F80
ENDCHAR
STARTCHAR Beta
ENCODING 914
SWIDTH 1000 0
DWIDTH 26 0
BBX 14 17 6 -1
BITMAP
FFE0
7CF0
3838
3818
3818
3838
3830
3FE0
3FF0
3838
381C
381C
381C
381C
381C
3878
FFF0
ENDCHAR
STARTCHAR Gamma
ENCODING 915
SWIDTH 1000 0
DWIDTH 26 0
BBX 14 17 6 -1
BITMAP
FFF8
7C3C
381C
380C
3804
3800
3800
3800
3800
3800
3800
3800
3800
3800
3800
3C00
FE00
ENDCHAR
STARTCHAR uni0394
ENCODING 916
SWIDTH 1000 0
DWIDTH 26 0
BBX 15 17 6 -1
BITMAP
0300
0300
0780
0780
05C0
0DC0
09E0
18E0
10E0
3070
3070
2038
6038
401C
C01C
FFFC
FFFE
ENDCHAR
STARTCHAR Epsilon
ENCODING 917
SWIDTH 1000 0
DWIDTH 26 0
BBX 14 17 6 -1
BITMAP
FFF8
7C38
381C
380C
380C
3840
3840
38C0
3FC0
38C0
3840
3840
3804
380C
380C
3C3C
FFF8
ENDCHAR
STARTCHAR Zeta
ENCODING 918
SWIDTH 1000 0
DWIDTH 26 0
BBX 14 17 6 -1
BITMAP
3FFC
3C78
3070
60F0
60E0
01E0
01C0
0380
0780
0700
0E00
1E00
1C0C
3C08
3818
7078
FFF8
ENDCHAR
STARTCHAR Eta
ENCODING 919
SWIDTH 1000 0
DWIDTH 26 0
BBX 18 17 4 -1
BITMAP
FE1FC0
3C0F80
380700
380700
380700
380700
380700
380700
3FFF00
380700
380700
380700
380700
380700
380700
3C0F00
FE1FC0
ENDCHAR
STARTCHAR Theta
ENCODING 920
SWIDTH 1000 0
DWIDTH 26 0
BBX 15 17 7 -1
BITMAP
0FE0
3C70
3838
701C
E01C
E00C
E80E
EC6E
EFEE
EC6E
E82E
E00E
E01C
701C
7038
3C70
0FE0
ENDCHAR
STARTCHAR Iota
ENCODING 921
SWIDTH 1000 0
DWIDTH 26 0
BBX 6 17 10 -1
BITMAP
FC
78
30
30
30
30
30
30
30
30
30
30
30
30
30
78
FC
ENDCHAR
STARTCHAR Kappa
ENCODING 922
SWIDTH 1000 0
DWIDTH 26 0
BBX 16 17 5 -1
BITMAP
FE3E
781C
3818
3830
3860
38C0
3B80
3FC0
3FC0
38E0
38F0
3870
3838
383C
381C
781F
FE3F
ENDCHAR
STARTCHAR Lambda
ENCODING 923
SWIDTH 1000 0
DWIDTH 26 0
BBX 16 17 5 -1
BITMAP
0180
0380
03C0
03C0
07C0
06E0
04E0
0CF0
0C70
0870
1838
1838
103C
301C
301C
701E
F83F
ENDCHAR
STARTCHAR Mu
ENCODING 924
SWIDTH 1000 0
DWIDTH 26 0
BBX 20 17 3 -1
BITMAP
F801F0
7801E0
3C03C0
3C03C0
3E07C0
3E07C0
3F05C0
370DC0
3709C0
3389C0
3399C0
31D1C0
31F1C0
30F1C0
30E1C0
70E1E0
F847F0
ENDCHAR
STARTCHAR Nu
ENCODING 925
SWIDTH 1000 0
DWIDTH 26 0
BBX 17 17 5 -1
BITMAP
F01F80
780E00
3C0600
3C0600
3E0600
270600
278600
238600
21C600
20E600
20F600
207E00
203E00
201E00
201E00
700E00
F80600
ENDCHAR
STARTCHAR Xi
ENCODING 926
SWIDTH 1000 0
DWIDTH 26 0
BBX 14 17 6 -1
BITMAP
7FFC
7FFC
61FC
400C
4000
0000
1020
1820
1FE0
1820
1030
0000
8004
C004
E00C
FFFC
FFFC
ENDCHAR
STARTCHAR Omicron
ENCODING 927
SWIDTH 1000 0
DWIDTH 26 0
BBX 15 17 7 -1
BITMAP
0FE0
3C70
3838
701C
E01C
E00C
E00E
E00E
E00E
E00E
E00E
E00E
E01C
701C
7038
3C70
0FE0
ENDCHAR
STARTCHAR Pi
ENCODING 928
SWIDTH 1000 0
DWIDTH 26 0
BBX 17 17 5 -1
BITMAP
FFFF80
781F00
700E00
700E00
700E00
700E00
700E00
700E00
700E00
700E00
700E00
700E00
700E00
700E00
700E00
781E00
FC3F80
ENDCHAR
STARTCHAR Rho
ENCODING 929
SWIDTH 1000 0
DWIDTH 26 0
BBX 14 17 6 -1
BITMAP
FFE0
7C78
3838
381C
381C
381C
381C
3838
3FF0
3800
3800
3800
3800
3800
3800
7C00
FE00
ENDCHAR
STARTCHAR Sigma
ENCODING 931
SWIDTH 1000 0
DWIDTH 26 0
BBX 13 17 7 -1
BITMAP
FFF0
7878
7818
3810
1C00
1E00
0E00
0F00
0600
0C00
0800
1800
3008
2018
7FF8
FFF8
FFF8
ENDCHAR
STARTCHAR Tau
ENCODING 932
SWIDTH 1000 0
DWIDTH 26 0
BBX 16 17 5 -1
BITMAP
7FFE
73CE
C183
C183
8181
0180
0180
0180
0180
0180
0180
0180
0180
0180
0180
03C0
07E0
ENDCHAR
STARTCHAR Upsilon
ENCODING 933
SWIDTH 1000 0
DWIDTH 26 0
BBX 16 17 5 -1
BITMAP
3E7C
7F7E
43C3
C3C3
8181
0180
0180
0180
0180
0180
0180
0180
0180
0180
0180
03C0
07E0
ENDCHAR
STARTCHAR Phi
ENCODING 934
SWIDTH 1000 0
DWIDTH 26 0
BBX 17 17 5 -1
BITMAP
07F000
03E000
01C000
0FF800
39CE00
71C700
E1C300
E1C300
C1C380
E1C300
E1C300
61C700
39CE00
1FF800
01C000
03C000
07F000
ENDCHAR
STARTCHAR Chi
ENCODING 935
SWIDTH 1000 0
DWIDTH 26 0
BBX 16 17 5 -1
BITMAP
FE3E
7C3C
3C18
1C30
1E20
0F60
07C0
03C0
03C0
03C0
07E0
04F0
0C70
1838
183C
783E
FC7F
ENDCHAR
STARTCHAR Psi
ENCODING 936
SWIDTH 1000 0
DWIDTH 26 0
BBX 19 17 4 -1
BITMAP
03F800
C1E0E0
70E1C0
30E380
30E380
30E380
30E380
38E380
38E300
1CE700
0FFE00
03F000
00E000
00E000
00E000
01E000
03F800
ENDCHAR
STARTCHAR uni03A9
ENCODING 937
SWIDTH 1000 0
DWIDTH 26 0
BBX 18 17 4 -1
BITMAP
07F800
1E1E00
380700
380380
700380
700180
7001C0
7001C0
700180
700380
380380
380700
1E1E00
C71C40
C338C0
FF3FC0
FF3FC0
ENDCHAR
STARTCHAR alpha
ENCODING 945
SWIDTH 1000 0
DWIDTH 26 0
BBX 14 13 6 -1
BITMAP
0200
0F8C
19DC
30D8
70F8
60F8
60F0
E0E0
E0E0
E0C8
61D8
73F8
3FF0
ENDCHAR
STARTCHAR beta
ENCODING 946
SWIDTH 1000 0
DWIDTH 26 0
BBX 13 20 7 -4
BITMAP
07E0
0E70
1C38
1838
1838
3830
3070
37E0
33E0
3060
7070
7070
6070
7070
7070
F8E0
EFC0
E300
E000
E000
ENDCHAR
STARTCHAR gamma
ENCODING 947
SWIDTH 1000 0
DWIDTH 26 0
BBX 14 17 6 -5
BITMAP
0008
3E18
7E3C
C778
83C0
0380
0300
0300
0700
0700
0700
0F00
0E00
0E00
0E00
0C00
0C00
ENDCHAR
STARTCHAR delta
ENCODING 948
SWIDTH 1000 0
DWIDTH 26 0
BBX 11 17 8 -1
BITMAP
0780
0DC0
0CE0
0660
0700
0F80
19C0
30C0
70E0
60E0
60E0
E0E0
E0E0
60C0
61C0
7380
3F00
ENDCHAR
STARTCHAR epsilon
ENCODING 949
SWIDTH 1000 0
DWIDTH 26 0
BBX 9 13 9 -1
BITMAP
0C00
3F80
7180
6000
6000
3000
3F80
7700
E000
E000
E080
FF80
7E00
ENDCHAR
STARTCHAR zeta
ENCODING 950
SWIDTH 1000 0
DWIDTH 26 0
BBX 10 21 8 -5
BITMAP
2000
63C0
6780
7F00
3E00
1800
3000
3000
6000
6000
C000
C000
C000
E000
FF00
7FC0
0FC0
00C0
38C0
3FC0
0F00
ENDCHAR
STARTCHAR eta
ENCODING 951
SWIDTH 1000 0
DWIDTH 26 0
BBX 13 17 7 -5
BITMAP
1800
3FF0
6E30
CC38
0C38
1C38
1C30
1830
1870
3870
3870
3860
30E0
00E0
00E0
00E0
0080
ENDCHAR
STARTCHAR theta
ENCODING 952
SWIDTH 1000 0
DWIDTH 26 0
BBX 12 17 7 -1
BITMAP
07E0
0E70
1C30
1830
3830
3030
7030
7070
7FF0
E070
E060
E060
E0E0
E0C0
6180
7380
3E00
ENDCHAR
STARTCHAR iota
ENCODING 953
SWIDTH 1000 0
DWIDTH 26 0
BBX 9 12 8 -1
BITMAP
3800
3800
3000
7000
7000
6000
6000
6080
E180
E300
6600
7C00
ENDCHAR
STARTCHAR kappa
ENCODING 954
SWIDTH 1000 0
DWIDTH 26 0
BBX 12 12 7 -1
BITMAP
38F0
31F0
3300
3600
7C00
7C00
6F00
6300
E310
E330
C3E0
C3C0
ENDCHAR
STARTCHAR lambda
ENCODING 955
SWIDTH 1000 0
DWIDTH 26 0
BBX 13 17 7 -1
BITMAP
1E00
1F00
0700
0300
0100
0100
0100
0300
0700
0F80
0D80
1D80
3980
3180
70C0
E0F8
E078
ENDCHAR
STARTCHAR uni03BC
ENCODING 956
SWIDTH 1000 0
DWIDTH 26 0
BBX 15 16 6 -4
BITMAP
0010
0C18
1C30
1830
3870
3870
3070
3060
30E0
20C0
70C6
71FC
FF78
C420
C000
C000
ENDCHAR
STARTCHAR nu
ENCODING 957
SWIDTH 1000 0
DWIDTH 26 0
BBX 10 13 8 -1
BITMAP
0040
E040
E040
70C0
70C0
30C0
3180
3180
3300
3F00
3E00
3C00
7000
ENDCHAR
STARTCHAR xi
ENCODING 958
SWIDTH 1000 0
DWIDTH 26 0
BBX 11 21 8 -5
BITMAP
0F00
1F00
1800
1FC0
1FC0
3980
3000
3000
3FC0
3FE0
7300
6000
C000
E000
FF00
7F80
1FC0
00C0
39C0
1F80
0F00
ENDCHAR
STARTCHAR omicron
ENCODING 959
SWIDTH 1000 0
DWIDTH 26 0
BBX 12 13 8 -1
BITMAP
0300
0FC0
18E0
3060
7070
6070
6070
E070
6060
6060
60E0
31C0
1F80
ENDCHAR
STARTCHAR pi
ENCODING 960
SWIDTH 1000 0
DWIDTH 26 0
BBX 16 13 5 -1
BITMAP
0001
0FFE
3FFE
7FF8
C660
0660
0E60
0C60
1C60
1CE2
38E6
707C
7078
ENDCHAR
STARTCHAR rho
ENCODING 961
SWIDTH 1000 0
DWIDTH 26 0
BBX 12 16 7 -4
BITMAP
0100
07C0
0C60
1870
3030
3030
7030
6070
6070
6060
F0E0
F1C0
DF80
C000
C000
C000
ENDCHAR
STARTCHAR sigma
ENCODING 963
SWIDTH 1000 0
DWIDTH 26 0
BBX 13 13 7 -1
BITMAP
0008
0FF8
38F0
7060
6060
E060
C070
C060
C060
C0E0
60C0
71C0
3F00
ENDCHAR
STARTCHAR tau
ENCODING 964
SWIDTH 1000 0
DWIDTH 26 0
BBX 11 12 7 -1
BITMAP
1FE0
7FE0
7F80
C600
0600
0C00
0C00
0C00
0C40
0CC0
0F80
0F80
ENDCHAR
STARTCHAR upsilon
ENCODING 965
SWIDTH 1000 0
DWIDTH 26 0
BBX 10 13 8 -1
BITMAP
4100
E180
E1C0
E0C0
E0C0
E0C0
E0C0
C1C0
C180
C180
C300
C600
7C00
ENDCHAR
STARTCHAR phi
ENCODING 966
SWIDTH 1000 0
DWIDTH 26 0
BBX 15 21 6 -5
BITMAP
01C0
01C0
01C0
01C0
03C0
1FF0
39B8
719C
E18C
E30E
C30E
C30E
C30C
E31C
6338
7FF0
1FE0
0700
0600
0600
0E00
ENDCHAR
STARTCHAR chi
ENCODING 967
SWIDTH 1000 0
DWIDTH 26 0
BBX 12 13 7 -1
BITMAP
1800
7CC0
6DC0
C780
0780
0700
0600
0E00
0E00
1F10
3B30
33F0
71E0
ENDCHAR
STARTCHAR psi
ENCODING 968
SWIDTH 1000 0
DWIDTH 26 0
BBX 17 21 4 -5
BITMAP
003000
003000
003000
003000
087200
3E7700
6E6380
CE6380
0E6180
1C6180
1C6180
1C6180
18C300
18C300
18C600
1CDC00
0FF000
01C000
01C000
01C000
018000
ENDCHAR
STARTCHAR omega
ENCODING 969
SWIDTH 1000 0
DWIDTH 26 0
BBX 17 12 5 -1
BITMAP
0E0C00
1C0E00
700700
70C300
E1C380
E1C380
C1C380
C18380
C18700
E38700
FFDE00
7C7C00
ENDCHAR
STARTCHAR endash
ENCODING 8211
SWIDTH 1000 0
DWIDTH 26 0
BBX 10 2 8 7
BITMAP
FFC0
FFC0
ENDCHAR
STARTCHAR emdash
ENCODING 8212
SWIDTH 1000 0
DWIDTH 26 0
BBX 23 2 2 7
BITMAP
FFFFFE
FFFFFE
ENDCHAR
STARTCHAR quoteleft
ENCODING 8216
SWIDTH 1000 0
DWIDTH 26 0
BBX 4 7 21 13
BITMAP
20
40
C0
E0
F0
F0
60
ENDCHAR
STARTCHAR quoteright
ENCODING 8217
SWIDTH 1000 0
DWIDTH 26 0
BBX 4 6 2 14
BITMAP
E0
F0
F0
F0
30
60
ENDCHAR
STARTCHAR quotedblleft
ENCODING 8220
SWIDTH 1000 0
DWIDTH 26 0
BBX 10 7 15 13
BITMAP
1000
2180
6100
7380
FBC0
7BC0
71C0
ENDCHAR
STARTCHAR quotedblright
ENCODING 8221
SWIDTH 1000 0
DWIDTH 26 0
BBX 10 7 2 13
BITMAP
E300
F780
F7C0
F380
2180
6100
0200
ENDCHAR
STARTCHAR bullet
ENCODING 8226
SWIDTH 1000 0
DWIDTH 26 0
BBX 6 6 11 5
BITMAP
70
F8
FC
FC
F8
78
ENDCHAR
STARTCHAR twodotenleader
ENCODING 8229
SWIDTH 1000 0
DWIDTH 26 0
BBX 18 4 4 6
BITMAP
700380
F807C0
F807C0
700380
ENDCHAR
STARTCHAR ellipsis
ENCODING 8230
SWIDTH 1000 0
DWIDTH 26 0
BBX 22 4 3 6
BITMAP
E07038
F0F878
F0F87C
F07078
ENDCHAR
STARTCHAR uni2027
ENCODING 8231
SWIDTH 1000 0
DWIDTH 26 0
BBX 6 6 11 5
BITMAP
70
F8
FC
FC
F8
78
ENDCHAR
STARTCHAR minute
ENCODING 8242
SWIDTH 1000 0
DWIDTH 26 0
BBX 6 3 10 17
BITMAP
1C
7C
E0
ENDCHAR
STARTCHAR uni2035
ENCODING 8245
SWIDTH 1000 0
DWIDTH 26 0
BBX 7 3 10 17
BITMAP
60
F8
0E
ENDCHAR
STARTCHAR uni203B
ENCODING 8251
SWIDTH 1000 0
DWIDTH 26 0
BBX 22 22 2 -3
BITMAP
003800
607818
707838
387870
1C10E0
0E01C0
070380
038700
01CE00
70FC3C
F0783C
F0783C
F0FC3C
01CE00
038700
070380
0E01C0
1C00E0
387870
707838
607818
007800
ENDCHAR
STARTCHAR uni203E
ENCODING 8254
SWIDTH 1000 0
DWIDTH 26 0
BBX 26 2 0 19
BITMAP
FFFFFFC0
FFFFFFC0
ENDCHAR
STARTCHAR Euro
ENCODING 8364
SWIDTH 1000 0
DWIDTH 26 0
BBX 1 1 0 0
BITMAP
00
ENDCHAR
STARTCHAR uni2103
ENCODING 8451
SWIDTH 1000 0
DWIDTH 26 0
BBX 19 21 3 -1
BITMAP
380000
6C0000
C40000
C40000
6C3FC0
3871C0
00E060
01C060
01C020
01C000
038000
038000
038000
038000
038000
01C000
01C020
01E060
00E0C0
007FC0
003F00
ENDCHAR
STARTCHAR afii61248
ENCODING 8453
SWIDTH 1000 0
DWIDTH 26 0
BBX 20 20 3 -2
BITMAP
100000
7E00C0
6201C0
C00380
C00300
C00600
C00C00
E21800
7E3800
187000
006000
00C3E0
018660
030E30
060E30
0E0E30
1C0E30
180670
300760
0003C0
ENDCHAR
STARTCHAR uni2109
ENCODING 8457
SWIDTH 1000 0
DWIDTH 26 0
BBX 21 21 2 -1
BITMAP
380000
6C0000
C40000
C40000
6CFFF8
387C78
003818
003808
003808
0038C0
0038C0
0038C0
003FC0
0038C0
003840
0038C0
003800
003800
003800
007800
00FE00
ENDCHAR
STARTCHAR uni2160
ENCODING 8544
SWIDTH 1000 0
DWIDTH 26 0
BBX 6 17 10 -1
BITMAP
FC
78
30
30
30
30
30
30
30
30
30
30
30
30
30
78
FC
ENDCHAR
STARTCHAR uni2161
ENCODING 8545
SWIDTH 1000 0
DWIDTH 26 0
BBX 14 17 6 -1
BITMAP
FEFC
7878
3838
3838
3838
3838
3838
3838
3838
3838
3838
3838
3838
3838
3830
7878
FEFC
ENDCHAR
STARTCHAR uni2162
ENCODING 8546
SWIDTH 1000 0
DWIDTH 26 0
BBX 22 17 2 -1
BITMAP
FEFEFC
7C7878
383830
383830
383830
383830
383830
383830
383830
383030
383030
383030
383030
383030
383030
787878
FEFEFC
ENDCHAR
STARTCHAR uni2163
ENCODING 8547
SWIDTH 1000 0
DWIDTH 26 0
BBX 20 17 3 -1
BITMAP
FEFCF0
7C7870
383860
383860
383840
381840
381CC0
381C80
381C80
380C80
380F80
380F00
380F00
380700
380700
3C0600
FE0600
ENDCHAR
STARTCHAR uni2164
ENCODING 8548
SWIDTH 1000 0
DWIDTH 26 0
BBX 17 17 5 -1
BITMAP
FE1F80
7C0F00
380400
380C00
3C0800
1C1800
1C1800
0E1000
0E3000
0E3000
072000
076000
03C000
03C000
03C000
018000
018000
ENDCHAR
STARTCHAR uni2165
ENCODING 8549
SWIDTH 1000 0
DWIDTH 26 0
BBX 20 17 3 -1
BITMAP
FCF7F0
7871E0
3861C0
3841C0
3841C0
3841C0
1CC1C0
1C81C0
1C81C0
0D81C0
0F81C0
0F01C0
0F01C0
0701C0
0701C0
0601E0
0607F0
ENDCHAR
STARTCHAR uni2166
ENCODING 8550
SWIDTH 1000 0
DWIDTH 26 0
BBX 24 17 1 -1
BITMAP
F8EFDF
F8E79F
70438E
70C38E
38C38E
38838E
38838E
39838E
1D038E
1D038E
1D038E
1F038E
0E038E
0E038E
0E038E
06078F
040FDF
ENDCHAR
STARTCHAR uni2167
ENCODING 8551
SWIDTH 1000 0
DWIDTH 26 0
BBX 24 17 1 -1
BITMAP
FBBDEF
F3BDE7
7318C6
7318C6
3318C6
3218C6
3A18C6
3A18C6
3E18C6
3E18C6
1E18C6
1C18C6
1C18C6
1C18C6
1C18C6
0C3CE7
083DEF
ENDCHAR
STARTCHAR uni2168
ENCODING 8552
SWIDTH 1000 0
DWIDTH 26 0
BBX 20 17 3 -1
BITMAP
FEF9F0
7C78E0
3838C0
383880
381D80
381D00
380F00
380F00
380700
380700
380F80
380B80
3819C0
3811C0
3830E0
3C71F0
FEF9F0
ENDCHAR
STARTCHAR uni2169
ENCODING 8553
SWIDTH 1000 0
DWIDTH 26 0
BBX 16 17 5 -1
BITMAP
FE3E
7C3C
3C18
1C30
1E20
0F60
07C0
03C0
03C0
03C0
07E0
04F0
0C70
1838
183C
783E
FC7F
ENDCHAR
STARTCHAR arrowleft
ENCODING 8592
SWIDTH 1000 0
DWIDTH 26 0
BBX 23 10 3 3
BITMAP
020000
060000
1C0000
7C0000
FFFFFE
FFFFFE
7C0000
1C0000
0E0000
020000
ENDCHAR
STARTCHAR arrowup
ENCODING 8593
SWIDTH 1000 0
DWIDTH 26 0
BBX 11 24 8 -5
BITMAP
0400
0C00
0E00
1E00
1F00
3F80
7F80
4CC0
8C20
0C00
0C00
0C00
0C00
0C00
0C00
0C00
0C00
0C00
0C00
0C00
0C00
0C00
0C00
0C00
ENDCHAR
STARTCHAR arrowright
ENCODING 8594
SWIDTH 1000 0
DWIDTH 26 0
BBX 23 10 0 3
BITMAP
000080
0000C0
000070
000078
FFFFFE
FFFFFE
00007C
000070
0000E0
000080
ENDCHAR
STARTCHAR arrowdown
ENCODING 8595
SWIDTH 1000 0
DWIDTH 26 0
BBX 10 24 8 -3
BITMAP
0C00
0C00
0C00
0C00
0C00
0C00
0C00
0C00
0C00
0C00
0C00
0C00
0C00
0C00
0C00
0C00
CC40
6F80
3F80
3F00
1F00
0E00
0C00
0400
ENDCHAR
STARTCHAR uni2196
ENCODING 8598
SWIDTH 1000 0
DWIDTH 26 0
BBX 22 21 2 -3
BITMAP
F00000
7F0000
7F8000
7C0000
7E0000
7F0000
278000
23C000
21E000
00F000
007800
003C00
001E00
000F00
000780
0003C0
0001E0
0000F0
000078
00003C
00001C
ENDCHAR
STARTCHAR uni2197
ENCODING 8599
SWIDTH 1000 0
DWIDTH 26 0
BBX 22 21 3 -3
BITMAP
00003C
0007F8
000FF8
0000F8
0001F8
0003F0
0007B0
000F10
001E10
003C00
007800
00F000
01E000
03C000
078000
0F0000
1E0000
3C0000
780000
F00000
E00000
ENDCHAR
STARTCHAR uni2198
ENCODING 8600
SWIDTH 1000 0
DWIDTH 26 0
BBX 22 21 2 -3
BITMAP
600000
F00000
780000
3C0000
1E0000
0F0000
078000
03C000
01E000
00F000
007800
003C00
001E10
000F10
000790
0003D8
0001F8
0000F8
0001F8
0007F8
00007C
ENDCHAR
STARTCHAR uni2199
ENCODING 8601
SWIDTH 1000 0
DWIDTH 26 0
BBX 22 21 2 -3
BITMAP
000018
00003C
000078
0000F0
0001E0
0003C0
000780
000F00
001E00
003C00
007800
00F000
21E000
23C000
278000
6F0000
7E0000
7C0000
7E0000
FF8000
F80000
ENDCHAR
STARTCHAR uni2215
ENCODING 8725
SWIDTH 1000 0
DWIDTH 26 0
BBX 10 22 8 -3
BITMAP
0040
00C0
00C0
0180
0180
0300
0300
0700
0600
0600
0C00
0C00
1800
1800
3800
3000
3000
6000
6000
C000
C000
C000
ENDCHAR
STARTCHAR radical
ENCODING 8730
SWIDTH 1000 0
DWIDTH 26 0
BBX 25 23 1 -2
BITMAP
001FFF80
003FFF80
003FFF00
00300000
00700000
00600000
00600000
00E00000
00C00000
00C00000
00C00000
01800000
01800000
01800000
33000000
F3000000
FB000000
9F000000
1E000000
0E000000
0E000000
04000000
04000000
ENDCHAR
STARTCHAR infinity
ENCODING 8734
SWIDTH 1000 0
DWIDTH 26 0
BBX 18 11 5 2
BITMAP
0C0C00
3F7F00
7FFF80
E3E380
C1C1C0
C0C1C0
C1C1C0
E1E380
7FFF80
3F7F00
1C1C00
ENDCHAR
STARTCHAR orthogonal
ENCODING 8735
SWIDTH 1000 0
DWIDTH 26 0
BBX 18 17 4 -1
BITMAP
C00000
C00000
C00000
C00000
C00000
C00000
C00000
C00000
C00000
C00000
C00000
C00000
C00000
C00000
C00000
FFFFC0
FFFFC0
ENDCHAR
STARTCHAR angle
ENCODING 8736
SWIDTH 1000 0
DWIDTH 26 0
BBX 18 17 5 -1
BITMAP
000080
000180
000380
000700
000E00
001C00
003800
007000
00E000
01C000
038000
070000
0E0000
1C0000
380000
7FFFC0
FFFFC0
ENDCHAR
STARTCHAR uni2223
ENCODING 8739
SWIDTH 1000 0
DWIDTH 26 0
BBX 2 26 12 -5
BITMAP
C0
C0
C0
C0
C0
C0
C0
C0
C0
C0
C0
C0
C0
C0
C0
C0
C0
C0
C0
C0
C0
C0
C0
C0
C0
C0
ENDCHAR
STARTCHAR uni2225
ENCODING 8741
SWIDTH 1000 0
DWIDTH 26 0
BBX 8 26 9 -5
BITMAP
C3
C3
C3
C3
C3
C3
C3
C3
C3
C3
C3
C3
C3
C3
C3
C3
C3
C3
C3
C3
C3
C3
C3
C3
C3
C3
ENDCHAR
STARTCHAR intersection
ENCODING 8745
SWIDTH 1000 0
DWIDTH 26 0
BBX 14 17 6 -1
BITMAP
1FE0
7FF8
7038
E01C
C00C
C00C
C00C
C00C
C00C
C00C
C00C
C00C
C00C
C00C
C00C
C00C
C00C
ENDCHAR
STARTCHAR union
ENCODING 8746
SWIDTH 1000 0
DWIDTH 26 0
BBX 14 17 6 -1
BITMAP
C00C
C00C
C00C
C00C
C00C
C00C
C00C
C00C
C00C
C00C
C00C
C00C
C00C
E01C
7038
7FF8
1FE0
ENDCHAR
STARTCHAR integral
ENCODING 8747
SWIDTH 1000 0
DWIDTH 26 0
BBX 6 23 10 -4
BITMAP
3C
7C
6C
60
60
60
60
60
70
70
30
38
38
18
18
18
1C
1C
1C
58
F8
F8
60
ENDCHAR
STARTCHAR uni222E
ENCODING 8750
SWIDTH 1000 0
DWIDTH 26 0
BBX 10 23 8 -4
BITMAP
0F00
1F00
1B00
3800
3800
3800
1C00
3F00
7D80
DC80
DCC0
CCC0
4EC0
4F80
3F00
1E00
0600
0600
0600
2600
3600
3C00
1800
ENDCHAR
STARTCHAR therefore
ENCODING 8756
SWIDTH 1000 0
DWIDTH 26 0
BBX 17 18 5 -1
BITMAP
01C000
03E000
03E000
01C000
000000
000000
000000
000000
000000
000000
000000
000000
000000
600300
F00780
F00780
F00780
600300
ENDCHAR
STARTCHAR uni2235
ENCODING 8757
SWIDTH 1000 0
DWIDTH 26 0
BBX 17 17 5 -1
BITMAP
F00780
F00780
F00780
E00780
000000
000000
000000
000000
000000
000000
000000
000000
000000
01C000
03E000
03E000
01C000
ENDCHAR
STARTCHAR uni2252
ENCODING 8786
SWIDTH 1000 0
DWIDTH 26 0
BBX 15 21 6 -3
BITMAP
6000
F000
F000
F000
6000
0000
FFFE
FFFE
0000
0000
0000
0000
0000
FFFE
FFFE
0000
000C
001E
001E
001E
000C
ENDCHAR
STARTCHAR notequal
ENCODING 8800
SWIDTH 1000 0
DWIDTH 26 0
BBX 16 17 5 -1
BITMAP
0010
0038
0030
0070
FFFF
FFFF
01F0
01C0
0180
0380
0780
FFFF
7FFF
0E00
0C00
1C00
0800
ENDCHAR
STARTCHAR equivalence
ENCODING 8801
SWIDTH 1000 0
DWIDTH 26 0
BBX 16 15 5 0
BITMAP
FFFF
FFFF
0000
0000
0000
0000
7FFE
FFFF
7FFF
0000
0000
0000
0000
FFFF
FFFF
ENDCHAR
STARTCHAR uni2266
ENCODING 8806
SWIDTH 1000 0
DWIDTH 26 0
BBX 16 17 6 -1
BITMAP
0007
003F
01FC
0FE0
7F00
FE00
0FC0
01F8
003F
0007
0000
0000
FFFE
FFFE
0000
FFFE
FFFE
ENDCHAR
STARTCHAR uni2267
ENCODING 8807
SWIDTH 1000 0
DWIDTH 26 0
BBX 17 17 4 -1
BITMAP
600000
FC0000
3F8000
03F000
007E00
007F00
03F800
1FC000
FE0000
700000
000000
000000
7FFF80
7FFF80
000000
7FFF80
7FFF80
ENDCHAR
STARTCHAR circleplus
ENCODING 8853
SWIDTH 1000 0
DWIDTH 26 0
BBX 21 21 4 -3
BITMAP
03FC00
0C2300
182080
202040
202020
402010
802010
802010
802008
802008
FFFFF8
802008
802008
802010
402010
402020
202060
1020C0
0C2100
032E00
00F000
ENDCHAR
STARTCHAR uni2299
ENCODING 8857
SWIDTH 1000 0
DWIDTH 26 0
BBX 21 21 4 -3
BITMAP
03FC00
0C0300
180080
200040
200020
400010
800010
800010
802008
807008
80F008
807008
800008
800010
400010
400020
200060
1000C0
080100
070600
00F800
ENDCHAR
STARTCHAR perpendicular
ENCODING 8869
SWIDTH 1000 0
DWIDTH 26 0
BBX 18 17 4 -1
BITMAP
00C000
00C000
00C000
00C000
00C000
00C000
00C000
00C000
00C000
00C000
00C000
00C000
00C000
00C000
00C000
FFFFC0
FFFFC0
ENDCHAR
STARTCHAR uni22BF
ENCODING 8895
SWIDTH 1000 0
DWIDTH 26 0
BBX 15 16 6 -1
BITMAP
0002
0006
000E
001E
003E
007E
0076
00E6
01C6
0386
0706
0E06
1C06
3806
7FFE
FFFE
ENDCHAR
STARTCHAR SF100000
ENCODING 9472
SWIDTH 1000 0
DWIDTH 26 0
BBX 24 1 1 7
BITMAP
FFFFFF
ENDCHAR
STARTCHAR SF110000
ENCODING 9474
SWIDTH 1000 0
DWIDTH 26 0
BBX 1 24 12 -4
BITMAP
80
80
80
80
80
80
80
80
80
80
80
80
80
80
80
80
80
80
80
80
80
80
80
80
ENDCHAR
STARTCHAR SF010000
ENCODING 9484
SWIDTH 1000 0
DWIDTH 26 0
BBX 12 12 13 -4
BITMAP
FFF0
8000
8000
8000
8000
8000
8000
8000
8000
8000
8000
8000
ENDCHAR
STARTCHAR SF030000
ENCODING 9488
SWIDTH 1000 0
DWIDTH 26 0
BBX 12 12 1 -4
BITMAP
FFF0
0010
0010
0010
0010
0010
0010
0010
0010
0010
0010
0010
ENDCHAR
STARTCHAR SF020000
ENCODING 9492
SWIDTH 1000 0
DWIDTH 26 0
BBX 12 12 13 8
BITMAP
8000
8000
8000
8000
8000
8000
8000
8000
8000
8000
8000
FFF0
ENDCHAR
STARTCHAR SF040000
ENCODING 9496
SWIDTH 1000 0
DWIDTH 26 0
BBX 12 12 1 8
BITMAP
0010
0010
0010
0010
0010
0010
0010
0010
0010
0010
0010
FFE0
ENDCHAR
STARTCHAR SF080000
ENCODING 9500
SWIDTH 1000 0
DWIDTH 26 0
BBX 12 24 13 -4
BITMAP
8000
8000
8000
8000
8000
8000
8000
8000
8000
8000
8000
8000
FFF0
8000
8000
8000
8000
8000
8000
8000
8000
8000
8000
8000
ENDCHAR
STARTCHAR SF090000
ENCODING 9508
SWIDTH 1000 0
DWIDTH 26 0
BBX 12 24 1 -4
BITMAP
0010
0010
0010
0010
0010
0010
0010
0010
0010
0010
0010
0010
FFF0
0010
0010
0010
0010
0010
0010
0010
0010
0010
0010
0010
ENDCHAR
STARTCHAR SF060000
ENCODING 9516
SWIDTH 1000 0
DWIDTH 26 0
BBX 24 12 1 -4
BITMAP
FFFFFF
001000
001000
001000
001000
001000
001000
001000
001000
001000
001000
001000
ENDCHAR
STARTCHAR SF070000
ENCODING 9524
SWIDTH 1000 0
DWIDTH 26 0
BBX 24 12 1 8
BITMAP
001000
001000
001000
001000
001000
001000
001000
001000
001000
001000
001000
FFFFFF
ENDCHAR
STARTCHAR SF050000
ENCODING 9532
SWIDTH 1000 0
DWIDTH 26 0
BBX 24 24 1 -4
BITMAP
001000
001000
001000
001000
001000
001000
001000
001000
001000
001000
001000
001000
FFEFFF
001000
001000
001000
001000
001000
001000
001000
001000
001000
001000
001000
ENDCHAR
STARTCHAR SF430000
ENCODING 9552
SWIDTH 1000 0
DWIDTH 26 0
BBX 24 2 1 7
BITMAP
FFFFFF
FFFFFF
ENDCHAR
STARTCHAR SF240000
ENCODING 9553
SWIDTH 1000 0
DWIDTH 26 0
BBX 2 24 12 -4
BITMAP
C0
C0
C0
C0
C0
C0
C0
C0
C0
C0
C0
C0
C0
C0
C0
C0
C0
C0
C0
C0
C0
C0
C0
C0
ENDCHAR
STARTCHAR SF510000
ENCODING 9554
SWIDTH 1000 0
DWIDTH 26 0
BBX 12 13 13 -4
BITMAP
FFF0
8000
FFF0
8000
8000
8000
8000
8000
8000
8000
8000
8000
8000
ENDCHAR
STARTCHAR SF520000
ENCODING 9555
SWIDTH 1000 0
DWIDTH 26 0
BBX 13 12 12 -4
BITMAP
FFF8
C000
C000
C000
C000
C000
C000
C000
C000
C000
C000
C000
ENDCHAR
STARTCHAR SF390000
ENCODING 9556
SWIDTH 1000 0
DWIDTH 26 0
BBX 13 13 12 -4
BITMAP
FFF8
8000
BFF8
C000
C000
C000
C000
C000
C000
C000
C000
C000
C000
ENDCHAR
STARTCHAR SF220000
ENCODING 9557
SWIDTH 1000 0
DWIDTH 26 0
BBX 12 13 1 -4
BITMAP
FFF0
0010
FFF0
0010
0010
0010
0010
0010
0010
0010
0010
0010
0010
ENDCHAR
STARTCHAR SF210000
ENCODING 9558
SWIDTH 1000 0
DWIDTH 26 0
BBX 13 12 1 -4
BITMAP
FFF8
0028
0028
0028
0028
0028
0028
0028
0028
0028
0028
0028
ENDCHAR
STARTCHAR SF250000
ENCODING 9559
SWIDTH 1000 0
DWIDTH 26 0
BBX 13 13 1 -4
BITMAP
FFF8
0008
FFE8
0028
0028
0028
0028
0028
0028
0028
0028
0028
0028
ENDCHAR
STARTCHAR SF500000
ENCODING 9560
SWIDTH 1000 0
DWIDTH 26 0
BBX 12 13 13 7
BITMAP
8000
8000
8000
8000
8000
8000
8000
8000
8000
8000
8000
FFF0
FFF0
ENDCHAR
STARTCHAR SF490000
ENCODING 9561
SWIDTH 1000 0
DWIDTH 26 0
BBX 13 12 12 8
BITMAP
C000
C000
C000
C000
C000
C000
C000
C000
C000
C000
C000
FFF8
ENDCHAR
STARTCHAR SF380000
ENCODING 9562
SWIDTH 1000 0
DWIDTH 26 0
BBX 13 13 12 7
BITMAP
C000
C000
C000
C000
C000
C000
C000
C000
C000
C000
8000
BFF8
FFF8
ENDCHAR
STARTCHAR SF280000
ENCODING 9563
SWIDTH 1000 0
DWIDTH 26 0
BBX 12 13 1 7
BITMAP
0010
0010
0010
0010
0010
0010
0010
0010
0010
0010
0010
FFF0
FFF0
ENDCHAR
STARTCHAR SF270000
ENCODING 9564
SWIDTH 1000 0
DWIDTH 26 0
BBX 13 12 1 8
BITMAP
0028
0028
0028
0028
0028
0028
0028
0028
0028
0028
0028
FFF8
ENDCHAR
STARTCHAR SF260000
ENCODING 9565
SWIDTH 1000 0
DWIDTH 26 0
BBX 13 13 1 7
BITMAP
0028
0028
0028
0028
0028
0028
0028
0028
0028
0028
0008
FFE8
FFF8
ENDCHAR
STARTCHAR SF360000
ENCODING 9566
SWIDTH 1000 0
DWIDTH 26 0
BBX 12 24 13 -4
BITMAP
8000
8000
8000
8000
8000
8000
8000
8000
8000
8000
8000
FFF0
8000
FFF0
8000
8000
8000
8000
8000
8000
8000
8000
8000
8000
ENDCHAR
STARTCHAR SF370000
ENCODING 9567
SWIDTH 1000 0
DWIDTH 26 0
BBX 13 24 12 -4
BITMAP
C000
C000
C000
C000
C000
C000
C000
C000
C000
C000
C000
C000
BFF8
C000
C000
C000
C000
C000
C000
C000
C000
C000
C000
C000
ENDCHAR
STARTCHAR SF420000
ENCODING 9568
SWIDTH 1000 0
DWIDTH 26 0
BBX 13 24 12 -4
BITMAP
C000
C000
C000
C000
C000
C000
C000
C000
C000
C000
8000
BFF8
8000
BFF8
C000
C000
C000
C000
C000
C000
C000
C000
C000
C000
ENDCHAR
STARTCHAR SF190000
ENCODING 9569
SWIDTH 1000 0
DWIDTH 26 0
BBX 12 24 1 -4
BITMAP
0010
0010
0010
0010
0010
0010
0010
0010
0010
0010
0010
FFF0
0010
FFF0
0010
0010
0010
0010
0010
0010
0010
0010
0010
0010
ENDCHAR
STARTCHAR SF200000
ENCODING 9570
SWIDTH 1000 0
DWIDTH 26 0
BBX 13 24 1 -4
BITMAP
0028
0028
0028
0028
0028
0028
0028
0028
0028
0028
0028
0028
FFE8
0028
0028
0028
0028
0028
0028
0028
0028
0028
0028
0028
ENDCHAR
STARTCHAR SF230000
ENCODING 9571
SWIDTH 1000 0
DWIDTH 26 0
BBX 13 24 1 -4
BITMAP
0028
0028
0028
0028
0028
0028
0028
0028
0028
0028
0008
FFE8
0008
FFE8
0028
0028
0028
0028
0028
0028
0028
0028
0028
0028
ENDCHAR
STARTCHAR SF470000
ENCODING 9572
SWIDTH 1000 0
DWIDTH 26 0
BBX 24 13 1 -4
BITMAP
FFFFFF
000000
FFFFFF
001000
001000
001000
001000
001000
001000
001000
001000
001000
001000
ENDCHAR
STARTCHAR SF480000
ENCODING 9573
SWIDTH 1000 0
DWIDTH 26 0
BBX 24 12 1 -4
BITMAP
FFFFFF
002800
002800
002800
002800
002800
002800
002800
002800
002800
002800
002800
ENDCHAR
STARTCHAR SF410000
ENCODING 9574
SWIDTH 1000 0
DWIDTH 26 0
BBX 24 13 1 -4
BITMAP
FFFFFF
000000
FFE7FF
002800
002800
002800
002800
002800
002800
002800
002800
002800
002800
ENDCHAR
STARTCHAR SF450000
ENCODING 9575
SWIDTH 1000 0
DWIDTH 26 0
BBX 24 13 1 7
BITMAP
001000
001000
001000
001000
001000
001000
001000
001000
001000
001000
000000
FFFFFF
FFFFFF
ENDCHAR
STARTCHAR SF460000
ENCODING 9576
SWIDTH 1000 0
DWIDTH 26 0
BBX 24 12 1 8
BITMAP
002800
002800
002800
002800
002800
002800
002800
002800
002800
002800
002800
FFFFFF
ENDCHAR
STARTCHAR SF400000
ENCODING 9577
SWIDTH 1000 0
DWIDTH 26 0
BBX 24 13 1 7
BITMAP
002800
002800
002800
002800
002800
002800
002800
002800
002800
002800
000000
FFE7FF
FFFFFF
ENDCHAR
STARTCHAR SF540000
ENCODING 9578
SWIDTH 1000 0
DWIDTH 26 0
BBX 24 24 1 -4
BITMAP
001000
001000
001000
001000
001000
001000
001000
001000
001000
001000
000000
FFFFFF
000000
FFFFFF
001000
001000
001000
001000
001000
001000
001000
001000
001000
001000
ENDCHAR
STARTCHAR SF530000
ENCODING 9579
SWIDTH 1000 0
DWIDTH 26 0
BBX 24 24 1 -4
BITMAP
002800
002800
002800
002800
002800
002800
002800
002800
002800
002800
002800
002800
FFE7FF
002800
002800
002800
002800
002800
002800
002800
002800
002800
002800
002800
ENDCHAR
STARTCHAR SF440000
ENCODING 9580
SWIDTH 1000 0
DWIDTH 26 0
BBX 24 24 1 -4
BITMAP
002800
002800
002800
002800
002800
002800
002800
002800
002800
002800
000000
FFE7FF
000000
FFE7FF
002800
002800
002800
002800
002800
002800
002800
002800
002800
002800
ENDCHAR
STARTCHAR uni256D
ENCODING 9581
SWIDTH 1000 0
DWIDTH 26 0
BBX 12 12 13 -4
BITMAP
07F0
1800
2000
4000
8000
8000
8000
8000
8000
8000
8000
8000
ENDCHAR
STARTCHAR uni256E
ENCODING 9582
SWIDTH 1000 0
DWIDTH 26 0
BBX 12 12 1 -4
BITMAP
FE00
0180
0040
0020
0020
0010
0010
0010
0010
0010
0010
0010
ENDCHAR
STARTCHAR uni256F
ENCODING 9583
SWIDTH 1000 0
DWIDTH 26 0
BBX 12 12 1 8
BITMAP
0010
0010
0010
0010
0010
0010
0010
0010
0020
0040
0080
FF00
ENDCHAR
STARTCHAR uni2570
ENCODING 9584
SWIDTH 1000 0
DWIDTH 26 0
BBX 12 12 13 8
BITMAP
8000
8000
8000
8000
8000
8000
8000
8000
8000
4000
2000
1FF0
ENDCHAR
STARTCHAR uni2571
ENCODING 9585
SWIDTH 1000 0
DWIDTH 26 0
BBX 25 25 0 -5
BITMAP
00000080
00000100
00000200
00000400
00000800
00001000
00002000
00004000
00008000
00010000
00020000
00040000
00080000
00100000
00200000
00400000
00800000
01000000
02000000
04000000
08000000
10000000
20000000
40000000
80000000
ENDCHAR
STARTCHAR uni2572
ENCODING 9586
SWIDTH 1000 0
DWIDTH 26 0
BBX 24 24 1 -4
BITMAP
800000
400000
200000
100000
080000
040000
020000
010000
008000
004000
002000
001000
000800
000400
000200
000100
000080
000040
000020
000010
000008
000004
000002
000001
ENDCHAR
STARTCHAR uni2573
ENCODING 9587
SWIDTH 1000 0
DWIDTH 26 0
BBX 26 26 0 -5
BITMAP
80000000
40000080
20000100
10000200
08000400
04000800
02001000
01002000
00804000
00408000
00210000
00120000
000C0000
000C0000
00120000
00210000
00408000
00804000
01002000
02001000
04000800
08000400
10000200
20000100
40000080
00000040
ENDCHAR
STARTCHAR uni2574
ENCODING 9588
SWIDTH 1000 0
DWIDTH 26 0
BBX 26 2 0 -5
BITMAP
FFFFFFC0
FFFFFFC0
ENDCHAR
STARTCHAR uni2581
ENCODING 9601
SWIDTH 1000 0
DWIDTH 26 0
BBX 26 3 0 -5
BITMAP
FFFFFFC0
FFFFFFC0
FFFFFFC0
ENDCHAR
STARTCHAR uni2582
ENCODING 9602
SWIDTH 1000 0
DWIDTH 26 0
BBX 26 6 0 -5
BITMAP
FFFFFFC0
FFFFFFC0
FFFFFFC0
FFFFFFC0
FFFFFFC0
FFFFFFC0
ENDCHAR
STARTCHAR uni2583
ENCODING 9603
SWIDTH 1000 0
DWIDTH 26 0
BBX 26 9 0 -5
BITMAP
FFFFFFC0
FFFFFFC0
FFFFFFC0
FFFFFFC0
FFFFFFC0
FFFFFFC0
FFFFFFC0
FFFFFFC0
FFFFFFC0
ENDCHAR
STARTCHAR dnblock
ENCODING 9604
SWIDTH 1000 0
DWIDTH 26 0
BBX 26 13 0 -5
BITMAP
FFFFFFC0
FFFFFFC0
FFFFFFC0
FFFFFFC0
FFFFFFC0
FFFFFFC0
FFFFFFC0
FFFFFFC0
FFFFFFC0
FFFFFFC0
FFFFFFC0
FFFFFFC0
FFFFFFC0
ENDCHAR
STARTCHAR uni2585
ENCODING 9605
SWIDTH 1000 0
DWIDTH 26 0
BBX 26 16 0 -5
BITMAP
FFFFFFC0
FFFFFFC0
FFFFFFC0
FFFFFFC0
FFFFFFC0
FFFFFFC0
FFFFFFC0
FFFFFFC0
FFFFFFC0
FFFFFFC0
FFFFFFC0
FFFFFFC0
FFFFFFC0
FFFFFFC0
FFFFFFC0
FFFFFFC0
ENDCHAR
STARTCHAR uni2586
ENCODING 9606
SWIDTH 1000 0
DWIDTH 26 0
BBX 26 19 0 -5
BITMAP
FFFFFFC0
FFFFFFC0
FFFFFFC0
FFFFFFC0
FFFFFFC0
FFFFFFC0
FFFFFFC0
FFFFFFC0
FFFFFFC0
FFFFFFC0
FFFFFFC0
FFFFFFC0
FFFFFFC0
FFFFFFC0
FFFFFFC0
FFFFFFC0
FFFFFFC0
FFFFFFC0
FFFFFFC0
ENDCHAR
STARTCHAR uni2587
ENCODING 9607
SWIDTH 1000 0
DWIDTH 26 0
BBX 26 22 0 -5
BITMAP
FFFFFFC0
FFFFFFC0
FFFFFFC0
FFFFFFC0
FFFFFFC0
FFFFFFC0
FFFFFFC0
FFFFFFC0
FFFFFFC0
FFFFFFC0
FFFFFFC0
FFFFFFC0
FFFFFFC0
FFFFFFC0
FFFFFFC0
FFFFFFC0
FFFFFFC0
FFFFFFC0
FFFFFFC0
FFFFFFC0
FFFFFFC0
FFFFFFC0
ENDCHAR
STARTCHAR block
ENCODING 9608
SWIDTH 1000 0
DWIDTH 26 0
BBX 26 26 0 -5
BITMAP
FFFFFFC0
FFFFFFC0
FFFFFFC0
FFFFFFC0
FFFFFFC0
FFFFFFC0
FFFFFFC0
FFFFFFC0
FFFFFFC0
FFFFFFC0
FFFFFFC0
FFFFFFC0
FFFFFFC0
FFFFFFC0
FFFFFFC0
FFFFFFC0
FFFFFFC0
FFFFFFC0
FFFFFFC0
FFFFFFC0
FFFFFFC0
FFFFFFC0
FFFFFFC0
FFFFFFC0
FFFFFFC0
FFFFFFC0
ENDCHAR
STARTCHAR uni2589
ENCODING 9609
SWIDTH 1000 0
DWIDTH 26 0
BBX 22 26 0 -5
BITMAP
FFFFFC
FFFFFC
FFFFFC
FFFFFC
FFFFFC
FFFFFC
FFFFFC
FFFFFC
FFFFFC
FFFFFC
FFFFFC
FFFFFC
FFFFFC
FFFFFC
FFFFFC
FFFFFC
FFFFFC
FFFFFC
FFFFFC
FFFFFC
FFFFFC
FFFFFC
FFFFFC
FFFFFC
FFFFFC
FFFFFC
ENDCHAR
STARTCHAR uni258A
ENCODING 9610
SWIDTH 1000 0
DWIDTH 26 0
BBX 19 26 0 -5
BITMAP
7FFFE0
FFFFE0
FFFFE0
FFFFE0
FFFFE0
FFFFE0
FFFFE0
FFFFE0
FFFFE0
FFFFE0
FFFFE0
FFFFE0
FFFFE0
FFFFE0
FFFFE0
FFFFE0
FFFFE0
FFFFE0
FFFFE0
FFFFE0
FFFFE0
FFFFE0
FFFFE0
FFFFE0
FFFFE0
FFFFE0
ENDCHAR
STARTCHAR uni258B
ENCODING 9611
SWIDTH 1000 0
DWIDTH 26 0
BBX 16 26 0 -5
BITMAP
FFFF
FFFF
FFFF
FFFF
FFFF
FFFF
FFFF
FFFF
FFFF
FFFF
FFFF
FFFF
FFFF
FFFF
FFFF
FFFF
FFFF
FFFF
FFFF
FFFF
FFFF
FFFF
FFFF
FFFF
FFFF
FFFF
ENDCHAR
STARTCHAR lfblock
ENCODING 9612
SWIDTH 1000 0
DWIDTH 26 0
BBX 13 26 0 -5
BITMAP
FFF8
FFF8
FFF8
FFF8
FFF8
FFF8
FFF8
FFF8
FFF8
FFF8
FFF8
FFF8
FFF8
FFF8
FFF8
FFF8
FFF8
FFF8
FFF8
FFF8
FFF8
FFF8
FFF8
FFF8
FFF8
FFF8
ENDCHAR
STARTCHAR uni258D
ENCODING 9613
SWIDTH 1000 0
DWIDTH 26 0
BBX 10 26 0 -5
BITMAP
7F80
FFC0
FFC0
FFC0
FFC0
FFC0
FFC0
FFC0
FFC0
FFC0
FFC0
FFC0
FFC0
FFC0
FFC0
FFC0
FFC0
FFC0
FFC0
FFC0
FFC0
FFC0
FFC0
FFC0
FFC0
FFC0
ENDCHAR
STARTCHAR uni258E
ENCODING 9614
SWIDTH 1000 0
DWIDTH 26 0
BBX 6 26 0 -5
BITMAP
FC
FC
FC
FC
FC
FC
FC
FC
FC
FC
FC
FC
FC
FC
FC
FC
FC
FC
FC
FC
FC
FC
FC
FC
FC
FC
ENDCHAR
STARTCHAR uni258F
ENCODING 9615
SWIDTH 1000 0
DWIDTH 26 0
BBX 3 26 0 -5
BITMAP
C0
E0
E0
E0
E0
E0
E0
E0
E0
E0
E0
E0
E0
E0
E0
E0
E0
E0
E0
E0
E0
E0
E0
E0
E0
E0
ENDCHAR
STARTCHAR dkshade
ENCODING 9619
SWIDTH 1000 0
DWIDTH 26 0
BBX 22 21 2 -3
BITMAP
FFFFFC
FFFFFC
FFFFFC
FFFFFC
FFFFFC
FFFFFC
FFFFFC
FFFFFC
FFFFFC
FFFFFC
FFFFFC
FFFFFC
FFFFFC
FFFFFC
FFFFFC
FFFFFC
FFFFFC
FFFFFC
FFFFFC
FFFFFC
7FFFF8
ENDCHAR
STARTCHAR uni2594
ENCODING 9620
SWIDTH 1000 0
DWIDTH 26 0
BBX 26 3 0 18
BITMAP
FFFFFFC0
FFFFFFC0
FFFFFFC0
ENDCHAR
STARTCHAR uni2595
ENCODING 9621
SWIDTH 1000 0
DWIDTH 26 0
BBX 3 26 23 -5
BITMAP
E0
E0
E0
E0
E0
E0
E0
E0
E0
E0
E0
E0
E0
E0
E0
E0
E0
E0
E0
E0
E0
E0
E0
E0
E0
E0
ENDCHAR
STARTCHAR filledbox
ENCODING 9632
SWIDTH 1000 0
DWIDTH 26 0
BBX 20 20 3 -2
BITMAP
7FFFE0
FFFFF0
FFFFF0
FFFFF0
FFFFF0
FFFFF0
FFFFF0
FFFFF0
FFFFF0
FFFFF0
FFFFF0
FFFFF0
FFFFF0
FFFFF0
FFFFF0
FFFFF0
FFFFF0
FFFFF0
FFFFF0
7FFFE0
ENDCHAR
STARTCHAR H22073
ENCODING 9633
SWIDTH 1000 0
DWIDTH 26 0
BBX 20 20 3 -2
BITMAP
7FFFE0
FFFFF0
C00070
C00030
C00030
C00030
C00030
C00030
C00030
C00030
C00030
C00030
C00030
C00030
C00030
C00030
C00030
C00030
FFFFF0
7FFFE0
ENDCHAR
STARTCHAR triagup
ENCODING 9650
SWIDTH 1000 0
DWIDTH 26 0
BBX 22 19 2 -2
BITMAP
001000
003000
003800
007C00
00FC00
00FE00
01FE00
01FF00
03FF80
07FF80
07FFC0
0FFFC0
0FFFE0
1FFFE0
1FFFF0
3FFFF8
7FFFF8
7FFFFC
FFFFFC
ENDCHAR
STARTCHAR uni25B3
ENCODING 9651
SWIDTH 1000 0
DWIDTH 26 0
BBX 22 19 2 -2
BITMAP
001000
003000
003800
007C00
00EC00
00C600
018600
018300
030380
070180
0600C0
0E00C0
0C0060
180060
180030
300038
700018
7FFFFC
FFFFFC
ENDCHAR
STARTCHAR triagdn
ENCODING 9660
SWIDTH 1000 0
DWIDTH 26 0
BBX 21 19 3 -1
BITMAP
FFFFF8
FFFFF8
FFFFF0
7FFFF0
7FFFE0
3FFFE0
1FFFC0
1FFF80
0FFF80
0FFF00
07FF00
07FE00
03FE00
01FC00
01F800
00F800
00F000
007000
006000
ENDCHAR
STARTCHAR uni25BD
ENCODING 9661
SWIDTH 1000 0
DWIDTH 26 0
BBX 21 19 3 -1
BITMAP
FFFFF8
FFFFF8
E00030
600030
700060
3000E0
1800C0
180180
0C0180
0C0300
060700
070600
030E00
018C00
019800
00F800
00F000
007000
006000
ENDCHAR
STARTCHAR uni25C6
ENCODING 9670
SWIDTH 1000 0
DWIDTH 26 0
BBX 22 22 2 -3
BITMAP
003000
007800
00FC00
01FE00
03FF00
07FF80
0FFFC0
1FFFE0
3FFFF0
7FFFF8
7FFFFC
FFFFFC
7FFFF8
3FFFF0
1FFFE0
0FFFC0
07FF80
03FF00
01FE00
00FC00
007800
003000
ENDCHAR
STARTCHAR uni25C7
ENCODING 9671
SWIDTH 1000 0
DWIDTH 26 0
BBX 22 22 2 -3
BITMAP
003000
007800
00FC00
01CE00
038700
070380
0E01C0
1C00E0
380070
700038
60001C
E0001C
700038
380070
1C00E0
0E01C0
070380
038700
01CE00
00FC00
007800
003000
ENDCHAR
STARTCHAR circle
ENCODING 9675
SWIDTH 1000 0
DWIDTH 26 0
BBX 22 22 3 -3
BITMAP
007C00
03FF00
0783C0
1C00E0
380070
300038
600018
60001C
60000C
C0000C
C0000C
C0000C
C0000C
C0000C
60000C
600018
300038
380030
1C00E0
0F01C0
07FF80
00FE00
ENDCHAR
STARTCHAR uni25CE
ENCODING 9678
SWIDTH 1000 0
DWIDTH 26 0
BBX 22 22 3 -3
BITMAP
007C00
03FF00
0783C0
1C00E0
387870
31FE38
638718
67019C
6600CC
CC00CC
CC00CC
CC00CC
CC00CC
C600CC
66018C
630398
31FF38
38FC30
1C00E0
0F01C0
07FF80
00FE00
ENDCHAR
STARTCHAR H18533
ENCODING 9679
SWIDTH 1000 0
DWIDTH 26 0
BBX 22 22 3 -3
BITMAP
007C00
03FF00
07FFC0
1FFFE0
3FFFF0
3FFFF8
7FFFF8
7FFFFC
7FFFFC
FFFFFC
FFFFFC
FFFFFC
FFFFFC
FFFFFC
7FFFFC
7FFFF8
3FFFF8
3FFFF0
1FFFE0
0FFFC0
07FF80
00FE00
ENDCHAR
STARTCHAR uni25E2
ENCODING 9698
SWIDTH 1000 0
DWIDTH 26 0
BBX 25 25 1 -5
BITMAP
00000080
00000180
00000380
00000780
00000F80
00001F80
00003F80
00007F80
0000FF80
0001FF80
0003FF80
0007FF80
000FFF80
001FFF80
003FFF80
007FFF80
00FFFF80
01FFFF80
03FFFF80
07FFFF80
0FFFFF80
1FFFFF80
3FFFFF80
7FFFFF80
FFFFFF80
ENDCHAR
STARTCHAR uni25E3
ENCODING 9699
SWIDTH 1000 0
DWIDTH 26 0
BBX 25 25 0 -5
BITMAP
80000000
C0000000
E0000000
F0000000
F8000000
FC000000
FE000000
FF000000
FF800000
FFC00000
FFE00000
FFF00000
FFF80000
FFFC0000
FFFE0000
FFFF0000
FFFF8000
FFFFC000
FFFFE000
FFFFF000
FFFFF800
FFFFFC00
FFFFFE00
FFFFFF00
FFFFFF80
ENDCHAR
STARTCHAR uni25E4
ENCODING 9700
SWIDTH 1000 0
DWIDTH 26 0
BBX 25 25 0 -4
BITMAP
FFFFFF80
FFFFFF00
FFFFFE00
FFFFFC00
FFFFF800
FFFFF000
FFFFE000
FFFFC000
FFFF8000
FFFF0000
FFFE0000
FFFC0000
FFF80000
FFF00000
FFE00000
FFC00000
FF800000
FF000000
FE000000
FC000000
F8000000
F0000000
E0000000
C0000000
80000000
ENDCHAR
STARTCHAR uni25E5
ENCODING 9701
SWIDTH 1000 0
DWIDTH 26 0
BBX 25 25 1 -4
BITMAP
FFFFFF80
7FFFFF80
3FFFFF80
1FFFFF80
0FFFFF80
07FFFF80
03FFFF80
01FFFF80
00FFFF80
007FFF80
003FFF80
001FFF80
000FFF80
0007FF80
0003FF80
0001FF80
0000FF80
00007F80
00003F80
00001F80
00000F80
00000780
00000380
00000180
00000080
ENDCHAR
STARTCHAR uni2605
ENCODING 9733
SWIDTH 1000 0
DWIDTH 26 0
BBX 22 22 2 -3
BITMAP
001000
001000
003000
003800
003800
007800
007C00
007C00
FFFFFC
7FFFF8
1FFFF0
0FFFE0
07FF80
03FF00
01FF00
03FF80
03FF80
03CF80
0783C0
0701C0
0400C0
080000
ENDCHAR
STARTCHAR uni2606
ENCODING 9734
SWIDTH 1000 0
DWIDTH 26 0
BBX 22 22 2 -3
BITMAP
001000
001000
003000
003800
003800
007800
006C00
006C00
FFCFFC
7FC7F8
1C0070
0E00E0
070180
038300
010300
033180
037D80
03CF80
0783C0
0701C0
0400C0
080000
ENDCHAR
STARTCHAR uni2609
ENCODING 9737
SWIDTH 1000 0
DWIDTH 26 0
BBX 21 21 4 -3
BITMAP
03FC00
0C0300
180080
200040
200020
400010
800010
800010
802008
807008
80F008
807008
800008
800010
400010
400020
200060
1000C0
080100
070600
00F800
ENDCHAR
STARTCHAR female
ENCODING 9792
SWIDTH 1000 0
DWIDTH 26 0
BBX 16 19 5 -2
BITMAP
07E0
0FF0
1C38
381C
300C
300C
301C
1818
1C38
0FF0
07C0
0180
0180
FFFF
FFFF
0180
0180
0180
0180
ENDCHAR
STARTCHAR uni2641
ENCODING 9793
SWIDTH 1000 0
DWIDTH 26 0
BBX 21 21 4 -3
BITMAP
03FC00
0C2300
182080
202040
202020
402010
802010
802010
802008
802008
FFFFF8
802008
802008
802010
402010
402020
202060
1020C0
0C2100
032E00
00F000
ENDCHAR
STARTCHAR male
ENCODING 9794
SWIDTH 1000 0
DWIDTH 26 0
BBX 14 19 6 -2
BITMAP
0380
07C0
1FE0
3FF0
733C
E30C
4304
0380
0FC0
1FE0
3870
3038
3018
3018
3018
3038
3870
1FF0
0FC0
ENDCHAR
STARTCHAR uni3000
ENCODING 12288
SWIDTH 1000 0
DWIDTH 26 0
BBX 1 1 0 0
BITMAP
00
ENDCHAR
STARTCHAR uni3001
ENCODING 12289
SWIDTH 1000 0
DWIDTH 26 0
BBX 5 6 11 5
BITMAP
80
E0
70
38
38
18
ENDCHAR
STARTCHAR uni3002
ENCODING 12290
SWIDTH 1000 0
DWIDTH 26 0
BBX 7 6 10 5
BITMAP
38
6C
C6
C6
C4
7C
ENDCHAR
STARTCHAR uni3003
ENCODING 12291
SWIDTH 1000 0
DWIDTH 26 0
BBX 13 12 7 2
BITMAP
1860
1E78
1E78
1CF0
3CF0
38E0
38E0
71C0
71C0
6380
C300
8600
ENDCHAR
STARTCHAR uni3008
ENCODING 12296
SWIDTH 1000 0
DWIDTH 26 0
BBX 7 22 13 -3
BITMAP
04
06
0E
0C
1C
18
38
30
30
60
60
E0
60
70
30
38
18
1C
0C
0E
06
06
ENDCHAR
STARTCHAR uni3009
ENCODING 12297
SWIDTH 1000 0
DWIDTH 26 0
BBX 7 22 6 -3
BITMAP
40
C0
E0
60
70
30
38
18
1C
0C
0E
0E
0C
1C
18
38
30
70
60
E0
C0
C0
ENDCHAR
STARTCHAR uni300A
ENCODING 12298
SWIDTH 1000 0
DWIDTH 26 0
BBX 12 22 13 -3
BITMAP
0420
0630
0E70
0C60
1CE0
18C0
39C0
3180
3380
6300
6700
E700
6300
7380
3180
39C0
18C0
1CE0
0C60
0E70
0630
0630
ENDCHAR
STARTCHAR uni300B
ENCODING 12299
SWIDTH 1000 0
DWIDTH 26 0
BBX 12 22 1 -3
BITMAP
4200
E600
6300
7300
3180
3980
18C0
18C0
0C60
0C60
0670
0630
0E70
0C60
1CE0
18C0
39C0
3180
7380
6300
E700
C200
ENDCHAR
STARTCHAR uni300C
ENCODING 12300
SWIDTH 1000 0
DWIDTH 26 0
BBX 8 11 13 8
BITMAP
FF
FF
C0
C0
C0
C0
C0
C0
C0
C0
C0
ENDCHAR
STARTCHAR uni300D
ENCODING 12301
SWIDTH 1000 0
DWIDTH 26 0
BBX 8 12 5 -4
BITMAP
03
03
03
03
07
07
07
07
07
FF
FF
FF
ENDCHAR
STARTCHAR uni300E
ENCODING 12302
SWIDTH 1000 0
DWIDTH 26 0
BBX 9 11 13 8
BITMAP
FF80
FF80
C180
C180
CF80
CF80
CC00
CC00
CC00
FC00
FC00
ENDCHAR
STARTCHAR uni300F
ENCODING 12303
SWIDTH 1000 0
DWIDTH 26 0
BBX 9 12 4 -4
BITMAP
1F80
1F80
1980
1980
1980
3980
F980
F180
C180
C180
FF80
FF80
ENDCHAR
STARTCHAR uni3010
ENCODING 12304
SWIDTH 1000 0
DWIDTH 26 0
BBX 7 23 13 -4
BITMAP
FE
FC
F8
F0
F0
E0
E0
E0
E0
E0
E0
E0
E0
E0
E0
E0
E0
F0
F0
F8
F8
FC
FE
ENDCHAR
STARTCHAR uni3011
ENCODING 12305
SWIDTH 1000 0
DWIDTH 26 0
BBX 7 23 6 -4
BITMAP
7E
3E
3E
1E
1E
0E
0E
0E
06
06
06
06
06
06
0E
0E
0E
0E
1E
1E
3E
7E
FE
ENDCHAR
STARTCHAR uni3012
ENCODING 12306
SWIDTH 1000 0
DWIDTH 26 0
BBX 18 19 4 -2
BITMAP
FFFFC0
FFFFC0
000000
000000
000000
000000
FFFFC0
FFFFC0
00C000
00C000
00C000
00C000
00C000
00C000
00C000
00C000
00C000
00C000
008000
ENDCHAR
STARTCHAR uni3014
ENCODING 12308
SWIDTH 1000 0
DWIDTH 26 0
BBX 7 22 13 -3
BITMAP
0C
3E
F8
E0
C0
C0
C0
C0
C0
C0
C0
C0
C0
C0
C0
E0
E0
E0
E0
F0
7C
1C
ENDCHAR
STARTCHAR uni3015
ENCODING 12309
SWIDTH 1000 0
DWIDTH 26 0
BBX 6 22 7 -3
BITMAP
C0
F0
7C
1C
0C
0C
0C
0C
0C
0C
0C
0C
0C
0C
0C
0C
0C
0C
1C
3C
F8
E0
ENDCHAR
STARTCHAR uni301D
ENCODING 12317
SWIDTH 1000 0
DWIDTH 26 0
BBX 9 5 16 14
BITMAP
C600
E700
E700
2100
1080
ENDCHAR
STARTCHAR uni301E
ENCODING 12318
SWIDTH 1000 0
DWIDTH 26 0
BBX 10 6 1 13
BITMAP
1180
39C0
7380
6300
4200
8400
ENDCHAR
STARTCHAR uni3021
ENCODING 12321
SWIDTH 1000 0
DWIDTH 26 0
BBX 4 22 11 -3
BITMAP
60
70
F0
F0
F0
F0
F0
F0
F0
F0
F0
F0
F0
F0
F0
F0
F0
F0
60
60
40
40
ENDCHAR
STARTCHAR uni3022
ENCODING 12322
SWIDTH 1000 0
DWIDTH 26 0
BBX 12 22 7 -3
BITMAP
0030
0030
0070
E070
E070
6070
6070
6070
6070
6070
6070
6070
E070
E070
E070
6070
6070
4070
4070
0030
0020
0020
ENDCHAR
STARTCHAR uni3023
ENCODING 12323
SWIDTH 1000 0
DWIDTH 26 0
BBX 17 21 5 -3
BITMAP
000380
400380
618380
61C380
618380
618380
618380
618380
618380
618380
618380
E18380
E18380
E18380
C18380
C18380
C00380
C00380
000300
000300
000200
ENDCHAR
STARTCHAR uni3024
ENCODING 12324
SWIDTH 1000 0
DWIDTH 26 0
BBX 19 18 5 -2
BITMAP
001800
003800
003800
003800
603000
783000
3C7000
0E6000
07E000
03E000
03C000
03E000
07F000
0E7C00
3C3F00
E01F80
000FE0
0003E0
ENDCHAR
STARTCHAR uni3025
ENCODING 12325
SWIDTH 1000 0
DWIDTH 26 0
BBX 12 19 7 -2
BITMAP
0040
1860
3870
3870
38E0
1FC0
1F80
1F80
3DC0
78E0
7070
6070
E070
6070
6070
70E0
3FE0
1F80
0200
ENDCHAR
STARTCHAR uni3026
ENCODING 12326
SWIDTH 1000 0
DWIDTH 26 0
BBX 20 11 4 4
BITMAP
00C000
00E000
00F000
007000
007000
006000
007FE0
3FFFF0
FFFFF0
FF8000
780000
ENDCHAR
STARTCHAR uni3027
ENCODING 12327
SWIDTH 1000 0
DWIDTH 26 0
BBX 21 17 3 0
BITMAP
00C000
00F000
007000
007000
007000
007060
03FFF0
7FFFF8
FFE010
7E0000
000000
000000
000700
03FF80
0FFFC0
0FE100
060000
ENDCHAR
STARTCHAR uni3028
ENCODING 12328
SWIDTH 1000 0
DWIDTH 26 0
BBX 20 21 3 -2
BITMAP
00C000
00E000
00F000
007000
00FFC0
3FFFE0
7FFFE0
7F0000
000000
000000
001F00
0FFF80
1FFF80
0F8000
000000
000000
000000
00FFE0
7FFFF0
FFFFF0
7F0000
ENDCHAR
STARTCHAR uni3029
ENCODING 12329
SWIDTH 1000 0
DWIDTH 26 0
BBX 19 22 5 -3
BITMAP
020000
070000
0F0000
1E0000
1E0000
3FFC00
3FEC00
779C00
601C00
003800
783800
3C7000
0E7000
07E000
03E000
03E000
07F000
0FF800
3C7E00
701F80
800FE0
000320
ENDCHAR
STARTCHAR uni3105
ENCODING 12549
SWIDTH 1000 0
DWIDTH 26 0
BBX 15 18 6 -1
BITMAP
1800
1800
3800
3000
703C
F7FE
FF8E
F80C
000C
000C
0018
0018
0038
0038
0070
03F0
03E0
01C0
ENDCHAR
STARTCHAR uni3106
ENCODING 12550
SWIDTH 1000 0
DWIDTH 26 0
BBX 13 18 7 -1
BITMAP
2000
3000
3000
6000
60F8
EFF8
FF38
F070
8060
00E0
19C0
0F80
0780
07E0
0EF0
3C70
7038
C018
ENDCHAR
STARTCHAR uni3107
ENCODING 12551
SWIDTH 1000 0
DWIDTH 26 0
BBX 16 16 5 0
BITMAP
0004
007E
DFFF
FE0E
7006
6006
6006
6006
6006
6006
6006
600E
600E
600E
000E
0004
ENDCHAR
STARTCHAR uni3108
ENCODING 12552
SWIDTH 1000 0
DWIDTH 26 0
BBX 15 14 6 1
BITMAP
000C
01FE
FFFC
FC00
7000
7000
7000
7000
7000
7000
7000
381C
1FFE
0FFC
ENDCHAR
STARTCHAR uni3109
ENCODING 12553
SWIDTH 1000 0
DWIDTH 26 0
BBX 15 19 6 -2
BITMAP
1000
1800
3800
3800
7008
61FE
FFFE
FE0E
CE0C
0E0C
1C1C
181C
3838
3038
6070
C3F0
81E0
01C0
0080
ENDCHAR
STARTCHAR uni310A
ENCODING 12554
SWIDTH 1000 0
DWIDTH 26 0
BBX 15 16 6 0
BITMAP
0380
0380
0380
0300
0300
037C
0FFE
FFE0
FE00
0C00
0C60
1C38
187C
3BFC
7F8C
3C0C
ENDCHAR
STARTCHAR uni310B
ENCODING 12555
SWIDTH 1000 0
DWIDTH 26 0
BBX 12 18 7 -1
BITMAP
0700
FF80
F780
0700
0E00
0C60
1FF0
3FF0
1870
0070
0060
0060
00E0
00C0
01C0
1F80
0F80
0600
ENDCHAR
STARTCHAR uni310C
ENCODING 12556
SWIDTH 1000 0
DWIDTH 26 0
BBX 14 18 6 -1
BITMAP
0180
1380
3B80
3B80
3380
73FC
67FC
FF8C
FE0C
061C
0E1C
0C18
1C18
3838
3038
63F0
C1E0
00E0
ENDCHAR
STARTCHAR uni310D
ENCODING 12557
SWIDTH 1000 0
DWIDTH 26 0
BBX 11 16 8 0
BITMAP
3060
38E0
38E0
70C0
71C0
6180
C300
C700
C600
C300
E380
71C0
71C0
38E0
38E0
3060
ENDCHAR
STARTCHAR uni310E
ENCODING 12558
SWIDTH 1000 0
DWIDTH 26 0
BBX 18 18 4 -1
BITMAP
000100
01FF80
FFFFC0
7F8000
038000
070400
0FFE00
0FFF00
060700
000600
000600
000E00
000C00
001C00
001C00
01F800
00F000
002000
ENDCHAR
STARTCHAR uni310F
ENCODING 12559
SWIDTH 1000 0
DWIDTH 26 0
BBX 16 16 5 0
BITMAP
0002
01FF
1FFF
1F00
1C00
1C00
1800
1800
1800
3800
3000
3000
7000
6000
C000
8000
ENDCHAR
STARTCHAR uni3110
ENCODING 12560
SWIDTH 1000 0
DWIDTH 26 0
BBX 10 18 8 -1
BITMAP
01C0
01C0
C0C0
E0C0
60C0
60C0
60C0
60C0
60C0
61C0
67C0
7FC0
7CC0
30C0
00C0
01C0
01C0
00C0
ENDCHAR
STARTCHAR uni3111
ENCODING 12561
SWIDTH 1000 0
DWIDTH 26 0
BBX 8 18 10 -1
BITMAP
02
07
07
0E
0C
18
30
60
E0
C0
C0
70
38
1C
1E
0F
07
03
ENDCHAR
STARTCHAR uni3112
ENCODING 12562
SWIDTH 1000 0
DWIDTH 26 0
BBX 15 16 6 0
BITMAP
003C
07FE
FFC0
F1C0
0180
0180
0180
0180
0180
0180
0180
0180
0180
0180
0180
0180
ENDCHAR
STARTCHAR uni3113
ENCODING 12563
SWIDTH 1000 0
DWIDTH 26 0
BBX 15 16 6 0
BITMAP
0600
0300
631C
631C
6318
6318
6318
6338
7FF8
7FF0
3300
0300
0300
07FC
FFFE
F800
ENDCHAR
STARTCHAR uni3114
ENCODING 12564
SWIDTH 1000 0
DWIDTH 26 0
BBX 10 20 8 -2
BITMAP
0100
0380
0380
0700
0E00
1CC0
19C0
31C0
6380
0700
0F00
1F00
3B00
7300
C300
0300
0300
0300
0300
0300
ENDCHAR
STARTCHAR uni3115
ENCODING 12565
SWIDTH 1000 0
DWIDTH 26 0
BBX 14 16 6 0
BITMAP
00FC
1FFC
0F1C
0018
0038
1FF8
1FF0
1C00
1800
1800
1800
3800
3000
7000
6000
C000
ENDCHAR
STARTCHAR uni3116
ENCODING 12566
SWIDTH 1000 0
DWIDTH 26 0
BBX 12 16 7 0
BITMAP
00E0
3FF0
3F70
C030
E030
C030
CC30
CE70
C770
C370
C370
C070
C070
FFF0
FFF0
0020
ENDCHAR
STARTCHAR uni3117
ENCODING 12567
SWIDTH 1000 0
DWIDTH 26 0
BBX 14 17 6 -1
BITMAP
00FC
FFFC
FF1C
2C1C
0C1C
0C18
0C18
0C38
0CF0
0CF0
0C20
0C00
0C00
0E00
0E00
0C00
0400
ENDCHAR
STARTCHAR uni3118
ENCODING 12568
SWIDTH 1000 0
DWIDTH 26 0
BBX 16 18 5 -1
BITMAP
0100
0380
0380
0380
039E
0FFF
FFE0
7300
0300
03FC
07FC
000C
001C
0038
0038
0070
00E0
0180
ENDCHAR
STARTCHAR uni3119
ENCODING 12569
SWIDTH 1000 0
DWIDTH 26 0
BBX 15 16 6 0
BITMAP
0300
0380
0380
0380
0700
0700
0E00
0C00
1C00
1830
3818
307C
77FE
FF8E
FC06
7000
ENDCHAR
STARTCHAR uni311A
ENCODING 12570
SWIDTH 1000 0
DWIDTH 26 0
BBX 14 18 6 -1
BITMAP
0018
F01C
703C
7838
3870
1C70
0EE0
07C0
0380
0180
0180
0180
0180
0380
0380
0380
0380
0180
ENDCHAR
STARTCHAR uni311B
ENCODING 12571
SWIDTH 1000 0
DWIDTH 26 0
BBX 16 16 5 0
BITMAP
0006
07FF
FFF8
78C0
00C0
00C0
07C0
0FC0
1C00
1800
1800
1806
1C0E
0F7C
07F8
03E0
ENDCHAR
STARTCHAR uni311C
ENCODING 12572
SWIDTH 1000 0
DWIDTH 26 0
BBX 16 18 5 -1
BITMAP
0180
01C0
01C0
01C0
01FF
FFFF
FFC0
21C0
01C0
0FC0
1F80
1C00
1800
1800
1C0E
1F7C
0FF8
03E0
ENDCHAR
STARTCHAR uni311D
ENCODING 12573
SWIDTH 1000 0
DWIDTH 26 0
BBX 18 16 4 0
BITMAP
001800
0E1C00
0E1C00
061C00
061800
061F80
07FFC0
FFFC00
7E1800
061800
061800
061800
070000
030600
03FF00
01FE00
ENDCHAR
STARTCHAR uni311E
ENCODING 12574
SWIDTH 1000 0
DWIDTH 26 0
BBX 14 17 6 -1
BITMAP
01FC
FFFC
FF80
0380
0380
3300
73F8
7FF8
7F38
7E30
0E30
0C30
1C70
1860
3060
60C0
4080
ENDCHAR
STARTCHAR uni311F
ENCODING 12575
SWIDTH 1000 0
DWIDTH 26 0
BBX 17 14 5 1
BITMAP
300000
780000
F80000
CC0000
0C0000
060000
070000
038000
01E000
00F000
007800
003E00
001F80
000700
ENDCHAR
STARTCHAR uni3120
ENCODING 12576
SWIDTH 1000 0
DWIDTH 26 0
BBX 13 16 7 0
BITMAP
0400
0E00
1C00
1860
38E0
71E0
E3C0
FF80
3F00
1E00
1C80
3860
70F0
FFF0
FF38
F010
ENDCHAR
STARTCHAR uni3121
ENCODING 12577
SWIDTH 1000 0
DWIDTH 26 0
BBX 14 16 6 0
BITMAP
0038
01FC
3FFC
3E38
0830
0070
0070
18E0
0FC0
07C0
03E0
07F8
0E7C
1C1C
700C
C004
ENDCHAR
STARTCHAR uni3122
ENCODING 12578
SWIDTH 1000 0
DWIDTH 26 0
BBX 13 17 7 0
BITMAP
0040
0FF0
FFF0
78E0
70C0
60C0
61F0
FFF8
FE38
4030
0030
0070
0060
00E0
01C0
0180
0300
ENDCHAR
STARTCHAR uni3123
ENCODING 12579
SWIDTH 1000 0
DWIDTH 26 0
BBX 15 16 6 0
BITMAP
7000
7000
7000
7000
6000
6000
E01C
FFFE
FFFE
F81C
001C
0038
0030
0070
0060
00C0
ENDCHAR
STARTCHAR uni3124
ENCODING 12580
SWIDTH 1000 0
DWIDTH 26 0
BBX 16 18 5 -1
BITMAP
0180
01C0
01E0
01C0
01C0
01CE
03FE
7FFE
7FC0
03C0
07C0
07C0
0FC0
1DC0
19C0
39CF
60FF
807F
ENDCHAR
STARTCHAR uni3125
ENCODING 12581
SWIDTH 1000 0
DWIDTH 26 0
BBX 15 15 6 0
BITMAP
0300
0380
0780
0700
0E00
0E00
1C00
1C00
3800
3000
7008
F7FE
FFFE
FC00
4000
ENDCHAR
STARTCHAR uni3126
ENCODING 12582
SWIDTH 1000 0
DWIDTH 26 0
BBX 17 16 5 0
BITMAP
01C000
18E000
1CC000
1CC000
1CC000
1CC000
1CC000
18C000
18C000
18C000
38C000
30C000
30C200
60C300
40FF80
807F80
ENDCHAR
STARTCHAR uni3127
ENCODING 12583
SWIDTH 1000 0
DWIDTH 26 0
BBX 17 3 5 7
BITMAP
000F00
FFFF80
FFC000
ENDCHAR
STARTCHAR uni3128
ENCODING 12584
SWIDTH 1000 0
DWIDTH 26 0
BBX 14 17 6 -1
BITMAP
0060
0070
0060
00E0
00E0
70C0
3DC0
0F80
0780
03C0
07E0
0EF0
0C78
183C
301C
600C
8000
ENDCHAR
STARTCHAR uni3129
ENCODING 12585
SWIDTH 1000 0
DWIDTH 26 0
BBX 15 14 6 1
BITMAP
001C
801E
C00C
E00C
E00C
E00C
E01C
E01C
E01C
E01C
E01C
EFFC
FFFC
7808
ENDCHAR
STARTCHAR uni32A3
ENCODING 12963
SWIDTH 1000 0
DWIDTH 26 0
BBX 26 25 0 -5
BITMAP
00FFC000
03807000
06001800
0C000C00
1803C600
30FFC300
21FF8100
60FE0180
400C0080
400C0080
400FC080
400FC0C0
C18F80C0
418E00C0
418C0080
418C0080
418C0080
21FFF100
33FFF100
13F03200
08000400
04000800
03003000
00F3E000
003E0000
ENDCHAR
STARTCHAR uni338E
ENCODING 13198
SWIDTH 1000 0
DWIDTH 26 0
BBX 24 17 1 -5
BITMAP
088042
7DE1FF
EE639F
E6631C
E6631C
E6631C
E6631C
E663B8
E661F0
E66300
E663C0
EE61FC
EEF3BE
00060E
00060E
0007FC
0003F8
ENDCHAR
STARTCHAR uni338F
ENCODING 13199
SWIDTH 1000 0
DWIDTH 26 0
BBX 24 21 1 -5
BITMAP
200000
F00000
F00000
700000
73E042
73E1FF
71839B
73031C
76031C
7E031C
7F031C
770398
6381F0
71C300
71C3C0
71E3FC
FBF3BE
00060E
00060E
0007FC
0003F8
ENDCHAR
STARTCHAR uni339C
ENCODING 13212
SWIDTH 1000 0
DWIDTH 26 0
BBX 25 13 1 -1
BITMAP
08804400
3DE3EE00
EE677300
E6673300
E6673300
E6673300
E6673300
E6673300
E6673300
E6673300
E6673300
EE677700
EEF77780
ENDCHAR
STARTCHAR uni339D
ENCODING 13213
SWIDTH 1000 0
DWIDTH 26 0
BBX 23 13 2 -1
BITMAP
040110
3F87FC
739CEC
619CCC
618CCC
E00CCC
E00CCC
E00CCC
E00CCC
608CCC
718CCC
7B1CCE
3F1DFE
ENDCHAR
STARTCHAR uni339E
ENCODING 13214
SWIDTH 1000 0
DWIDTH 26 0
BBX 24 17 1 -1
BITMAP
200000
E00000
E00000
600000
63E044
63E3EE
618773
630673
660673
7E0673
7F0673
770673
638673
638673
61C733
F1E777
FBF777
ENDCHAR
STARTCHAR uni33A1
ENCODING 13217
SWIDTH 1000 0
DWIDTH 26 0
BBX 21 20 3 -1
BITMAP
000038
000048
000068
000010
000020
000048
000038
010300
37EFC0
FCF8C0
7870E0
3070E0
3060E0
3060E0
3060E0
3060E0
3060E0
3060E0
78F0F0
FDF9F0
ENDCHAR
STARTCHAR uni33C4
ENCODING 13252
SWIDTH 1000 0
DWIDTH 26 0
BBX 20 13 3 -1
BITMAP
0C0180
3F07E0
738E70
618C70
E19C30
E01C00
E01800
E01800
E01C00
E09C10
619C30
7B0F60
3E07C0
ENDCHAR
STARTCHAR uni33CE
ENCODING 13262
SWIDTH 1000 0
DWIDTH 26 0
BBX 24 17 1 -1
BITMAP
F1EF07
F0C707
E1870F
E1070F
E2078F
E6078F
EE078F
FE079F
FF07DF
F707D7
E706D7
E386F7
E386F7
E1C6E7
E1C667
F1E667
F3EF6F
ENDCHAR
STARTCHAR uni33D1
ENCODING 13265
SWIDTH 1000 0
DWIDTH 26 0
BBX 20 17 3 -1
BITMAP
180000
F80000
780000
380000
380200
383F80
38F9C0
3870C0
3870C0
3860C0
3860C0
3860C0
3860C0
3870C0
3870C0
78F1E0
7CF9F0
ENDCHAR
STARTCHAR uni33D2
ENCODING 13266
SWIDTH 1000 0
DWIDTH 26 0
BBX 24 21 1 -5
BITMAP
100000
F00000
700000
300000
306020
31F0FF
3399DD
33198C
331D8C
371D8C
371DCC
371DDC
371CF8
331D80
3319E0
7BB9FC
F9F1FE
00038E
000386
0003FE
0000F8
ENDCHAR
STARTCHAR uni33D5
ENCODING 13269
SWIDTH 1000 0
DWIDTH 26 0
BBX 24 17 1 -1
BITMAP
000382
00039E
00039E
00000E
08800E
3DE18E
E6678E
E6638E
E6638E
66638E
66638E
66638E
66638E
66638E
66638E
EE738E
EFF7DF
ENDCHAR
STARTCHAR uni4E00
ENCODING 19968
SWIDTH 1000 0
DWIDTH 26 0
BBX 22 5 2 6
BITMAP
001FF8
1FFFFC
FFFFFC
FF8000
780000
ENDCHAR
STARTCHAR uni4E01
ENCODING 19969
SWIDTH 1000 0
DWIDTH 26 0
BBX 19 21 3 -3
BITMAP
003FE0
1FFFE0
FFFFE0
FFC000
7CE000
007000
007000
007000
007000
007000
007000
007000
007000
007000
007000
007000
007000
00F000
03E000
03C000
010000
ENDCHAR
STARTCHAR uni4E03
ENCODING 19971
SWIDTH 1000 0
DWIDTH 26 0
BBX 20 18 3 -1
BITMAP
018000
01C000
01C000
01C000
01C000
01C1E0
00FFF0
03FFF0
1FFF00
FFE000
FFC000
78C000
00C000
00C000
00E200
00FF00
007F00
001C00
ENDCHAR
STARTCHAR uni4E07
ENCODING 19975
SWIDTH 1000 0
DWIDTH 26 0
BBX 20 20 3 -3
BITMAP
003FE0
0FFFF0
7FFFF0
FFC000
7CC000
00C000
01C000
01FF00
03E300
030300
070300
0E0300
0C0700
1C0700
380600
300E00
601C00
417C00
01F800
010000
ENDCHAR
STARTCHAR uni4E08
ENCODING 19976
SWIDTH 1000 0
DWIDTH 26 0
BBX 22 22 2 -3
BITMAP
006000
007000
007000
006400
007E00
03FE00
1FFE00
1FF000
1FE000
00E000
00E000
7EC000
7FC000
07C000
03E000
03F800
077C00
1E3F00
381FC0
E007F0
8003FC
000040
ENDCHAR
STARTCHAR uni4E09
ENCODING 19977
SWIDTH 1000 0
DWIDTH 26 0
BBX 20 18 3 -1
BITMAP
003C00
07FE00
07FE00
07F000
030000
000000
000000
007C00
03FC00
03FC00
03F000
000000
000000
000000
00FFF0
FFFFF0
FFF8F0
FC0000
ENDCHAR
STARTCHAR uni4E0A
ENCODING 19978
SWIDTH 1000 0
DWIDTH 26 0
BBX 20 20 3 -1
BITMAP
004000
00E000
00F000
00F000
00E000
00E000
00FF00
00FF00
00FE00
00F000
00E000
00E000
00E000
00E000
00E000
00E000
00FFE0
7FFFF0
FFFFF0
7FE0E0
ENDCHAR
STARTCHAR uni4E0B
ENCODING 19979
SWIDTH 1000 0
DWIDTH 26 0
BBX 20 21 4 -3
BITMAP
0003C0
07FFE0
7FFFF0
FFE000
7CE000
00E000
00FC00
00FE00
00FF00
00E700
00E000
00E000
00E000
00E000
00E000
00E000
00E000
00E000
00E000
00E000
004000
ENDCHAR
STARTCHAR uni4E0C
ENCODING 19980
SWIDTH 1000 0
DWIDTH 26 0
BBX 19 20 4 -3
BITMAP
007FC0
3FFFE0
7FFFE0
FF9C00
7F1C00
031C00
031C00
071C00
061C00
061C00
061C00
061C00
0C1C00
0C1C00
181C00
301C00
601C00
C01C00
001C00
000800
ENDCHAR
STARTCHAR uni4E0D
ENCODING 19981
SWIDTH 1000 0
DWIDTH 26 0
BBX 22 20 2 -2
BITMAP
00FFE0
3FFFF0
7F8E00
3C1C00
019800
01F800
00F000
00F000
01F800
03FC00
07FF00
0F7F80
0E77E0
1873F0
3071FC
607000
C07000
007000
01E000
01C000
ENDCHAR
STARTCHAR uni4E0E
ENCODING 19982
SWIDTH 1000 0
DWIDTH 26 0
BBX 19 21 4 -3
BITMAP
0E0000
0E3C00
0FFC00
0FF800
1DE000
1C0000
1C0000
1C03C0
19FEE0
1FF0E0
1E00E0
0000E0
0000E0
00F0E0
FFE0C0
FF81C0
F001C0
0001C0
000780
003F00
003E00
ENDCHAR
STARTCHAR uni4E0F
ENCODING 19983
SWIDTH 1000 0
DWIDTH 26 0
BBX 15 22 6 -3
BITMAP
0020
3FF0
FFF0
7F80
2700
0700
077C
07FE
47C6
6706
6706
E70E
E7FE
FFFE
FF0E
400E
001C
001C
0038
0078
03F0
01E0
ENDCHAR
STARTCHAR uni4E10
ENCODING 19984
SWIDTH 1000 0
DWIDTH 26 0
BBX 16 22 5 -3
BITMAP
00F0
1FF0
7FE0
7F80
3F00
0300
03F0
43F0
E3C0
C300
C302
C3FF
FFE3
FC07
E007
0007
0007
000E
000E
009E
007C
0078
ENDCHAR
STARTCHAR uni4E11
ENCODING 19985
SWIDTH 1000 0
DWIDTH 26 0
BBX 20 20 3 -2
BITMAP
07FE00
07FF00
07FF00
038700
000700
00C700
018700
018780
0FFFC0
3FFFC0
1FEF00
060E00
060E00
040E00
0C1C00
0C3FE0
FFFFF0
FFFFF0
FFC1E0
600000
ENDCHAR
STARTCHAR uni4E14
ENCODING 19988
SWIDTH 1000 0
DWIDTH 26 0
BBX 20 21 3 -3
BITMAP
031C00
03FE00
07F600
070600
060600
060600
07E600
07E600
078600
060600
060600
07E600
07F600
070600
060600
060600
061FE0
1FFFF0
FFFFF0
FF8000
780000
ENDCHAR
STARTCHAR uni4E15
ENCODING 19989
SWIDTH 1000 0
DWIDTH 26 0
BBX 21 20 3 -2
BITMAP
00FF00
0FFF80
1F8C00
0E3C00
03F800
03E000
01E000
03F800
07FC00
0E7F00
1CEFC0
38E7E0
30E3F0
60E078
C1E000
81C000
010000
0FFF80
1FFF80
1F8300
ENDCHAR
STARTCHAR uni4E16
ENCODING 19990
SWIDTH 1000 0
DWIDTH 26 0
BBX 22 18 2 -1
BITMAP
0001C0
0021C0
0C31C0
1C71C0
1C71C0
1CFFFC
7FFFFC
FFF180
FC7180
7C7380
0C7300
0C7F00
0C3C00
0E0000
060000
07FFC0
07FFE0
03E000
ENDCHAR
STARTCHAR uni4E18
ENCODING 19992
SWIDTH 1000 0
DWIDTH 26 0
BBX 22 20 3 -2
BITMAP
000600
037E00
03FE00
07F800
07E000
070000
070080
070FC0
07FFC0
07FF00
07C600
070600
070600
070E00
070E00
070EF0
07FFFC
7FFFFC
FFF000
780000
ENDCHAR
STARTCHAR uni4E19
ENCODING 19993
SWIDTH 1000 0
DWIDTH 26 0
BBX 20 20 3 -2
BITMAP
01FE00
1FFF00
1FF000
0CE000
00E000
00E000
00FC00
0FFFE0
7FFC70
FFC070
E1C0F0
E190F0
E3BCF0
E31EF0
660EE0
6800E0
6000E0
6007E0
2007C0
000780
ENDCHAR
STARTCHAR uni4E1E
ENCODING 19998
SWIDTH 1000 0
DWIDTH 26 0
BBX 21 20 3 -2
BITMAP
03FE00
07CE00
071E00
003C00
002000
01C180
00C380
066700
7F7E00
F77800
0E7C00
0C7E00
187780
3863C0
30E1F0
61E0F8
C08000
801800
1FFF00
0FFF00
ENDCHAR
STARTCHAR uni4E1F
ENCODING 19999
SWIDTH 1000 0
DWIDTH 26 0
BBX 20 22 3 -3
BITMAP
000E00
01FF00
07FF00
08F000
007000
00F400
01FE00
07FE00
0FF800
07E000
00E000
00FFF0
3FFFF0
FFFFF0
7EE000
41C400
018600
030700
077F80
0FFF80
0FE380
0E0300
ENDCHAR
STARTCHAR uni4E26
ENCODING 20006
SWIDTH 1000 0
DWIDTH 26 0
BBX 20 21 3 -2
BITMAP
000300
030700
030600
030800
019BC0
1FFFC0
1FFF80
1FD800
009880
0199C0
1999C0
199980
199D80
1F9F00
1F9E00
019800
019800
019FE0
7FFFF0
FFFFF0
FF0000
ENDCHAR
STARTCHAR uni4E2B
ENCODING 20011
SWIDTH 1000 0
DWIDTH 26 0
BBX 15 22 6 -3
BITMAP
0004
E00E
F00E
F01E
783C
3C78
1E70
0FE0
07C0
0380
0380
0380
0380
0380
0380
0380
0380
0380
0380
0380
0100
0100
ENDCHAR
STARTCHAR uni4E2D
ENCODING 20013
SWIDTH 1000 0
DWIDTH 26 0
BBX 20 22 3 -3
BITMAP
006000
00E000
00E000
00FF20
E3FFF0
FFFE70
FFE070
F8E0F0
F0E0E0
E0E1C0
70FFC0
73FFE0
7FFFC0
3FE000
18E000
00E000
00E000
00E000
00E000
00E000
00C000
008000
ENDCHAR
STARTCHAR uni4E2E
ENCODING 20014
SWIDTH 1000 0
DWIDTH 26 0
BBX 20 22 4 -3
BITMAP
000600
00FE00
0FEE00
7F8E00
7E0C00
3C0C00
0C1C00
0F9800
3FD800
7F1800
3C1800
0C1800
0FD800
3FD800
FFDC00
7E0C00
0C0C00
0C0E20
0C0720
0C03E0
0C01F0
0000E0
ENDCHAR
STARTCHAR uni4E30
ENCODING 20016
SWIDTH 1000 0
DWIDTH 26 0
BBX 18 22 4 -3
BITMAP
00C000
00FC00
01FE00
1FFC00
38C000
00C000
03FC00
1FFC00
1FF000
00C000
00C000
03FFC0
7FFFC0
FFFFC0
FCC000
00C000
00C000
00C000
00C000
00C000
00C000
008000
ENDCHAR
STARTCHAR uni4E31
ENCODING 20017
SWIDTH 1000 0
DWIDTH 26 0
BBX 19 22 4 -3
BITMAP
021800
031800
031800
033840
633860
E33860
E31860
C31860
C318E0
C718E0
E718C0
4718C0
5F1FC0
7E1F80
F61E00
C61800
061800
0C1800
0C1800
081800
101000
001000
ENDCHAR
STARTCHAR uni4E32
ENCODING 20018
SWIDTH 1000 0
DWIDTH 26 0
BBX 17 22 5 -3
BITMAP
01C000
01C000
31FE00
7FFE00
7FC600
71CE00
31DC00
31F800
3FF800
1FC000
01FF80
9FFB80
FFC380
F1C380
E1C700
61FE00
7FFC00
39C000
11C000
018000
018000
010000
ENDCHAR
STARTCHAR uni4E33
ENCODING 20019
SWIDTH 1000 0
DWIDTH 26 0
BBX 16 23 5 -4
BITMAP
0660
0660
67FE
7FEE
7FEE
766C
767C
37F8
3FF0
1E60
07FF
DFF7
FEE7
E667
E467
EDFE
7FFC
3C60
1860
1860
1060
0040
0040
ENDCHAR
STARTCHAR uni4E38
ENCODING 20024
SWIDTH 1000 0
DWIDTH 26 0
BBX 21 19 3 -1
BITMAP
004000
00C000
00C000
01CE00
01FE00
0FDE00
3F1C00
7E3800
3E3800
0C7000
187000
786000
3C6000
3E6010
646010
407038
C07878
803FF0
001FE0
ENDCHAR
STARTCHAR uni4E39
ENCODING 20025
SWIDTH 1000 0
DWIDTH 26 0
BBX 20 22 3 -3
BITMAP
000800
03FC00
07DC00
070C00
060E00
06EE00
06EE00
04EE00
0C0E00
0C7FF0
3FFFF0
FFFFF0
FF0F00
FC0F00
0C0F00
0C0F00
0C0F00
0C0F00
0C0F00
0C0E00
041C00
040800
ENDCHAR
STARTCHAR uni4E3B
ENCODING 20027
SWIDTH 1000 0
DWIDTH 26 0
BBX 18 21 4 -3
BITMAP
078000
078000
03C000
00FE00
0FFE00
7FFC00
7FE000
3DC000
01C000
01F800
07FC00
1FF800
1FC000
09C000
01C000
01C000
01C100
3FFFC0
FFFFC0
FE0000
400000
ENDCHAR
STARTCHAR uni4E3C
ENCODING 20028
SWIDTH 1000 0
DWIDTH 26 0
BBX 19 22 4 -3
BITMAP
001C00
061C00
061C00
061F00
0FFF80
3FFF00
3FFC00
1C1C00
0DDC00
0DDC00
0C9C00
0CFFC0
7FFFE0
FFFFE0
FC1C00
181C00
181C00
181C00
301C00
301C00
201800
001000
ENDCHAR
STARTCHAR uni4E42
ENCODING 20034
SWIDTH 1000 0
DWIDTH 26 0
BBX 19 18 5 -2
BITMAP
001800
003800
003800
003800
603000
783000
3C7000
0E6000
07E000
03E000
03C000
03E000
07F000
0E7C00
3C3F00
E01F80
000FE0
0003E0
ENDCHAR
STARTCHAR uni4E43
ENCODING 20035
SWIDTH 1000 0
DWIDTH 26 0
BBX 19 20 3 -2
BITMAP
00FFC0
0FF9C0
0FC1C0
070380
00C600
00C400
01C000
038000
0381C0
0700C0
0E00E0
0E00E0
1C00E0
3800C0
3001C0
6001C0
400380
800F80
007F00
007E00
ENDCHAR
STARTCHAR uni4E45
ENCODING 20037
SWIDTH 1000 0
DWIDTH 26 0
BBX 21 20 3 -2
BITMAP
006000
01E000
03E000
07FC00
0F9C00
0E3800
1C3800
387000
307000
00E000
00E000
01E000
03F000
07F800
071E00
0E1F00
380FC0
7007E0
C001F0
000078
ENDCHAR
STARTCHAR uni4E47
ENCODING 20039
SWIDTH 1000 0
DWIDTH 26 0
BBX 22 22 2 -3
BITMAP
000C00
003C00
00FC00
03FC00
0FF000
0FE000
01C000
01C040
01C3E0
01FFF0
03FFE0
3FF800
FFC000
7F8000
398000
018010
01C008
01C01C
01E03C
00FFF8
00FFF8
003FC0
ENDCHAR
STARTCHAR uni4E48
ENCODING 20040
SWIDTH 1000 0
DWIDTH 26 0
BBX 16 18 5 -1
BITMAP
01C0
07C0
0F80
0F00
1E00
38E0
71E0
61E0
83C0
0780
0700
0F18
1E1C
1C1E
3FFE
FFFF
FF07
6006
ENDCHAR
STARTCHAR uni4E4B
ENCODING 20043
SWIDTH 1000 0
DWIDTH 26 0
BBX 23 19 2 -1
BITMAP
038000
03C000
01EF80
01F380
0FC780
3E0F00
781C00
306000
00C000
010000
060000
180000
F80000
FE0000
CF8000
07F800
03FFF8
00FFFE
003FF0
ENDCHAR
STARTCHAR uni4E4D
ENCODING 20045
SWIDTH 1000 0
DWIDTH 26 0
BBX 17 22 4 -3
BITMAP
060000
0F0000
1F0300
3E3F80
3FFF00
7FFC00
7BF000
F07000
C07600
807F00
007E00
007800
006000
006000
007F80
007F80
007F00
007000
006000
006000
006000
004000
ENDCHAR
STARTCHAR uni4E4E
ENCODING 20046
SWIDTH 1000 0
DWIDTH 26 0
BBX 20 22 3 -3
BITMAP
007000
03F800
000100
00C380
10E700
38E700
18EC00
186800
087040
00FFE0
3FFFF0
FFFCE0
FC6000
406000
006000
006000
006000
006000
00E000
00E000
07C000
038000
ENDCHAR
STARTCHAR uni4E4F
ENCODING 20047
SWIDTH 1000 0
DWIDTH 26 0
BBX 21 21 3 -2
BITMAP
000800
003C00
01FC00
07C000
0E0000
380000
000000
03BF00
03CF00
0FDE00
1CF000
18C000
010000
060000
180000
FC0000
FE0000
07E000
03FFE0
01FFF8
003FC0
ENDCHAR
STARTCHAR uni4E52
ENCODING 20050
SWIDTH 1000 0
DWIDTH 26 0
BBX 22 21 2 -3
BITMAP
003E00
03FE00
03FC00
038000
038000
038380
03BFC0
03FF00
03F600
030600
030600
030600
03FFF8
1FFFFC
7FFC00
FF8000
638000
070000
060000
0C0000
080000
ENDCHAR
STARTCHAR uni4E53
ENCODING 20051
SWIDTH 1000 0
DWIDTH 26 0
BBX 21 21 2 -3
BITMAP
007E00
03FE00
03F800
038000
030000
030780
037F80
03FF00
03FE00
030600
030600
030E00
03FFF8
3FFFF8
FFFC00
FE0000
600380
000380
0001C0
0001C0
0000C0
ENDCHAR
STARTCHAR uni4E56
ENCODING 20054
SWIDTH 1000 0
DWIDTH 26 0
BBX 19 22 3 -3
BITMAP
007C00
03FC00
006000
006000
006FE0
07FFE0
7FFFE0
FFE000
606600
066600
0667C0
3E6FC0
7E6E00
066C00
0666C0
3E67E0
7463C0
206000
006000
006000
006000
006000
ENDCHAR
STARTCHAR uni4E58
ENCODING 20056
SWIDTH 1000 0
DWIDTH 26 0
BBX 21 23 3 -4
BITMAP
003800
01FC00
02E000
00FFE0
1FFFE0
FFFC40
F06400
026640
3E67C0
366600
066600
0E67E0
38E3E0
23F800
07FC00
0CEF00
38E780
70E3F0
C0E1F8
00E000
03C000
038000
010000
ENDCHAR
STARTCHAR uni4E59
ENCODING 20057
SWIDTH 1000 0
DWIDTH 26 0
BBX 19 20 5 -2
BITMAP
1FF000
3F7000
3CF000
39E000
03C000
078000
070000
0E0000
1C0000
380000
300000
700000
600080
6000C0
E000E0
6001C0
781FC0
7FFFC0
1FFF00
0FFC00
ENDCHAR
STARTCHAR uni4E5C
ENCODING 20060
SWIDTH 1000 0
DWIDTH 26 0
BBX 23 19 2 -2
BITMAP
020000
070000
060380
061F80
0E7B80
0FF380
0FE380
7F8380
FE0300
7C0700
0C1E00
0C1800
0C0008
0C0008
0E000C
0F007E
07FFFC
03FFF8
003F00
ENDCHAR
STARTCHAR uni4E5D
ENCODING 20061
SWIDTH 1000 0
DWIDTH 26 0
BBX 22 20 2 -2
BITMAP
004000
006000
00E000
00FF00
01FF00
07EF00
1FCE00
3F9C00
3F1C00
0E3800
0E3800
1C3000
1C3000
383008
303008
70300C
60381C
C03FF8
801FF8
0007C0
ENDCHAR
STARTCHAR uni4E5E
ENCODING 20062
SWIDTH 1000 0
DWIDTH 26 0
BBX 18 23 4 -3
BITMAP
080000
1CF000
3FF000
7FE000
7FC000
F00000
E00000
C1C000
0FE000
1FC000
7F8000
7F0000
660000
0C0000
180000
180100
300180
3001C0
7001C0
7007C0
3FFF80
3FFE00
0FF800
ENDCHAR
STARTCHAR uni4E5F
ENCODING 20063
SWIDTH 1000 0
DWIDTH 26 0
BBX 23 20 1 -1
BITMAP
004000
00E000
00E000
00E000
00E700
0CFF00
1CF700
1FF700
1FC700
7FC700
FEC700
788600
389E00
188800
180004
180004
18000E
1F00FE
0FFFFC
07FFF8
ENDCHAR
STARTCHAR uni4E69
ENCODING 20073
SWIDTH 1000 0
DWIDTH 26 0
BBX 22 20 3 -2
BITMAP
0C0600
0C0F00
0C0F00
0C0E00
0C1C00
0FDC00
0F9800
0C1800
0C1800
0C1800
0C1800
4F9800
FF9800
F39800
E31808
E31808
E7181C
7F1E7C
7C0FF8
6007F0
ENDCHAR
STARTCHAR uni4E73
ENCODING 20083
SWIDTH 1000 0
DWIDTH 26 0
BBX 21 22 3 -3
BITMAP
038000
078200
082700
146700
66CE00
668C00
700C00
318C00
1FC800
79D800
721800
4D9800
071800
0F1800
1F1800
7B1800
F31810
E31838
031EF8
060FF0
1E07E0
100000
ENDCHAR
STARTCHAR uni4E7E
ENCODING 20094
SWIDTH 1000 0
DWIDTH 26 0
BBX 23 22 2 -3
BITMAP
060000
070300
078700
0FC770
3F8FF0
3E0FF0
0E1FC0
0FFC00
7C7800
F0F0C0
6EC7C0
619F80
73BF80
3E3F00
1F8600
0FC600
7E0C00
FE0C04
0E0E06
060FFE
0407FC
0403F8
ENDCHAR
STARTCHAR uni4E7F
ENCODING 20095
SWIDTH 1000 0
DWIDTH 26 0
BBX 21 22 3 -3
BITMAP
020000
0F0400
186600
88EF00
CD8E00
C10C00
080C00
180C00
3B0C00
E70C00
EE0C00
389C00
31D800
FFD800
FC5800
0E1800
0E9800
C6DC30
8E7C78
CE4FF0
1C07F0
180180
ENDCHAR
STARTCHAR uni4E82
ENCODING 20098
SWIDTH 1000 0
DWIDTH 26 0
BBX 22 23 2 -4
BITMAP
038000
0F3180
007180
7643C0
32C380
1FE300
3CE300
3D0300
070700
27E700
3E6600
656600
6FF600
5EF600
417600
4F7608
DB7608
CF760C
C7771C
CC73FC
C1F1F8
40E000
008000
ENDCHAR
STARTCHAR uni4E83
ENCODING 20099
SWIDTH 1000 0
DWIDTH 26 0
BBX 21 22 3 -3
BITMAP
062000
266600
364700
368700
07C600
1FE600
7F0E00
7E0C00
1EEC00
366C00
260C00
40CC00
21EC00
7FCC00
7A8C00
DAEC00
77EC20
26CC38
40CE78
80C7F0
0083E0
008000
ENDCHAR
STARTCHAR uni4E84
ENCODING 20100
SWIDTH 1000 0
DWIDTH 26 0
BBX 21 23 3 -4
BITMAP
060000
0FC300
3FC380
1E0780
078700
1F8700
000600
1FF600
F83E00
C35E00
DF0600
C80E00
83CE00
3FCE00
31CE00
318C00
1F0C00
10CC10
198E38
19E7F8
3F87F0
7C01E0
200000
ENDCHAR
STARTCHAR uni4E86
ENCODING 20102
SWIDTH 1000 0
DWIDTH 26 0
BBX 13 22 7 -3
BITMAP
0020
7FF0
FC78
7078
00E0
01C0
0700
0700
0380
0380
0380
0180
0180
0180
0180
0180
0380
0380
0380
0F80
1F00
0C00
ENDCHAR
STARTCHAR uni4E88
ENCODING 20104
SWIDTH 1000 0
DWIDTH 26 0
BBX 20 23 4 -4
BITMAP
00FC00
07EE00
078F00
031C00
00F800
00F000
007FC0
03FFE0
3FF0F0
FC71F0
E07000
007000
007000
007000
007000
007000
007000
007000
007000
00F000
01E000
01C000
008000
ENDCHAR
STARTCHAR uni4E8B
ENCODING 20107
SWIDTH 1000 0
DWIDTH 26 0
BBX 20 23 3 -3
BITMAP
004000
00FFE0
7FFFF0
FFE000
FC6600
04FB00
076600
067C00
07F000
007F80
03FF80
1FE1C0
0C7B80
03F380
03E700
007F00
07FF80
0FF000
0C6000
006000
00E000
03E000
01C000
ENDCHAR
STARTCHAR uni4E8C
ENCODING 20108
SWIDTH 1000 0
DWIDTH 26 0
BBX 20 16 3 -1
BITMAP
007800
07FC00
07F800
07E000
000000
000000
000000
000000
000000
000000
000000
01FFE0
7FFFF0
FFFFF0
FC0000
700000
ENDCHAR
STARTCHAR uni4E8D
ENCODING 20109
SWIDTH 1000 0
DWIDTH 26 0
BBX 19 22 4 -3
BITMAP
007800
07F800
07F800
07E000
010000
000000
000180
01FFC0
3FFFE0
FFE040
FE6000
206000
006000
006000
006000
006000
006000
006000
00E000
01E000
07E000
038000
ENDCHAR
STARTCHAR uni4E8E
ENCODING 20110
SWIDTH 1000 0
DWIDTH 26 0
BBX 19 24 4 -4
BITMAP
002000
01F800
07F800
07F800
07E000
018000
00C000
00E000
00FFC0
1FFFE0
FFFFE0
FFE000
78E000
00E000
00E000
00E000
00E000
00E000
00E000
00E000
09E000
07C000
030000
020000
ENDCHAR
STARTCHAR uni4E91
ENCODING 20113
SWIDTH 1000 0
DWIDTH 26 0
BBX 21 20 2 -2
BITMAP
001C00
03FE00
03FE00
01FC00
00C000
000000
000000
000000
01FFF0
3FFFF8
FFFFF8
7EF000
30F800
01EE00
03C700
078780
0FFF80
0FFFC0
0FF3C0
060180
ENDCHAR
STARTCHAR uni4E92
ENCODING 20114
SWIDTH 1000 0
DWIDTH 26 0
BBX 20 21 3 -2
BITMAP
000300
03FF80
07FF80
07FE00
007800
006000
00E000
01FF00
038E00
030E00
020E00
1F9C00
1FF800
1FF800
007000
00E000
01C000
03FFF0
7FFFF0
FFFFF0
7C0000
ENDCHAR
STARTCHAR uni4E93
ENCODING 20115
SWIDTH 1000 0
DWIDTH 26 0
BBX 18 21 5 -3
BITMAP
00F800
0FF800
0FF000
0FC000
000000
000000
007FC0
3FFFC0
FFFFC0
FE1800
7C1800
0C1800
0C1800
0C1800
181800
181800
301800
601800
C01800
001800
001000
ENDCHAR
STARTCHAR uni4E94
ENCODING 20116
SWIDTH 1000 0
DWIDTH 26 0
BBX 21 20 3 -2
BITMAP
003C00
07FE00
07FE00
07F000
003000
007000
006000
00C000
07FC00
0FFC00
0F8C00
070C00
060C00
061C00
0C1800
0C38C0
1FFFF0
FFFFF8
FFFBF0
700000
ENDCHAR
STARTCHAR uni4E95
ENCODING 20117
SWIDTH 1000 0
DWIDTH 26 0
BBX 20 21 3 -2
BITMAP
000C00
031C00
031C00
033F80
3FFF80
3FFE00
3F1C00
031C00
061CC0
07FFE0
7FFFF0
FFFCE0
7E1C00
061C00
061C00
0C1C00
0C1C00
0C1C00
081C00
081800
001800
ENDCHAR
STARTCHAR uni4E99
ENCODING 20121
SWIDTH 1000 0
DWIDTH 26 0
BBX 22 21 2 -2
BITMAP
000F80
03FF80
07FF00
03FC00
007000
00F000
01FF80
01C780
03C700
03E700
077E00
060E00
1F1C00
1FF800
1FF000
007000
00E000
0FFFF8
7FFFFC
FFFFFC
780000
ENDCHAR
STARTCHAR uni4E9B
ENCODING 20123
SWIDTH 1000 0
DWIDTH 26 0
BBX 19 22 4 -3
BITMAP
060800
060C00
061C00
061F80
0F9F80
0F1E00
4C1800
EC1800
EC1800
6F1840
6F1860
7E1FE0
FC0FC0
F0F000
07F000
07C000
000000
000000
03FF00
7FFF80
7FFF80
200000
ENDCHAR
STARTCHAR uni4E9E
ENCODING 20126
SWIDTH 1000 0
DWIDTH 26 0
BBX 20 21 3 -2
BITMAP
000700
00FF00
1FFF00
1FFC00
0F8C00
031C00
031800
011980
079FC0
1F1DC0
3001C0
300180
238780
7F1C00
7F1800
231800
031800
031840
1FFFF0
FFFFF0
FFE000
ENDCHAR
STARTCHAR uni4E9F
ENCODING 20127
SWIDTH 1000 0
DWIDTH 26 0
BBX 21 21 3 -3
BITMAP
07FF00
0FFE00
0FF000
078000
030000
020000
048100
1FCF80
18FB80
00E380
0CF380
FCFB00
CDDF00
CDCF00
F9DF80
63E3E0
0381F0
07FE08
FFFF00
FFFF00
400000
ENDCHAR
STARTCHAR uni4EA1
ENCODING 20129
SWIDTH 1000 0
DWIDTH 26 0
BBX 20 19 3 -1
BITMAP
01C000
00E000
00E000
006000
00E000
000000
003FE0
3FFFF0
FFF0F0
FF0000
FF0000
060000
060000
060000
060000
060000
07FF00
07FF00
01F000
ENDCHAR
STARTCHAR uni4EA2
ENCODING 20130
SWIDTH 1000 0
DWIDTH 26 0
BBX 20 22 4 -3
BITMAP
018000
01C000
00E000
01FF80
7FFF80
FFF300
F88000
000000
043800
07F800
0F7000
0E6000
0C6000
1C6000
18E000
38C020
30C020
70E020
6070F0
407FE0
803FE0
000400
ENDCHAR
STARTCHAR uni4EA4
ENCODING 20132
SWIDTH 1000 0
DWIDTH 26 0
BBX 21 22 3 -3
BITMAP
00C000
00E000
00FF00
0FFF00
0FFC00
0F6000
000300
040780
0E0380
1C3000
303000
273000
07B000
03E000
00E000
00F800
01FC00
073F00
0E1FC0
7807F0
8003F8
0000C0
ENDCHAR
STARTCHAR uni4EA5
ENCODING 20133
SWIDTH 1000 0
DWIDTH 26 0
BBX 20 22 3 -3
BITMAP
00E000
00F000
00FFE0
7FFFF0
FFFFF0
FF0000
233800
033800
063000
0C6000
1FE000
1FCE00
01CE00
039C00
071800
0E3000
1C7800
18FE00
31CF00
630780
000380
000100
ENDCHAR
STARTCHAR uni4EA6
ENCODING 20134
SWIDTH 1000 0
DWIDTH 26 0
BBX 20 21 3 -3
BITMAP
00E000
007000
007000
007000
00FFF0
1FFFF0
FFF9E0
FF9800
619800
019800
039800
031880
7319C0
6318E0
6318E0
631860
631800
031800
023800
027000
002000
ENDCHAR
STARTCHAR uni4EA8
ENCODING 20136
SWIDTH 1000 0
DWIDTH 26 0
BBX 20 24 3 -4
BITMAP
00C000
00E000
00FFF0
3FFFF0
FFE000
F80400
037C00
03CC00
030C00
03F800
018000
000E00
07FE00
0F0800
007000
003000
003000
003000
003000
003000
003000
01F000
01E000
008000
ENDCHAR
STARTCHAR uni4EAB
ENCODING 20139
SWIDTH 1000 0
DWIDTH 26 0
BBX 21 23 3 -3
BITMAP
00C000
00E000
007F00
0FFF00
0FF800
0E0C00
01FC00
03CC00
038C00
01F800
01C000
001E00
01EE00
070800
007000
007FF0
3FFFF8
FFB000
783000
003000
003000
00F000
01E000
ENDCHAR
STARTCHAR uni4EAC
ENCODING 20140
SWIDTH 1000 0
DWIDTH 26 0
BBX 20 23 3 -3
BITMAP
00C000
00E000
006000
00FFE0
1FFFF0
FFFFF0
FC0000
701800
07FE00
07FE00
070E00
071C00
071C00
03FC00
03FC00
016000
307380
3071C0
3071C0
3071C0
30E080
03E000
018000
ENDCHAR
STARTCHAR uni4EAD
ENCODING 20141
SWIDTH 1000 0
DWIDTH 26 0
BBX 20 24 3 -4
BITMAP
00C000
00F600
01FF00
1FFF00
1FF800
0C0C00
03FC00
078C00
070C00
033800
03C000
0003E0
47FFF0
7F0070
707CA0
67F800
E76000
407000
407000
007000
007000
006000
00E000
008000
ENDCHAR
STARTCHAR uni4EAE
ENCODING 20142
SWIDTH 1000 0
DWIDTH 26 0
BBX 19 23 4 -3
BITMAP
018000
00E400
03FE00
3FFE00
3FE000
100800
07FC00
0F8C00
0E1800
06F000
078000
000780
03FFC0
FF01C0
F832C0
C33000
C77000
CE6000
9C6040
386060
3060E0
607FE0
403FC0
ENDCHAR
STARTCHAR uni4EB3
ENCODING 20147
SWIDTH 1000 0
DWIDTH 26 0
BBX 21 22 3 -3
BITMAP
00E000
00FF00
1FFF00
0FC000
007C00
03CC00
031C00
03F800
010020
01FFE0
7FC070
F830F0
C1F800
C3C000
C0CE00
81FE00
1FF800
1FC020
098030
00E1F8
00FFF0
007FE0
ENDCHAR
STARTCHAR uni4EB6
ENCODING 20150
SWIDTH 1000 0
DWIDTH 26 0
BBX 19 24 4 -4
BITMAP
008000
00E000
03FFC0
7FFF80
7C4000
01FF80
1FE380
1C1380
19FB00
193300
0CC600
0CFE00
07C000
000300
0FFF00
0F8300
0CF300
0CC600
067E00
07C000
043FE0
7FFFE0
FFF820
F00000
ENDCHAR
STARTCHAR uni4EB9
ENCODING 20153
SWIDTH 1000 0
DWIDTH 26 0
BBX 20 24 3 -4
BITMAP
004000
007000
01FFC0
3FFFC0
3E2000
00BBC0
3DC8C0
31A8C0
3DC9C0
3968C0
1D6B80
1908A0
59FFF0
FF8070
F2FCB0
C3EC00
C20600
C7E600
060600
07E600
060E00
0FFFE0
7FFFE0
380000
ENDCHAR
STARTCHAR uni4EBA
ENCODING 20154
SWIDTH 1000 0
DWIDTH 26 0
BBX 23 16 2 1
BITMAP
002000
006000
00E000
00E000
01C000
03C000
03E000
07F000
0F7800
1E3C00
1C1E00
3C0F80
7807C0
7003F0
E001F8
C0007E
ENDCHAR
STARTCHAR uni4EC0
ENCODING 20160
SWIDTH 1000 0
DWIDTH 26 0
BBX 22 22 2 -3
BITMAP
000200
000300
030780
070780
0F0780
1E0700
3C0700
3C07F8
7C7FFC
7CFF80
EC7780
CC0780
8C0780
0C0780
0C0780
0C0780
0C0780
0C0780
0C0700
0C0700
080200
000200
ENDCHAR
STARTCHAR uni4EC1
ENCODING 20161
SWIDTH 1000 0
DWIDTH 26 0
BBX 22 20 2 -2
BITMAP
030000
070000
0F0000
0F0000
1E01E0
3C3FE0
383FC0
7C1E00
7C0000
7C0000
DC0000
1C0000
1C0000
1C0078
1CFFFC
1CFFFC
1CFE18
0C4000
0C0000
0C0000
ENDCHAR
STARTCHAR uni4EC2
ENCODING 20162
SWIDTH 1000 0
DWIDTH 26 0
BBX 21 21 2 -3
BITMAP
020100
070180
0F0380
0F0310
1E1FF8
3C7F98
387E18
780E18
7C0C18
EC1C18
CC1818
9C3838
1C3038
1C7038
1C6038
1C6070
1CC070
0CC1E0
0D8FE0
0C0F80
000400
ENDCHAR
STARTCHAR uni4EC3
ENCODING 20163
SWIDTH 1000 0
DWIDTH 26 0
BBX 21 22 2 -3
BITMAP
010000
030030
070FF8
0F7FF8
1E7F00
1C3980
3C0180
3C01C0
7C01C0
6C01C0
6C01C0
8C01C0
0C01C0
0C01C0
0C01C0
0C01C0
0C01C0
0C01C0
0E03C0
0C0F80
000700
000400
ENDCHAR
STARTCHAR uni4EC4
ENCODING 20164
SWIDTH 1000 0
DWIDTH 26 0
BBX 22 21 2 -2
BITMAP
001F00
07FF00
0FFE00
07C000
060000
060000
040000
0C0000
0C1C00
083C00
183800
187C00
10FE00
30CF00
318780
6187C0
6303E0
4601F8
4400FC
800038
800000
ENDCHAR
STARTCHAR uni4EC6
ENCODING 20166
SWIDTH 1000 0
DWIDTH 26 0
BBX 22 22 2 -3
BITMAP
000C00
000C00
031C00
079C00
0F1C00
1E1C00
1C1C00
3C1C00
7C7C00
7C7F00
7C1F80
D81FE0
181DF0
181CF8
181C3C
181C00
1C1C00
1C1C00
1C1C00
0C1C00
080800
000800
ENDCHAR
STARTCHAR uni4EC7
ENCODING 20167
SWIDTH 1000 0
DWIDTH 26 0
BBX 23 18 2 -1
BITMAP
060000
0E0C00
0E0C00
1C1DC0
3C1FC0
387DC0
79F380
79F380
D86300
D86300
18C600
18C600
188604
198604
19030E
1A03FC
1801FC
180040
ENDCHAR
STARTCHAR uni4EC8
ENCODING 20168
SWIDTH 1000 0
DWIDTH 26 0
BBX 22 18 2 -1
BITMAP
060000
0E1800
1E1C00
1C0E00
3C0600
380700
786300
786300
F8C380
F8C3C0
D981C0
1981E0
1B00F0
1A00F8
1A007C
1C003C
180000
180000
ENDCHAR
STARTCHAR uni4EC9
ENCODING 20169
SWIDTH 1000 0
DWIDTH 26 0
BBX 23 20 2 -2
BITMAP
020000
070000
0F0180
0F3FC0
1E3B80
3C3380
386300
786300
7C6700
FC6600
DC4600
9CC600
1CCE00
1CCC00
1C8C04
1C8E04
1D8E0E
1D07FC
1C03F8
080000
ENDCHAR
STARTCHAR uni4ECA
ENCODING 20170
SWIDTH 1000 0
DWIDTH 26 0
BBX 23 21 2 -2
BITMAP
006000
00F000
01F800
03FE00
078F00
0F0780
0E07C0
1E63E0
3CF9F8
3878FC
70007E
600000
C07E00
83FF00
07FF00
039E00
003C00
003800
007000
006000
004000
ENDCHAR
STARTCHAR uni4ECB
ENCODING 20171
SWIDTH 1000 0
DWIDTH 26 0
BBX 24 23 1 -3
BITMAP
002000
007800
00FE00
01DF00
038780
0703C0
0E01F0
0C05F8
1C8EFE
39CE3F
31CE10
618E00
418E00
818E00
018E00
018E00
018E00
018E00
010E00
030E00
020E00
000C00
000400
ENDCHAR
STARTCHAR uni4ECD
ENCODING 20173
SWIDTH 1000 0
DWIDTH 26 0
BBX 20 20 2 -2
BITMAP
060000
0F03E0
0F3FF0
1E7C70
3C70F0
3800C0
700C80
781C00
F83860
D83030
187030
186030
18C030
18C070
198070
1900E0
1A00E0
1803C0
181F80
181F00
ENDCHAR
STARTCHAR uni4ED4
ENCODING 20180
SWIDTH 1000 0
DWIDTH 26 0
BBX 22 21 2 -3
BITMAP
0000C0
0307E0
07BEE0
0F30C0
1F0180
1E0600
3C0600
380338
7C1FFC
6EFFFC
6CFF80
CCC180
0C0180
0C0180
0C0180
0C0180
0C0380
0C0380
0E0700
0C1F00
000C00
ENDCHAR
STARTCHAR uni4ED5
ENCODING 20181
SWIDTH 1000 0
DWIDTH 26 0
BBX 22 19 2 -2
BITMAP
030300
078700
0F0700
1F0700
1E0700
3C0700
3807F8
7C7FFC
7CFFFC
7CFF00
DC0700
1C0700
1C0700
1C0700
1C07E0
1C3FF0
1C7FF8
0C7800
0C0000
ENDCHAR
STARTCHAR uni4ED6
ENCODING 20182
SWIDTH 1000 0
DWIDTH 26 0
BBX 24 20 1 -2
BITMAP
040000
0E0C00
1E0E00
1C0E00
3C1CC0
381FE0
709EE0
79FCE0
79FCC0
DBF8C0
9FD9C0
1B9F80
199900
199000
198002
198007
18C01F
18FFFE
183FFC
1807E0
ENDCHAR
STARTCHAR uni4ED7
ENCODING 20183
SWIDTH 1000 0
DWIDTH 26 0
BBX 22 21 2 -3
BITMAP
000300
030300
070300
0F0300
1F03C0
1E07E0
3C3FE0
387F80
7C3E00
7C0600
FDC600
DDE600
1C7600
1C3E00
1C1E00
1C1F00
1C3FC0
1C77E0
0D83F8
0800FC
000030
ENDCHAR
STARTCHAR uni4ED8
ENCODING 20184
SWIDTH 1000 0
DWIDTH 26 0
BBX 22 22 1 -3
BITMAP
000080
0000C0
0300C0
0780C0
0780C0
0F00F8
1E1FFC
1C7FFC
3C7CC0
3E20C0
7600C0
6600C0
6E70C0
8E38C0
0E18C0
0E00C0
0E00C0
0E00C0
0E01C0
0601C0
060780
040300
ENDCHAR
STARTCHAR uni4ED9
ENCODING 20185
SWIDTH 1000 0
DWIDTH 26 0
BBX 23 20 2 -2
BITMAP
020000
070000
0F0000
1E0300
3C0380
3C0780
780700
780708
FC071C
DC671C
DCE71E
1CE71E
1CE71C
1CE7FC
1CFFFC
1CFFFC
1CFC18
1C0000
1C0000
080000
ENDCHAR
STARTCHAR uni4EDA
ENCODING 20186
SWIDTH 1000 0
DWIDTH 26 0
BBX 22 21 2 -2
BITMAP
002000
007000
00F800
01FC00
038E00
070700
0E03C0
0C01E0
1C30F0
38307C
307838
607000
C07040
0C7040
1C7060
0C70E0
0C70E0
0C70E0
0C7FC0
0FFFC0
0FF0C0
ENDCHAR
STARTCHAR uni4EDC
ENCODING 20188
SWIDTH 1000 0
DWIDTH 26 0
BBX 21 19 2 -2
BITMAP
020000
0700C0
0F1FE0
1E7FE0
3C7F00
3C3E00
780600
7C0F00
780E00
F80E00
D80E00
180C00
180C00
180C00
181FF8
19FFF8
19FFF8
1DE000
080000
ENDCHAR
STARTCHAR uni4EDD
ENCODING 20189
SWIDTH 1000 0
DWIDTH 26 0
BBX 23 20 2 -2
BITMAP
007000
00F000
01F800
03FE00
078F00
0F0780
0E03C0
1C01F0
3800F8
303C7C
61FC3A
43F800
83F000
007000
006000
006000
006000
07FF80
1FFFC0
0FFF80
ENDCHAR
STARTCHAR uni4EDE
ENCODING 20190
SWIDTH 1000 0
DWIDTH 26 0
BBX 21 21 2 -3
BITMAP
010000
030000
078FF0
0F3FF0
1E3F38
1E0338
3C0638
384638
7C7C30
7C7C30
FC3830
DC3070
1C3070
1C6070
1C60E0
1CC0E0
1C81C0
1D01C0
0C1F80
080F00
000800
ENDCHAR
STARTCHAR uni4EDF
ENCODING 20191
SWIDTH 1000 0
DWIDTH 26 0
BBX 22 21 2 -3
BITMAP
0000E0
0307E0
079FE0
0F2700
1F0300
1E0300
3C03F8
380FFC
7CFFFC
7DFF00
6CF700
CC0700
0C0700
0C0700
0C0700
0C0700
0C0700
0C0300
0C0300
0C0200
000200
ENDCHAR
STARTCHAR uni4EE1
ENCODING 20193
SWIDTH 1000 0
DWIDTH 26 0
BBX 22 22 2 -3
BITMAP
000200
000E00
030E00
079FE0
0F3FC0
0F3F80
1E6200
3C6000
380000
7C1F80
7C7F00
6CFE00
CCEC00
8C1800
0C1800
0C3008
0C2008
0C600C
0C701C
0C7FFC
0C3FF8
0807C0
ENDCHAR
STARTCHAR uni4EE3
ENCODING 20195
SWIDTH 1000 0
DWIDTH 26 0
BBX 22 22 2 -3
BITMAP
003000
0471E0
0E30E0
0E3000
1C3000
3C3B80
383F80
78FF80
79FF00
7DFC00
F8DC00
D80C00
980E00
180E00
180700
180700
180380
1801C8
1C01E8
1800FC
08007C
000018
ENDCHAR
STARTCHAR uni4EE4
ENCODING 20196
SWIDTH 1000 0
DWIDTH 26 0
BBX 23 23 2 -4
BITMAP
00E000
00F800
01FC00
031E00
070F00
0E0780
1C03C0
19F1F0
38F0F8
30207C
600C3E
403E00
83FF00
07CE00
070C00
001800
001000
00E000
00F000
007800
003800
003800
001000
ENDCHAR
STARTCHAR uni4EE5
ENCODING 20197
SWIDTH 1000 0
DWIDTH 26 0
BBX 22 16 2 0
BITMAP
0080C0
01C0E0
31C0E0
70C1C0
7001C0
700380
300F80
301F00
330F00
360F00
3E1F80
7C3BC0
F871E0
F0E0F0
C1807C
02003C
ENDCHAR
STARTCHAR uni4EE8
ENCODING 20200
SWIDTH 1000 0
DWIDTH 26 0
BBX 20 19 3 -2
BITMAP
040300
0E3F80
1E7F80
3C7C00
3C0000
780000
780000
F80200
F83F00
D87F00
D83C00
180000
180000
180000
180FF0
19FFF0
1BFFF0
1BE000
100000
ENDCHAR
STARTCHAR uni4EE9
ENCODING 20201
SWIDTH 1000 0
DWIDTH 26 0
BBX 21 20 2 -2
BITMAP
000C00
060C00
0F0C00
0E0C00
1E0C00
3C0DC0
381FE0
781FC0
7C1F00
F81C00
F81C00
D81C00
181C00
181C00
181C00
181C00
187FF8
1DFFF8
09FFF8
008000
ENDCHAR
STARTCHAR uni4EF0
ENCODING 20208
SWIDTH 1000 0
DWIDTH 26 0
BBX 21 22 2 -3
BITMAP
020000
060000
0F1800
1E7870
3CE3F8
38C718
78C318
7CC338
7CC338
DCC338
98B338
18E338
19C3F0
19C360
180340
180300
180300
1C0300
1C0300
080200
080200
000200
ENDCHAR
STARTCHAR uni4EF1
ENCODING 20209
SWIDTH 1000 0
DWIDTH 26 0
BBX 22 21 2 -2
BITMAP
020000
060C00
0E0E00
1E1F00
1C3380
3C7380
3861C0
70E1E0
78CCF0
799E78
F90C3C
DB0000
1A0180
187FC0
18FFC0
184380
180300
180700
180600
180C00
080800
ENDCHAR
STARTCHAR uni4EF2
ENCODING 20210
SWIDTH 1000 0
DWIDTH 26 0
BBX 21 22 2 -3
BITMAP
000600
040600
0E0600
0E0600
1C8FF8
3DFFF8
39FE38
79E638
79C630
7DC670
F8C7E0
D8FFE0
98FF00
186600
180600
180600
180600
180600
1C0600
180600
080600
000400
ENDCHAR
STARTCHAR uni4EF3
ENCODING 20211
SWIDTH 1000 0
DWIDTH 26 0
BBX 23 22 2 -3
BITMAP
020000
070180
0E01C0
1EC380
3CC380
38C300
78C330
78C370
58FBF0
98F300
18C300
18C300
18C300
18C300
18CB00
18FB00
18F300
19E304
19C3FE
1981FC
1800FC
180000
ENDCHAR
STARTCHAR uni4EF4
ENCODING 20212
SWIDTH 1000 0
DWIDTH 26 0
BBX 20 22 2 -3
BITMAP
000040
073FE0
073E70
0F3070
1E3070
3C3070
3C3770
7C3F70
7C7070
6C7070
EC7070
CC7770
0C7F70
0C6070
0C6070
0CE070
0CC070
0CC070
0C80F0
0C87F0
0D03E0
000180
ENDCHAR
STARTCHAR uni4EF5
ENCODING 20213
SWIDTH 1000 0
DWIDTH 26 0
BBX 22 23 2 -4
BITMAP
000800
001C00
063C00
0E3FE0
1E7FC0
1C7F80
3CE700
38C300
788300
7C0378
6C0FFC
6C7FF8
8CFF80
0CFF00
0C0300
0C0300
0C0300
0C0300
0C0300
0C0300
0C0300
080200
000200
ENDCHAR
STARTCHAR uni4EF6
ENCODING 20214
SWIDTH 1000 0
DWIDTH 26 0
BBX 21 22 2 -3
BITMAP
000700
040700
0E4700
0E67C0
1CE7E0
3CFFC0
39DF00
798700
790700
7C07F8
F8FFF8
D9FFF8
99FF00
180700
180700
180700
180700
180700
1C0700
180700
080600
000600
ENDCHAR
STARTCHAR uni4EF7
ENCODING 20215
SWIDTH 1000 0
DWIDTH 26 0
BBX 23 21 2 -2
BITMAP
000400
060C00
0F1E00
1E3F00
1C3380
3861C0
78C0E0
78C078
F9807C
D903BE
9A2380
1A7300
187300
187300
186380
186380
186380
186380
18C380
18C300
180300
ENDCHAR
STARTCHAR uni4EFB
ENCODING 20219
SWIDTH 1000 0
DWIDTH 26 0
BBX 21 19 2 -2
BITMAP
0603C0
0E1FC0
1E7F80
1C0000
3C0600
380600
780600
7C0600
FC1FF8
FDFFF8
D9FFF8
19E600
180600
180600
180600
1C07E0
1C7FF0
0C7FF0
087800
ENDCHAR
STARTCHAR uni4EFD
ENCODING 20221
SWIDTH 1000 0
DWIDTH 26 0
BBX 22 22 2 -3
BITMAP
000C00
060F00
0E0700
1E0300
3C3300
3C7380
7861C0
78C1C0
78C0F0
F98078
D93EBC
9AFDC0
1879C0
1831C0
1861C0
18E1C0
18C380
198380
1A0700
181F00
181E00
100000
ENDCHAR
STARTCHAR uni4EFF
ENCODING 20223
SWIDTH 1000 0
DWIDTH 26 0
BBX 22 21 2 -3
BITMAP
060400
0F0700
0F0700
1E0710
3C3FFC
3CFFF8
7CFF00
7C4700
6C0E00
EC0EE0
CC1F60
0C1860
0C3870
0C7060
0C60E0
0CC0E0
0CC0E0
0D81C0
0C0FC0
0C0780
080400
ENDCHAR
STARTCHAR uni4F00
ENCODING 20224
SWIDTH 1000 0
DWIDTH 26 0
BBX 22 21 2 -3
BITMAP
060000
0E0E00
1E0F00
3C0700
3C2300
786380
786380
78C1C0
F980F0
D90078
990C3C
181C00
183800
183900
1831C0
1871C0
1877E0
18FFE0
18FCE0
184000
100000
ENDCHAR
STARTCHAR uni4F01
ENCODING 20225
SWIDTH 1000 0
DWIDTH 26 0
BBX 22 22 2 -3
BITMAP
006000
00E000
01F800
01FC00
031E00
070F00
0E0780
1C23E0
1871F0
3070F8
70707C
607030
C67F00
867E00
067000
067000
067000
067000
07FFE0
3FFFE0
3FFFE0
380000
ENDCHAR
STARTCHAR uni4F02
ENCODING 20226
SWIDTH 1000 0
DWIDTH 26 0
BBX 20 22 3 -3
BITMAP
000C00
060E00
0F0E00
1F0E00
1E7FF0
3DFFF0
79FE00
780C00
F80FC0
F8FF60
D9FC60
19CC60
198C60
198C60
19CEE0
18CFE0
188D80
180C00
180C00
180C00
180C00
100C00
ENDCHAR
STARTCHAR uni4F04
ENCODING 20228
SWIDTH 1000 0
DWIDTH 26 0
BBX 19 20 3 -2
BITMAP
067F80
0EFDC0
1EF9C0
3C3B80
3C3F00
783E00
79F800
FBF800
FB39E0
DB3FE0
1BF860
1BB860
1A38E0
1838E0
183FC0
183BC0
183B00
181800
181000
181000
ENDCHAR
STARTCHAR uni4F05
ENCODING 20229
SWIDTH 1000 0
DWIDTH 26 0
BBX 22 21 2 -2
BITMAP
000400
070E00
070C00
0F0F80
1E1F80
3EFF00
3CFC00
787880
7819C0
7819C0
F99BC0
199F80
19F900
19F800
181800
181800
181810
181818
181C3C
180FF8
1807F0
ENDCHAR
STARTCHAR uni4F08
ENCODING 20232
SWIDTH 1000 0
DWIDTH 26 0
BBX 21 21 2 -3
BITMAP
070000
070000
0F0000
1E0000
3C0C00
3C0C70
7C0E38
7C0618
7C0608
6C2000
CCB000
0DB000
0DB000
0D9838
0D9C38
0D8FF8
0C07F0
0C0000
0C0000
0C0000
080000
ENDCHAR
STARTCHAR uni4F09
ENCODING 20233
SWIDTH 1000 0
DWIDTH 26 0
BBX 22 22 2 -3
BITMAP
001C00
001E00
030600
070000
0F00E0
1E0FE0
1CFFE0
3CFF00
387800
7C0C80
781FC0
781F80
D83180
183300
186300
186600
18C608
188608
19060C
1807FC
0803F8
0800C0
ENDCHAR
STARTCHAR uni4F0A
ENCODING 20234
SWIDTH 1000 0
DWIDTH 26 0
BBX 22 20 2 -2
BITMAP
003FC0
067F60
0E3E70
0E0E70
1C0EF8
3C7FFC
39FFE0
79FCC0
7C99C0
7C1BE0
6C7FE0
CCFF00
0CF000
0C7000
0C6000
0C6000
0CC000
0CC000
0C8000
090000
ENDCHAR
STARTCHAR uni4F0B
ENCODING 20235
SWIDTH 1000 0
DWIDTH 26 0
BBX 23 20 1 -2
BITMAP
0607E0
0F3F70
0F3C70
1E04E0
1C0C80
380800
3818E0
7C1760
6C3460
6C3060
CCF060
0C7CC0
0C4EC0
0CC7C0
0CC7C0
0C83C0
0D87E0
0D0FF8
0D107C
0C003E
ENDCHAR
STARTCHAR uni4F0D
ENCODING 20237
SWIDTH 1000 0
DWIDTH 26 0
BBX 21 20 2 -2
BITMAP
0000C0
061FE0
0E7FC0
1E7F00
1E3F00
3C0600
380600
780C00
780EC0
F87FE0
D8FCE0
9878E0
1810C0
1830C0
1831C0
1821C0
187FF8
1BFFF8
1BFE70
198000
ENDCHAR
STARTCHAR uni4F0E
ENCODING 20238
SWIDTH 1000 0
DWIDTH 26 0
BBX 22 22 2 -3
BITMAP
000400
000E00
0C0E00
0C0F80
1C3F80
3CFF80
38FE00
707C00
701800
F81900
F81F80
D9F980
99F180
18F180
183B80
181F00
180F00
180F80
180FC0
183BF0
18E0FC
010024
ENDCHAR
STARTCHAR uni4F0F
ENCODING 20239
SWIDTH 1000 0
DWIDTH 26 0
BBX 22 20 2 -2
BITMAP
001C00
0C1CE0
1C1CE0
1C1C60
3C1800
381FC0
703FC0
70FFC0
F9FF00
F9F800
D8FC00
983E00
187F00
187780
1867C0
18C3E0
1981F0
1B00F8
18007C
180000
ENDCHAR
STARTCHAR uni4F10
ENCODING 20240
SWIDTH 1000 0
DWIDTH 26 0
BBX 22 22 2 -3
BITMAP
006100
006180
0C6180
0C6000
1C7700
3C7F00
387E00
71FE00
71F800
F9F8C0
F839C0
D81B80
981F80
180F00
181E00
183E00
187700
19E380
1901C8
1801F8
18007C
000038
ENDCHAR
STARTCHAR uni4F11
ENCODING 20241
SWIDTH 1000 0
DWIDTH 26 0
BBX 22 22 2 -3
BITMAP
000600
060E00
0E0E00
1E0E00
1E0FC0
3C1FE0
38FFE0
78FE00
7CFE00
7C1F00
D83F80
D83FC0
186FE0
18EEF0
18CEF8
198E7C
190E3C
180E00
180E00
1C0E00
080E00
000400
ENDCHAR
STARTCHAR uni4F12
ENCODING 20242
SWIDTH 1000 0
DWIDTH 26 0
BBX 21 22 2 -3
BITMAP
000080
0603C0
0E0FC0
1EF000
3CE000
38C000
78C100
78C3F0
78DFF8
D8FF80
18F380
18C380
18C380
18C380
18C380
18C380
198380
198380
190380
180380
180300
180100
ENDCHAR
STARTCHAR uni4F13
ENCODING 20243
SWIDTH 1000 0
DWIDTH 26 0
BBX 23 21 2 -3
BITMAP
060000
0E3FF8
1EFFF8
3CF8C0
3C21C0
781300
783E00
F80E00
F80E00
D81F00
983F80
1837C0
1867F0
18C678
18C63E
198600
190600
180600
182E00
181C00
081800
ENDCHAR
STARTCHAR uni4F14
ENCODING 20244
SWIDTH 1000 0
DWIDTH 26 0
BBX 23 21 2 -3
BITMAP
060000
0E0000
1E8FE0
3CFF70
3DE070
798080
798000
798000
F83300
D87700
986600
18CE00
18CC00
198C04
198C04
190C06
1A0E1E
1807FC
1803F8
180000
100000
ENDCHAR
STARTCHAR uni4F15
ENCODING 20245
SWIDTH 1000 0
DWIDTH 26 0
BBX 22 21 2 -2
BITMAP
000400
000E00
060E00
060C00
0E0F80
1E3FC0
3C7F80
387C00
780C00
780CC0
780FE0
F8FFE0
D9FF00
18FE00
181F00
183B80
1831C0
1871E0
18E0F0
19C0F8
03003C
ENDCHAR
STARTCHAR uni4F18
ENCODING 20248
SWIDTH 1000 0
DWIDTH 26 0
BBX 22 21 2 -3
BITMAP
070400
0F0C00
0F0C30
1E0C38
3C0C00
381FC0
7CFFC0
7CF800
7C3000
D83600
D83600
186600
186C00
18EC00
18CC00
18CC08
198C0C
1D0E3C
1D07FC
0C03F8
080000
ENDCHAR
STARTCHAR uni4F19
ENCODING 20249
SWIDTH 1000 0
DWIDTH 26 0
BBX 22 20 2 -2
BITMAP
060400
0E0E00
0E0E00
1E0E00
3C0E60
380EE0
78CF80
7CCE00
7CCC00
EC4C00
DC0C00
181E00
181F00
181F80
1833C0
1863E0
1CC1F0
1D8078
1D003C
080000
ENDCHAR
STARTCHAR uni4F1D
ENCODING 20253
SWIDTH 1000 0
DWIDTH 26 0
BBX 21 22 2 -3
BITMAP
010000
030000
078100
0F1F80
1F3F80
1E1E00
3C0000
3C0000
7C0070
7C1FF8
6CFFF0
CDFF00
0CEE00
0C1C00
0C3980
0C31E0
0C71E0
0CFFF0
0CFFF0
0CF830
0C0000
080000
ENDCHAR
STARTCHAR uni4F22
ENCODING 20258
SWIDTH 1000 0
DWIDTH 26 0
BBX 20 22 3 -3
BITMAP
0407C0
0E3FC0
0E3F80
1E1F80
3C0380
383180
787180
7863F0
F8E7F0
F8FFE0
D9FF80
18F780
180F80
181F80
183980
187180
186180
18C180
198380
190380
100F80
000600
ENDCHAR
STARTCHAR uni4F2C
ENCODING 20268
SWIDTH 1000 0
DWIDTH 26 0
BBX 22 20 2 -2
BITMAP
0004C0
063FC0
0E38C0
0E30C0
1E3180
3C7380
387F80
787E00
7C7800
7C7000
ECF800
CCCC00
1CCE00
1CC700
1D8380
0D81E0
0D01F0
0D00F8
0F007C
0A0030
ENDCHAR
STARTCHAR uni4F2D
ENCODING 20269
SWIDTH 1000 0
DWIDTH 26 0
BBX 19 21 3 -3
BITMAP
061800
0F1C00
1F0E00
1E0C00
3C1FE0
79FFE0
79FE00
F8FC00
F83880
D83980
187380
18E700
19EE00
18FC00
183980
1831C0
1877C0
19FFE0
1BFCE0
198040
100000
ENDCHAR
STARTCHAR uni4F2F
ENCODING 20271
SWIDTH 1000 0
DWIDTH 26 0
BBX 20 20 3 -2
BITMAP
060700
0E0F00
1E0C00
3E1840
3C7FE0
787FE0
78F070
F8E070
F8E070
D8E070
18FF70
18FE70
18F870
18E070
18E070
18E070
18FFF0
187FE0
1861C0
180180
ENDCHAR
STARTCHAR uni4F30
ENCODING 20272
SWIDTH 1000 0
DWIDTH 26 0
BBX 21 21 2 -3
BITMAP
060700
0E0700
0E0700
1E0700
3C0F00
380F70
781FF8
7CFFF8
6CFF80
EC7C00
CC1C00
0C1800
081FE0
18FFE0
18F8E0
0CE0E0
0CE1C0
0C63C0
0C7FC0
0C3FC0
082000
ENDCHAR
STARTCHAR uni4F33
ENCODING 20275
SWIDTH 1000 0
DWIDTH 26 0
BBX 21 20 3 -2
BITMAP
0C0000
1E0000
1CE1C0
38E1C0
78CDC0
78CDC0
F8CFF8
F8FFF8
DBFFC0
9BF980
18C980
10C980
10CF80
10CC00
18C000
18C000
18FFE0
187FE0
180000
180000
ENDCHAR
STARTCHAR uni4F34
ENCODING 20276
SWIDTH 1000 0
DWIDTH 26 0
BBX 22 21 1 -2
BITMAP
000300
060718
0F0738
0F6760
1E27C0
3C0700
3807F0
3C3FF0
7C7FC0
6C7F00
6C0700
CC07FC
0CFFFC
0CFFE0
0CFF00
0C0700
0C0700
0C0700
0C0700
0C0600
040600
ENDCHAR
STARTCHAR uni4F36
ENCODING 20278
SWIDTH 1000 0
DWIDTH 26 0
BBX 24 22 1 -3
BITMAP
000600
060700
0F0F80
0F19C0
1E30E0
1C3070
386638
384F3E
7CC71F
6C8000
6D00C0
CC0FE0
0C3EE0
0C78C0
0C2180
0C0100
0C0E00
0C0700
0C0780
0C0380
0C0180
000100
ENDCHAR
STARTCHAR uni4F38
ENCODING 20280
SWIDTH 1000 0
DWIDTH 26 0
BBX 21 22 2 -3
BITMAP
030700
070700
0F0700
1F0700
1E4FF8
3CFF98
3CF738
7CC738
7CC7B8
6CCF38
CCE738
0CE770
0C67F0
0C7FE0
0C7F00
0C2700
0C0700
0C0700
0C0700
0C0600
0C0600
000400
ENDCHAR
STARTCHAR uni4F3A
ENCODING 20282
SWIDTH 1000 0
DWIDTH 26 0
BBX 21 22 2 -3
BITMAP
060000
0E0000
0F3FE0
1E7F30
3C3838
3C0038
780E38
7CFF38
F9FE38
F8F038
D80038
18BF38
19FF38
19E738
19C638
18CE38
18FE38
18E070
180070
1800E0
0803E0
000100
ENDCHAR
STARTCHAR uni4F3B
ENCODING 20283
SWIDTH 1000 0
DWIDTH 26 0
BBX 22 22 2 -3
BITMAP
000100
063F80
0F7F80
1E3E00
1E0020
3C0C70
78CEE0
78CF80
78CF00
F84E00
D80E00
981FF8
19FFFC
1BFE00
190E00
180E00
180E00
180E00
180E00
180C00
180C00
000800
ENDCHAR
STARTCHAR uni4F3C
ENCODING 20284
SWIDTH 1000 0
DWIDTH 26 0
BBX 22 21 2 -3
BITMAP
0C0000
1E0000
1E00C0
3C00C0
3831C0
79B9C0
7999C0
F98180
F98180
F98380
99A380
19E7C0
19C7E0
1B8EF0
1B1C78
18303C
18601C
180000
180000
180000
100000
ENDCHAR
STARTCHAR uni4F3D
ENCODING 20285
SWIDTH 1000 0
DWIDTH 26 0
BBX 24 20 1 -2
BITMAP
020000
063800
0E3000
1E3000
1C3000
387EFE
39FEFF
7DE6E6
7866C6
58C6CE
98C6CC
198EFC
198E78
190E60
190C00
1A1C00
181C00
18F800
1C7000
080000
ENDCHAR
STARTCHAR uni4F3E
ENCODING 20286
SWIDTH 1000 0
DWIDTH 26 0
BBX 21 22 3 -3
BITMAP
040000
0C01E0
1CFFF0
3DFF80
38F180
700300
F03E00
F03C00
F03E00
B07F00
306F80
30CFC0
318DF0
330CF8
300C00
300C00
301800
300000
30FFF0
31FFF0
19F800
100000
ENDCHAR
STARTCHAR uni4F3F
ENCODING 20287
SWIDTH 1000 0
DWIDTH 26 0
BBX 20 21 3 -3
BITMAP
040000
0E0780
1EFFE0
1EFCE0
3CE0E0
38E0C0
78E1C0
786180
F87FC0
D87FC0
183000
180000
180000
183100
1830C0
1870E0
18E0E0
18C070
198070
190060
180000
ENDCHAR
STARTCHAR uni4F41
ENCODING 20289
SWIDTH 1000 0
DWIDTH 26 0
BBX 19 22 3 -3
BITMAP
000400
060E00
0E1C00
1E3C00
3C3800
387380
70E1C0
78E3E0
F9FFE0
F3FE60
B3E020
300000
300000
318FC0
31FFE0
31F8E0
31C1C0
31C1C0
31C380
38FFC0
18FFC0
106000
ENDCHAR
STARTCHAR uni4F43
ENCODING 20291
SWIDTH 1000 0
DWIDTH 26 0
BBX 22 21 2 -3
BITMAP
020000
070000
0F0000
0F0000
1E0000
3C0FFC
3DFF9C
7DFE1C
7D861C
7D861C
ED8F9C
CD9F38
0DCE38
0CC638
0CC638
0CCFF0
0C7FF0
0C7DE0
0C0000
0C0000
080000
ENDCHAR
STARTCHAR uni4F46
ENCODING 20294
SWIDTH 1000 0
DWIDTH 26 0
BBX 21 21 3 -3
BITMAP
040000
0E0000
1E00E0
3DFFE0
3DFC70
79C060
71C060
F1DEE0
F1FEE0
F0E0C0
B0C0C0
30C780
30FF00
307800
304000
300000
30FFF0
33FFF8
33FE70
310000
100000
ENDCHAR
STARTCHAR uni4F47
ENCODING 20295
SWIDTH 1000 0
DWIDTH 26 0
BBX 22 21 2 -3
BITMAP
060E00
0F0600
1E0700
1E1FF8
3DFE1C
39E038
798000
798080
F99FE0
D97FC0
183E00
180600
180600
180700
180700
180700
180700
180700
180600
181E00
001C00
ENDCHAR
STARTCHAR uni4F48
ENCODING 20296
SWIDTH 1000 0
DWIDTH 26 0
BBX 21 22 2 -3
BITMAP
000300
040700
0E07F8
1E3FF0
1EFFC0
3CFC00
787800
783200
786720
F8FFF0
F8FF30
99F738
19E738
1B6730
1A6730
1C77F0
183760
182700
180700
180600
180600
100000
ENDCHAR
STARTCHAR uni4F49
ENCODING 20297
SWIDTH 1000 0
DWIDTH 26 0
BBX 20 22 3 -3
BITMAP
000C00
041C00
0E1C00
1E1C00
3C1F80
383F80
78FF80
787C00
F87C00
F81C00
981FF0
19FFF0
1BFFF0
1BFC00
191800
183300
187180
1863C0
18FFC0
19FCC0
19E080
100000
ENDCHAR
STARTCHAR uni4F4C
ENCODING 20300
SWIDTH 1000 0
DWIDTH 26 0
BBX 22 20 2 -2
BITMAP
040000
0E6180
1E7180
3C7380
386300
787370
707BF0
F073C0
F06700
F26700
336600
336600
336600
336600
337E08
33F60C
33E30C
33C3FC
3301F8
100020
ENDCHAR
STARTCHAR uni4F4D
ENCODING 20301
SWIDTH 1000 0
DWIDTH 26 0
BBX 21 20 3 -2
BITMAP
043800
0E3C00
1E1C00
3E0000
3C0780
787FC0
78FF80
F8F800
F86080
F001C0
B0C1C0
30E380
30E300
306600
300400
300FF0
39FFF8
1BFFF8
1BE000
100000
ENDCHAR
STARTCHAR uni4F4E
ENCODING 20302
SWIDTH 1000 0
DWIDTH 26 0
BBX 22 21 2 -3
BITMAP
040000
0E03C0
1E1FC0
1EFF00
3CFE00
79CE00
798600
7987C0
F98FC0
F9FF80
99FF00
198300
198300
198380
19B9C0
19F9C0
1BF8E0
1B9C7C
180C3C
18001C
100000
ENDCHAR
STARTCHAR uni4F4F
ENCODING 20303
SWIDTH 1000 0
DWIDTH 26 0
BBX 21 20 2 -2
BITMAP
023C00
071E00
0F0E00
1F0000
1E0FC0
3C7FC0
787F00
783E00
780E00
F80FC0
983FC0
187FC0
187E00
180E00
180E00
180FF0
18FFF0
19FFF8
19E000
080000
ENDCHAR
STARTCHAR uni4F50
ENCODING 20304
SWIDTH 1000 0
DWIDTH 26 0
BBX 21 22 2 -3
BITMAP
000180
040380
0E0380
1E03F0
1E07F0
3C7FF0
78FFC0
78FE00
787C00
F83800
F83800
987080
1877E0
18EFC0
18CF80
19C380
198380
1B0300
1A07F0
1C3FF8
187FF8
103800
ENDCHAR
STARTCHAR uni4F51
ENCODING 20305
SWIDTH 1000 0
DWIDTH 26 0
BBX 19 22 3 -3
BITMAP
000400
060600
0E0E00
1E0FE0
1E3FE0
3CFFE0
78FE00
70F800
783800
F83000
D86000
9860C0
18F7E0
18FFE0
19FCE0
19B8E0
1B38E0
1A39C0
181FE0
181FE0
180800
100000
ENDCHAR
STARTCHAR uni4F52
ENCODING 20306
SWIDTH 1000 0
DWIDTH 26 0
BBX 20 21 3 -3
BITMAP
040400
0E0C00
1E0C00
3C4E00
38FFC0
78FEE0
78FCC0
F8CCC0
F8CCC0
D8CD80
18CFF0
19FFF0
1BFFF0
1BF800
181000
183000
1861C0
1861E0
18C0E0
188060
100000
ENDCHAR
STARTCHAR uni4F53
ENCODING 20307
SWIDTH 1000 0
DWIDTH 26 0
BBX 21 22 3 -3
BITMAP
001800
041C00
0E1D80
1E1FC0
3DFF80
39FC00
78F800
781800
F83C00
F87E00
D87F00
18FF80
19DBC0
1999E0
1B1870
1A1FB8
1CFF00
187C00
181800
181800
181800
101800
ENDCHAR
STARTCHAR uni4F54
ENCODING 20308
SWIDTH 1000 0
DWIDTH 26 0
BBX 19 21 3 -3
BITMAP
0E1800
0E1800
1E1800
3C1800
381FE0
781FE0
701F80
F81800
F81800
D81800
981B80
19BFC0
19FFE0
19E0E0
19C1C0
19C1C0
19C380
18CF80
18FFC0
187800
104000
ENDCHAR
STARTCHAR uni4F55
ENCODING 20309
SWIDTH 1000 0
DWIDTH 26 0
BBX 22 21 2 -3
BITMAP
0601F8
0E3FFC
1EFFF8
1EFEC0
3C60C0
3800C0
781CC0
79FEC0
F9CEC0
D9CCC0
98CCC0
18FCC0
18F0C0
1860C0
1800C0
1800C0
1800C0
1800C0
1807C0
180380
000300
ENDCHAR
STARTCHAR uni4F56
ENCODING 20310
SWIDTH 1000 0
DWIDTH 26 0
BBX 21 21 3 -3
BITMAP
040000
0E0000
1E0000
3C2000
383070
7838E0
7839C0
F88380
F8C330
D8C638
18CC18
1A7800
1E7840
1E7030
1A7FF0
18DFF0
18C7C0
198000
180000
180000
100000
ENDCHAR
STARTCHAR uni4F57
ENCODING 20311
SWIDTH 1000 0
DWIDTH 26 0
BBX 22 21 2 -2
BITMAP
000C00
060E00
0E0700
1E0700
1E0730
3CFFF8
39E438
798058
798000
F99800
D99980
983F80
183F80
183800
183000
183010
183018
18301C
183FF8
181FF8
180FE0
ENDCHAR
STARTCHAR uni4F58
ENCODING 20312
SWIDTH 1000 0
DWIDTH 26 0
BBX 22 24 2 -4
BITMAP
002000
007000
00F000
01F800
03FE00
078F00
0F0780
1E3BE0
1DF9F0
3BF8FC
700038
400000
80FF00
07FF00
07F000
027000
007100
1873C0
1871C0
1870C0
1870C0
01E000
00C000
008000
ENDCHAR
STARTCHAR uni4F59
ENCODING 20313
SWIDTH 1000 0
DWIDTH 26 0
BBX 23 23 1 -3
BITMAP
002000
007000
00FC00
01FE00
03CF00
0787C0
0F03E0
1E7DF8
1DFCFC
39F83E
703000
403800
807F80
03FF80
07F800
003800
003980
0C38E0
0C38E0
0C3860
0C7860
00F000
006000
ENDCHAR
STARTCHAR uni4F5A
ENCODING 20314
SWIDTH 1000 0
DWIDTH 26 0
BBX 22 22 2 -3
BITMAP
000600
020600
060600
0F0600
1E3600
1E7FC0
3CFFC0
38FE00
78C600
780E00
780FF0
D8FFF0
19FF80
18FF00
181F00
181F80
1839C0
1831E0
1870F0
18C078
19803C
080004
ENDCHAR
STARTCHAR uni4F5B
ENCODING 20315
SWIDTH 1000 0
DWIDTH 26 0
BBX 22 22 2 -3
BITMAP
061300
0E1B80
1E3FF0
3C7F30
3C7F70
7813E0
701FC0
F8FF00
F9F300
D9B3FC
99BFEC
19FF0C
19F30C
18231C
1823F8
182370
186300
184300
184300
188300
000300
000200
ENDCHAR
STARTCHAR uni4F5C
ENCODING 20316
SWIDTH 1000 0
DWIDTH 26 0
BBX 20 22 3 -3
BITMAP
001000
063800
0E7800
1E78E0
3EFFF0
3CFFE0
79FE00
799C00
F99C00
F91CC0
D81FC0
981F80
181C00
181C00
181FE0
181FE0
181C00
181C00
181C00
181C00
181C00
001800
ENDCHAR
STARTCHAR uni4F5D
ENCODING 20317
SWIDTH 1000 0
DWIDTH 26 0
BBX 20 22 3 -3
BITMAP
001000
043800
0E3800
1E7000
3CFF20
38FFF0
79F870
798070
F90070
F88070
D8FE70
19FE70
19C670
18CC70
18DC60
18F8E0
1840E0
1800E0
1801C0
180FC0
180F80
000C00
ENDCHAR
STARTCHAR uni4F5E
ENCODING 20318
SWIDTH 1000 0
DWIDTH 26 0
BBX 21 21 2 -3
BITMAP
0707C0
0F3FC0
0F3F00
1E0800
3C0060
3C1FF0
79FFF0
79FC00
78CC00
F81C80
181FF8
18FFF8
1BFF80
19F300
187300
18FF00
187F80
181FC0
1839E0
08E070
010020
ENDCHAR
STARTCHAR uni4F5F
ENCODING 20319
SWIDTH 1000 0
DWIDTH 26 0
BBX 22 21 2 -3
BITMAP
061800
0E3CC0
1E7FC0
3C7DC0
38E380
79F700
79FE00
791E00
D81F00
1837C0
1863F0
18C0FC
199E30
1A1E00
180000
180000
183800
181E00
180F00
180700
000600
ENDCHAR
STARTCHAR uni4F60
ENCODING 20320
SWIDTH 1000 0
DWIDTH 26 0
BBX 20 22 3 -3
BITMAP
001000
043800
0E7800
1E7060
3EF7F0
3CFF70
79D860
798080
F98400
FB0E00
D80E00
180E00
180E40
190E60
1B8E70
1B8E30
198E30
180E00
180E00
181C00
187C00
003000
ENDCHAR
STARTCHAR uni4F61
ENCODING 20321
SWIDTH 1000 0
DWIDTH 26 0
BBX 21 21 3 -3
BITMAP
040E00
0E1E00
1E1E00
3C3F00
387380
7861C0
78C1E0
F8C0F0
F98078
D90C00
180E00
180C40
188C60
188C60
198C60
198C60
198FE0
19FFE0
18FEE0
1860E0
100040
ENDCHAR
STARTCHAR uni4F62
ENCODING 20322
SWIDTH 1000 0
DWIDTH 26 0
BBX 20 21 3 -3
BITMAP
044080
0E7FC0
1EFF00
3CE000
38C000
78C000
78C0C0
F9FFC0
F9FFC0
D9C1C0
198180
198380
19FF00
19FC00
19C000
19C000
18C000
18DFE0
18FFF0
18FFE0
100000
ENDCHAR
STARTCHAR uni4F63
ENCODING 20323
SWIDTH 1000 0
DWIDTH 26 0
BBX 20 21 3 -3
BITMAP
0C0000
1C0FE0
3CFC60
39DC60
799C60
719E70
F9BE70
F9FC70
F1FC70
B11C70
311F70
33FF70
33FE70
33FC70
331C70
331C70
331CF0
319DE0
3918C0
190880
100000
ENDCHAR
STARTCHAR uni4F64
ENCODING 20324
SWIDTH 1000 0
DWIDTH 26 0
BBX 21 21 3 -3
BITMAP
040780
0E3F80
1E7E00
3C3800
380000
781100
783380
F87F00
F9F300
D9C700
184600
18D600
18F600
188600
198600
193E10
1BE618
1BC7F8
1A03F0
1801E0
100000
ENDCHAR
STARTCHAR uni4F67
ENCODING 20327
SWIDTH 1000 0
DWIDTH 26 0
BBX 20 23 3 -4
BITMAP
001800
041800
0E1800
1E1F00
3C1F80
381800
781800
781800
F87FE0
FBFFF0
DBF800
181800
181800
183F00
183F80
183B80
183800
183800
183800
181800
181800
101800
001000
ENDCHAR
STARTCHAR uni4F69
ENCODING 20329
SWIDTH 1000 0
DWIDTH 26 0
BBX 23 20 2 -2
BITMAP
0E0000
0E0070
1E3FF0
3DF860
798260
719EE0
79BCC0
F998C0
D19EC0
117BC0
117BC0
135BC0
135AC0
125AC0
125EC0
1218C0
1418E6
1C187E
18183C
181800
ENDCHAR
STARTCHAR uni4F6A
ENCODING 20330
SWIDTH 1000 0
DWIDTH 26 0
BBX 22 20 2 -2
BITMAP
060000
0E0000
1E0000
1C00D8
3DBFF8
79FE1C
79C01C
7D801C
D99FDC
999FDC
1999DC
19919C
199B98
199F18
19C038
18C038
18DFB0
18FFF0
1CC0E0
080000
ENDCHAR
STARTCHAR uni4F6B
ENCODING 20331
SWIDTH 1000 0
DWIDTH 26 0
BBX 22 21 2 -3
BITMAP
003800
0639C0
0E77C0
1EE180
3CE300
38FE00
79BE00
791E00
783F80
F877E0
98E1F8
1980FC
190380
1AFFC0
18FDC0
18F1C0
18E1C0
186380
187F80
183F80
003000
ENDCHAR
STARTCHAR uni4F6C
ENCODING 20332
SWIDTH 1000 0
DWIDTH 26 0
BBX 22 21 2 -3
BITMAP
060E00
0E0E00
0E0F80
1E3F30
3C3E70
381CE0
7C0DC0
780FF8
783FFC
D9FE00
19FE00
189E00
183E00
187FE0
186FC0
18CC00
188C10
190E18
1C07F8
0807F0
0000C0
ENDCHAR
STARTCHAR uni4F6E
ENCODING 20334
SWIDTH 1000 0
DWIDTH 26 0
BBX 21 21 3 -2
BITMAP
000800
061800
0E3800
1E7C00
3C6700
3CC380
79C3C0
7981E0
F33EF0
F2FC78
F4F800
300000
300200
31BF80
31FF80
31E180
31C380
31C300
30C700
38FF00
107000
ENDCHAR
STARTCHAR uni4F6F
ENCODING 20335
SWIDTH 1000 0
DWIDTH 26 0
BBX 21 23 3 -3
BITMAP
000040
0000C0
0421C0
0E3180
1E3380
1E7FC0
3CFF80
78FC00
780C00
781F00
D87F00
987C00
180C00
180FF0
18FFF8
1BFE00
19CC00
180C00
180C00
180C00
180C00
180C00
000800
ENDCHAR
STARTCHAR uni4F70
ENCODING 20336
SWIDTH 1000 0
DWIDTH 26 0
BBX 20 20 2 -2
BITMAP
060000
0E1FF0
0EFFF0
1EFE00
3C0600
380C00
7C28C0
787FE0
7878E0
D86060
186060
186660
187E60
187860
186060
186060
1860E0
187FE0
1C7FE0
0801C0
ENDCHAR
STARTCHAR uni4F73
ENCODING 20339
SWIDTH 1000 0
DWIDTH 26 0
BBX 22 21 2 -3
BITMAP
000600
070600
0F07C0
0F0FE0
1E7FE0
3C7F00
3C0600
7C07F0
783FF0
D8FFE0
18FE00
180600
180FC0
187FC0
187F00
180600
180600
183FF8
1DFFFC
1DFF98
088000
ENDCHAR
STARTCHAR uni4F74
ENCODING 20340
SWIDTH 1000 0
DWIDTH 26 0
BBX 21 21 3 -2
BITMAP
000080
040FC0
0EFF80
1EFC00
3C4100
384180
786380
787F80
F86380
F84380
D85B80
187B80
186380
184390
187FF8
1BFFF8
1B8380
180180
180180
180100
100100
ENDCHAR
STARTCHAR uni4F75
ENCODING 20341
SWIDTH 1000 0
DWIDTH 26 0
BBX 21 22 3 -3
BITMAP
0000C0
0C61C0
1E6180
1C2300
3C22C0
381FC0
70FFC0
78FF80
F07380
F03380
B02300
303FF0
31FFF8
37FB90
33E380
316380
306380
304380
304300
308300
108300
100200
ENDCHAR
STARTCHAR uni4F76
ENCODING 20342
SWIDTH 1000 0
DWIDTH 26 0
BBX 20 20 3 -2
BITMAP
040E00
0E0E00
1E0E60
3C1FF0
39FFE0
79FF00
78CE00
F80EC0
D83FE0
98FFC0
187C00
180000
181FE0
18FFE0
18F0E0
18E0E0
18E1C0
1867C0
187FE0
183800
ENDCHAR
STARTCHAR uni4F77
ENCODING 20343
SWIDTH 1000 0
DWIDTH 26 0
BBX 23 21 2 -3
BITMAP
0627C0
063FC0
0E7CC0
1E70C0
3C6DC0
387D80
787380
786380
786F80
D87F00
187070
1878F0
187F80
186F00
186780
1863C0
1867F0
187CF8
19F07E
0BE000
018000
ENDCHAR
STARTCHAR uni4F78
ENCODING 20344
SWIDTH 1000 0
DWIDTH 26 0
BBX 22 21 2 -3
BITMAP
0701E0
0F0FF0
0F1FE0
1E0200
3C0300
380700
7807B8
787FFC
F9FFFC
DBFE00
198600
180600
1807E0
187FF0
187E70
187070
1870E0
1871E0
183FE0
083E00
001000
ENDCHAR
STARTCHAR uni4F79
ENCODING 20345
SWIDTH 1000 0
DWIDTH 26 0
BBX 22 22 2 -3
BITMAP
000400
060E40
061FE0
0E31C0
1E4300
3C07F0
387FF0
7C7F00
7C2000
7863E0
C86FE0
185EE0
185CE0
18D8E0
189BC0
189BC0
199800
191818
0D181C
0E1FFC
0A0FF8
0007E0
ENDCHAR
STARTCHAR uni4F7A
ENCODING 20346
SWIDTH 1000 0
DWIDTH 26 0
BBX 22 20 2 -2
BITMAP
060000
0E3800
1E3E00
1C3F00
3C7780
78E3C0
79C1F0
7980F8
DB3F7C
1AFE00
187C00
181C00
181F00
187F00
187C00
181800
181800
18FFE0
19FFE0
19F000
ENDCHAR
STARTCHAR uni4F7B
ENCODING 20347
SWIDTH 1000 0
DWIDTH 26 0
BBX 24 20 1 -2
BITMAP
0C0180
0E0180
1C2380
3C3300
383370
703770
7BB650
79B600
F83600
D86600
18E6F0
19E670
1B6600
1A6600
18C604
18C606
188607
1907FE
1803FE
1801FC
ENDCHAR
STARTCHAR uni4F7C
ENCODING 20348
SWIDTH 1000 0
DWIDTH 26 0
BBX 22 21 2 -2
BITMAP
000800
061E00
0E0E00
0E0660
1E0FE0
3CFE00
38E000
7C10C0
7830E0
786100
D86300
18F300
181B00
181E00
180E00
180F00
180FC0
181BE0
1871F0
1D80F8
08003C
ENDCHAR
STARTCHAR uni4F7D
ENCODING 20349
SWIDTH 1000 0
DWIDTH 26 0
BBX 23 20 2 -2
BITMAP
060200
0F0600
1E0600
1E0E00
3C0C30
79DFF8
79DA70
781840
D81080
980200
180300
180300
188700
190780
1B07C0
1B8DE0
198CF0
199878
18307C
18603E
ENDCHAR
STARTCHAR uni4F7E
ENCODING 20350
SWIDTH 1000 0
DWIDTH 26 0
BBX 22 22 2 -4
BITMAP
040E00
0E0700
1E0380
1C61C0
3C61E0
78C0F0
798078
F9833C
DB7F80
986180
186180
186D80
187DC0
1861C0
1861C0
187DC0
18E1C0
1861C0
1861C0
1847C0
004780
000200
ENDCHAR
STARTCHAR uni4F7F
ENCODING 20351
SWIDTH 1000 0
DWIDTH 26 0
BBX 22 20 2 -2
BITMAP
040C00
0E0F80
1E3F80
3C7E00
381C00
780FE0
79FFE0
F9FCE0
D9CCC0
18CDC0
18CF80
18FC00
187800
1BD800
18F800
183C00
187F00
18E7C0
1983F0
1800FC
ENDCHAR
STARTCHAR uni4F80
ENCODING 20352
SWIDTH 1000 0
DWIDTH 26 0
BBX 22 22 2 -4
BITMAP
060C18
0EFC18
0FFC18
1EF818
3C6018
386CD8
7C6CD8
786CDC
787EDC
D8FEDC
1BFCDC
19CC9C
18CC1C
18CC1C
18CC1C
188C1C
198C1C
190C1C
09083C
0801F8
0000E0
000040
ENDCHAR
STARTCHAR uni4F81
ENCODING 20353
SWIDTH 1000 0
DWIDTH 26 0
BBX 22 22 2 -3
BITMAP
000400
020E00
060E00
0E6F80
1E7F80
3CFF80
38FE00
798C00
790FC0
781FC0
D9FF00
19FC00
18DB00
181B00
183300
187600
186600
18C608
19860C
19073C
1803FC
0001F8
ENDCHAR
STARTCHAR uni4F82
ENCODING 20354
SWIDTH 1000 0
DWIDTH 26 0
BBX 23 20 2 -2
BITMAP
060E00
0F0600
0F0FE0
1E7FE0
3C7C00
3C6000
786180
7867C0
785F80
F8C600
98C7E0
18CFE0
18FFC0
18FE00
198C00
198C04
190C06
19060E
1D07FC
0803F8
ENDCHAR
STARTCHAR uni4F83
ENCODING 20355
SWIDTH 1000 0
DWIDTH 26 0
BBX 24 21 1 -2
BITMAP
020000
0763E0
077FF0
0F7FF0
1E7060
1E70E0
3C70E0
3C71C0
7C3FC0
7C3F00
6C1000
CC0000
0C0440
0C66C0
0C64C0
0C64C0
0CC4C0
0CC4C2
0C84C7
0D847E
09003C
ENDCHAR
STARTCHAR uni4F84
ENCODING 20356
SWIDTH 1000 0
DWIDTH 26 0
BBX 21 20 3 -2
BITMAP
040780
0E7FC0
1E7F80
3C7E00
381C00
783980
7871C0
F87FC0
F8FEC0
D8FC00
18CC00
180C00
180FC0
18FF80
187E00
180C00
180C00
187FF0
1BFFF8
11F810
ENDCHAR
STARTCHAR uni4F85
ENCODING 20357
SWIDTH 1000 0
DWIDTH 26 0
BBX 20 22 3 -3
BITMAP
000800
040C00
0E0E00
1E0FE0
3CFFE0
38FF80
78F800
783200
F83300
F86600
D8C600
19E680
18FD80
181980
181980
183300
186780
18CFE0
1988F0
1A1070
180030
100000
ENDCHAR
STARTCHAR uni4F86
ENCODING 20358
SWIDTH 1000 0
DWIDTH 26 0
BBX 21 22 3 -3
BITMAP
00C400
00FE00
0FFE00
1FF800
0FE000
0CE700
0CEE00
1CFE00
3CFF00
7EE300
E7E000
83F800
07FC00
0FEE00
1CEF00
38E7C0
70E3E0
C0E1F8
00C040
01C000
078000
030000
ENDCHAR
STARTCHAR uni4F87
ENCODING 20359
SWIDTH 1000 0
DWIDTH 26 0
BBX 21 22 2 -3
BITMAP
001800
021F00
063F00
0E7C00
1E7800
3C1F80
383980
787B00
781E00
781C00
D9F870
199BF0
19BC70
19F860
1839E0
183DC0
183E00
186700
18E380
18C1E0
1980F0
000078
ENDCHAR
STARTCHAR uni4F88
ENCODING 20360
SWIDTH 1000 0
DWIDTH 26 0
BBX 20 21 2 -2
BITMAP
000700
020F60
071CF0
0F30F0
1E40E0
3C1FC0
380F80
7C0F00
6C1F00
CC3000
884600
080FE0
081C70
0830E0
0861C0
085FC0
088F80
0C0780
0C0F80
0C3800
0C6000
ENDCHAR
STARTCHAR uni4F89
ENCODING 20361
SWIDTH 1000 0
DWIDTH 26 0
BBX 22 22 2 -3
BITMAP
000400
060E00
0E1FC0
0EFFC0
1EFF00
3C3380
3871C0
7C60E0
78DE70
78C83C
D98780
19FF80
197C00
1A0880
181FC0
183CC0
1800C0
1800C0
180180
1C1F80
080F00
000800
ENDCHAR
STARTCHAR uni4F8B
ENCODING 20363
SWIDTH 1000 0
DWIDTH 26 0
BBX 22 23 2 -4
BITMAP
000030
040038
0E1F18
0EFE18
1EF818
3C3018
387198
786198
78FD98
F8FD98
D99D9C
99999C
1BF99C
18701C
18701C
18701C
18C01C
18C01C
19803C
19003C
1800F8
080070
000060
ENDCHAR
STARTCHAR uni4F8D
ENCODING 20365
SWIDTH 1000 0
DWIDTH 26 0
BBX 21 22 2 -3
BITMAP
000400
020E00
060FC0
0E7F80
1E7E00
3C2C00
380FF8
783FF8
7BFE00
DBE300
9803F0
181FF0
18FFE0
18F380
180380
180380
18E380
186380
182380
180380
181F00
000E00
ENDCHAR
STARTCHAR uni4F8F
ENCODING 20367
SWIDTH 1000 0
DWIDTH 26 0
BBX 22 23 2 -4
BITMAP
000C00
040C00
0E0C00
1E6F80
3CFF80
38FF80
79FC00
798C00
F80FE0
D87FE0
19FFC0
19FF00
181F80
183FC0
186DE0
18CCF0
188CF8
190C7C
180C00
180C00
183C00
001800
001000
ENDCHAR
STARTCHAR uni4F90
ENCODING 20368
SWIDTH 1000 0
DWIDTH 26 0
BBX 22 20 2 -2
BITMAP
060000
0E0200
0E0600
1E0E00
3C1C00
381800
783030
78FFF8
79FF38
D9F938
19CB30
18DB30
18DB70
18DA70
18DAF0
18FFFC
1BFFFC
1BF000
180000
080000
ENDCHAR
STARTCHAR uni4F91
ENCODING 20369
SWIDTH 1000 0
DWIDTH 26 0
BBX 21 22 2 -3
BITMAP
000300
040300
0E0710
1E0FF8
3CFFF8
38FFC0
787C00
781800
F83FE0
D87E60
187860
18F870
18DF70
199C70
191870
181B30
181F30
181870
181870
181870
1819F0
0000E0
ENDCHAR
STARTCHAR uni4F92
ENCODING 20370
SWIDTH 1000 0
DWIDTH 26 0
BBX 22 20 2 -2
BITMAP
060000
0E0E00
0E0700
1E7FF0
3CE638
38C040
7CC400
78CC00
780CC0
D81DFC
18FFFC
19FD80
18F180
186180
187300
187F80
180FE0
181CF0
1C7038
088010
ENDCHAR
STARTCHAR uni4F94
ENCODING 20372
SWIDTH 1000 0
DWIDTH 26 0
BBX 21 22 3 -3
BITMAP
000C00
0C1C00
1C39C0
3C61C0
387FE0
71FFE0
71F040
F80400
D80E00
98CFC0
11FFC0
11FE00
120E00
100FF0
10FFF8
13FE00
13EE00
180E00
180E00
180E00
180C00
000C00
ENDCHAR
STARTCHAR uni4F95
ENCODING 20373
SWIDTH 1000 0
DWIDTH 26 0
BBX 22 20 2 -2
BITMAP
060000
0E0FE0
0EFFE0
1EFF80
3C6E00
380C00
780800
781BF8
793FD8
D9FF1C
19FB1C
199B1C
199B1C
199B1C
199B18
198218
188238
1880F8
180060
080000
ENDCHAR
STARTCHAR uni4F96
ENCODING 20374
SWIDTH 1000 0
DWIDTH 26 0
BBX 23 21 2 -2
BITMAP
006000
00F000
01F800
03FE00
070F00
0E0780
1FFBE0
3BF1F0
33E0FC
60003E
C00080
83FFC0
1FF8E0
3D90E0
39BEE0
37FCE0
17F1C0
19B1C0
19BBC0
193F80
002700
ENDCHAR
STARTCHAR uni4F97
ENCODING 20375
SWIDTH 1000 0
DWIDTH 26 0
BBX 21 21 2 -3
BITMAP
040760
0EFFF0
1EE030
3DC038
398038
79BFB8
79BF18
F99818
D98018
19BF98
19BDD8
19B198
19B198
19B398
19BF18
199018
198038
198038
1981F8
1880F0
000060
ENDCHAR
STARTCHAR uni4F98
ENCODING 20376
SWIDTH 1000 0
DWIDTH 26 0
BBX 22 22 2 -3
BITMAP
000800
060C00
060E00
0E0E00
1E0FF0
3DFE78
39E078
798000
798700
799F80
D9BF00
991C00
180DC0
183FE0
18FF80
19F800
181808
18180C
18180C
181E7C
080FF8
0003C0
ENDCHAR
STARTCHAR uni4F9A
ENCODING 20378
SWIDTH 1000 0
DWIDTH 26 0
BBX 21 22 2 -3
BITMAP
000400
060C00
0E1C00
0E3830
1E7FF0
3CFE38
38C038
7C0038
784638
787B38
D8C338
18C338
18FB38
18E738
18C638
18CE30
187E70
184070
180070
1C00E0
0803E0
000380
ENDCHAR
STARTCHAR uni4F9B
ENCODING 20379
SWIDTH 1000 0
DWIDTH 26 0
BBX 22 22 2 -3
BITMAP
000100
040180
0E31C0
1E31C0
1C33E0
387FE0
79FFE0
79FF80
F0F300
D06300
306300
3023F8
307FFC
33FFFC
33F800
33F080
3070E0
30E0E0
30C070
39C070
118070
110020
ENDCHAR
STARTCHAR uni4F9C
ENCODING 20380
SWIDTH 1000 0
DWIDTH 26 0
BBX 22 22 2 -3
BITMAP
000100
060780
061C00
0E1000
1E3FC0
3C38C0
3838C0
783EC0
7836C0
7830F8
D83FFC
9BFFFC
1BF0C0
19E0E0
186CE0
1866E0
1860C0
1840C0
1840C0
1883C0
088380
000300
ENDCHAR
STARTCHAR uni4F9D
ENCODING 20381
SWIDTH 1000 0
DWIDTH 26 0
BBX 24 20 1 -2
BITMAP
000E00
030F00
078300
0F03C0
1E07E0
1CFFE0
3CFF00
7C7C00
7C0C10
6C1C78
CC3E70
0C7780
0C7380
0CF1C0
0DB1E0
0F30F0
0C337C
0C3E3E
0C7C1F
0C7800
ENDCHAR
STARTCHAR uni4F9E
ENCODING 20382
SWIDTH 1000 0
DWIDTH 26 0
BBX 22 20 2 -2
BITMAP
042000
0E7000
1E7000
3C6000
38E000
78CC00
78CC00
F8FC00
FBDB3C
DB9BFC
199BDC
199318
193318
19F338
19F3F8
18F1E0
19F900
199800
1A0800
180000
ENDCHAR
STARTCHAR uni4FAE
ENCODING 20398
SWIDTH 1000 0
DWIDTH 26 0
BBX 22 22 2 -3
BITMAP
001000
0038E0
067FE0
0E7C00
1EE000
3CCBC0
381EE0
7830E0
7824E0
7826E0
F8FFFC
9BFFFC
1BFCC0
18CCC0
18CCC0
18FFC0
19FFF0
19F3F0
180380
180380
181F00
081E00
ENDCHAR
STARTCHAR uni4FAF
ENCODING 20399
SWIDTH 1000 0
DWIDTH 26 0
BBX 19 21 3 -3
BITMAP
040F00
0E7F00
1E7F00
3C2E00
3C0FE0
783FE0
7BFF80
FBE000
F86100
90FF80
10FE00
319800
3118C0
303FE0
33FFC0
31F800
103180
1861C0
18C0E0
1880E0
110040
ENDCHAR
STARTCHAR uni4FB2
ENCODING 20402
SWIDTH 1000 0
DWIDTH 26 0
BBX 22 21 3 -3
BITMAP
0407C0
0E7F80
1E7800
3C4000
3C4300
785F00
78DE00
F8C000
F881E0
D8BFE0
98FF80
11FC00
117C60
116EC0
116700
1B4380
1A63C0
1A6DE0
1C78F8
11F03C
00C000
ENDCHAR
STARTCHAR uni4FB3
ENCODING 20403
SWIDTH 1000 0
DWIDTH 26 0
BBX 21 21 2 -2
BITMAP
000400
060E00
0E0E00
0E0E20
1E2E70
3C7EF0
3866C0
7CC7C0
78F770
78BE38
D90600
180600
180FC0
187FC0
187F80
180E00
180600
180600
187FF8
1DFFF8
09F800
ENDCHAR
STARTCHAR uni4FB5
ENCODING 20405
SWIDTH 1000 0
DWIDTH 26 0
BBX 21 22 2 -3
BITMAP
040000
0C3F00
1E3180
3C03E0
38FFE0
71F300
700600
D87E00
D07800
900000
137FF0
13E070
330230
333F00
33F700
327600
301E00
101E00
101F80
1873C0
1881F0
100078
ENDCHAR
STARTCHAR uni4FB6
ENCODING 20406
SWIDTH 1000 0
DWIDTH 26 0
BBX 21 21 2 -2
BITMAP
000020
0337F0
073FF0
0F7E70
1E3860
3C30E0
3C30E0
7C3FC0
7C1F80
EC1E00
CC0600
8C0C60
0C5FF8
0CFFF8
0CF838
0C6038
0C6070
0C70F0
0C7FF0
0C3FF8
0C3C00
ENDCHAR
STARTCHAR uni4FB7
ENCODING 20407
SWIDTH 1000 0
DWIDTH 26 0
BBX 22 22 2 -3
BITMAP
040040
0E7FE0
0E7CE0
1E60C0
3C61C0
386380
787F80
787800
78E000
D8C7F8
D8FF1C
18F01C
19801C
19FF18
19F318
1B6338
1A6638
1C7F38
1C2070
1800F0
1803E0
000180
ENDCHAR
STARTCHAR uni4FB9
ENCODING 20409
SWIDTH 1000 0
DWIDTH 26 0
BBX 22 21 2 -3
BITMAP
020000
0700C0
0F03E0
1E07C0
3C0180
38E180
79E1E0
784FF0
784FE0
D8ED80
18A180
182180
1823E0
1BE7E0
19E000
187000
18FC00
1B1F80
1C0FF0
1803FC
0000E0
ENDCHAR
STARTCHAR uni4FBA
ENCODING 20410
SWIDTH 1000 0
DWIDTH 26 0
BBX 23 22 2 -3
BITMAP
000C40
0E0CE0
0ECCE0
1CCCC0
3CDFC0
78FF80
78FC00
781E00
F83F80
D833C0
9861C0
18CCF0
198E78
19803E
1B0780
1A3F80
1C7B80
180300
180600
180600
180C00
000800
ENDCHAR
STARTCHAR uni4FBB
ENCODING 20411
SWIDTH 1000 0
DWIDTH 26 0
BBX 22 21 2 -3
BITMAP
060700
0E1180
0E39C0
1E60E0
3CC070
38C3B8
7D7FC0
787980
786180
D86380
187F80
183E00
183E00
183E00
183400
186400
18C408
18861C
1F07F8
0803F8
0000C0
ENDCHAR
STARTCHAR uni4FBF
ENCODING 20415
SWIDTH 1000 0
DWIDTH 26 0
BBX 22 21 2 -3
BITMAP
040FC0
0E3FC0
0E1E00
1E0600
3C07F0
38FF30
78FE30
7CC770
78DE60
D8CE60
9867C0
187F80
183C00
180400
19FC00
19FC00
181F00
187F80
1FC3E0
1801F8
08007C
ENDCHAR
STARTCHAR uni4FC0
ENCODING 20416
SWIDTH 1000 0
DWIDTH 26 0
BBX 21 22 2 -3
BITMAP
000300
001F00
0E3C00
1E0060
1C18E0
3C98C0
79C980
70C200
786400
F81880
D819F0
187FF8
1BFFF8
1BE300
186300
187E00
183F00
180F80
1839C0
18E0E0
190060
100060
ENDCHAR
STARTCHAR uni4FC1
ENCODING 20417
SWIDTH 1000 0
DWIDTH 26 0
BBX 21 21 3 -3
BITMAP
042780
0E3FC0
1C39C0
3C3180
383380
79BF00
799C00
F9C060
F8DFE0
D8FEE0
187CC0
101CC0
101FF0
11FFF8
1BF800
193100
1831C0
1860E0
1840E0
10C060
008000
ENDCHAR
STARTCHAR uni4FC2
ENCODING 20418
SWIDTH 1000 0
DWIDTH 26 0
BBX 21 23 2 -4
BITMAP
060380
0E0F00
0F1800
1E01C0
3E03C0
3C0F00
781C40
7878E0
FC73C0
EC7F00
DC0E40
1C1C60
1C3FE0
1C7FE0
1C7300
1C0320
1C8330
1CC318
1CC718
1CC700
0C1F00
000C00
000800
ENDCHAR
STARTCHAR uni4FC3
ENCODING 20419
SWIDTH 1000 0
DWIDTH 26 0
BBX 23 22 1 -3
BITMAP
020000
0733E0
0F3FE0
0E3FE0
1E38E0
3C38C0
3839C0
7C3F80
7C1F00
7C1A00
CC0200
8C02C0
1833C0
187300
18E200
19FA00
1D1E00
0E0F80
0C07E0
0C03FC
0C00FE
080000
ENDCHAR
STARTCHAR uni4FC4
ENCODING 20420
SWIDTH 1000 0
DWIDTH 26 0
BBX 22 22 2 -3
BITMAP
000200
020700
060700
0F3330
1E7B38
1CE318
3C33C0
783FE0
79FFC0
79FF00
F9F390
D835B0
1839B0
18F1B0
19F1F0
19F0E0
1830E0
1830E0
1973E0
18E674
18C03C
00001C
ENDCHAR
STARTCHAR uni4FC5
ENCODING 20421
SWIDTH 1000 0
DWIDTH 26 0
BBX 22 22 2 -3
BITMAP
000800
001C60
061C30
0E1F80
1E7F80
3CFF00
38FC00
781C40
781CE0
799D80
F99E00
981E00
181E00
185F80
189FC0
199DF0
1B1CF8
1B1C3C
181C00
183C00
187800
083000
ENDCHAR
STARTCHAR uni4FC7
ENCODING 20423
SWIDTH 1000 0
DWIDTH 26 0
BBX 22 20 2 -2
BITMAP
060000
0E9800
1EF8F0
3CF7F0
38E3C0
78E0C0
79B0C0
F930C0
D830F0
987BF0
18FBC0
19B8C0
1918C0
1A38C0
1838C0
1838F8
1837FC
18F7C0
18E000
180000
ENDCHAR
STARTCHAR uni4FC9
ENCODING 20425
SWIDTH 1000 0
DWIDTH 26 0
BBX 21 22 3 -3
BITMAP
000380
0C3F80
1E7F80
1C7E00
3C3E00
780C00
701F80
F8FF80
F8F1C0
F03180
9033F0
30FFF8
33FFF8
37C000
330780
30FFC0
30F1C0
30E1C0
386380
187FC0
107F80
002000
ENDCHAR
STARTCHAR uni4FCA
ENCODING 20426
SWIDTH 1000 0
DWIDTH 26 0
BBX 22 22 2 -3
BITMAP
000400
040E00
0E1C00
0E3980
1E33C0
3CFFE0
38FE40
787300
783300
7873F0
D8C3E0
998100
181F00
183B80
18E300
18F300
18FB00
199F00
190F00
181FC0
18E3F0
0000FC
ENDCHAR
STARTCHAR uni4FCB
ENCODING 20427
SWIDTH 1000 0
DWIDTH 26 0
BBX 22 22 2 -3
BITMAP
000100
027F80
077980
0F7180
1E7380
1C3F00
3C3C00
381000
780FE0
787FE0
79FCC0
D9CDC0
19CDC0
198F80
19FF00
19FC08
198008
198008
18C03C
18FFF8
087FF8
001FF0
ENDCHAR
STARTCHAR uni4FCD
ENCODING 20429
SWIDTH 1000 0
DWIDTH 26 0
BBX 22 22 2 -3
BITMAP
001C00
020C00
060F80
0E7F80
1E7980
3C6180
386180
7C7B80
7CF300
78C700
C8DE60
18F8E0
18F980
18DD00
18CE00
18CF00
18C780
18C7E0
1CD9F8
0CF07C
09E000
00C000
ENDCHAR
STARTCHAR uni4FCE
ENCODING 20430
SWIDTH 1000 0
DWIDTH 26 0
BBX 23 20 2 -2
BITMAP
000040
0C1FE0
1C3F60
383870
763070
673070
003F70
003F70
003C70
0C3070
1C3070
383F70
7C3F70
7E3070
E73070
803070
0030FC
01FFFE
03FFFE
03E000
ENDCHAR
STARTCHAR uni4FCF
ENCODING 20431
SWIDTH 1000 0
DWIDTH 26 0
BBX 21 22 2 -3
BITMAP
000600
060600
0EC638
1EE670
3CE6C0
3C6700
780600
780FC0
787FC0
F870E0
D8C0E0
18FCE0
18FCE0
18C0E0
18C0E0
18FEE0
18FCE0
18C0E0
18C0E0
18C0E0
18C3E0
000180
ENDCHAR
STARTCHAR uni4FD0
ENCODING 20432
SWIDTH 1000 0
DWIDTH 26 0
BBX 21 22 2 -3
BITMAP
0C0030
0C1838
1C7C38
3CF838
3830B8
7031B8
787DB8
F9F9B8
FBF198
D9F198
187198
18FD18
19FC38
19B438
1B3038
1A3038
183038
183038
183038
1830F8
102070
000040
ENDCHAR
STARTCHAR uni4FD1
ENCODING 20433
SWIDTH 1000 0
DWIDTH 26 0
BBX 20 21 2 -2
BITMAP
040000
0E7FC0
1E79E0
1E63C0
3C0200
381C00
781E40
781FE0
F8FC60
D8CC70
998F70
19BF70
19BC70
198D70
199FF0
19BF70
199C70
198C70
198CF0
198BF0
0809C0
ENDCHAR
STARTCHAR uni4FD3
ENCODING 20435
SWIDTH 1000 0
DWIDTH 26 0
BBX 20 21 3 -2
BITMAP
000100
041F80
0EFF80
1C7C00
3C1900
399980
70C880
78C900
F91100
F11980
F19980
31C800
300380
30FFC0
30FF80
30FC00
301C00
301C00
38FFF0
3BFFF0
13F800
ENDCHAR
STARTCHAR uni4FD4
ENCODING 20436
SWIDTH 1000 0
DWIDTH 26 0
BBX 22 21 2 -3
BITMAP
0020C0
063FC0
0E70E0
1E60E0
3C64E0
387CE0
7860E0
7860E0
787CE0
F878E0
9860E0
187FC0
187FC0
183D00
183B00
183300
186200
18C208
18831C
1903FC
0801F8
ENDCHAR
STARTCHAR uni4FD6
ENCODING 20438
SWIDTH 1000 0
DWIDTH 26 0
BBX 23 22 2 -3
BITMAP
020040
063FF0
0EFFE0
1E7D80
3C0380
383F00
781E00
7C1E00
781F80
F83FC0
D86FF0
98CEF8
188C7E
191C00
1A7FC0
187FC0
1870C0
1871C0
187180
183780
083FC0
001800
ENDCHAR
STARTCHAR uni4FD7
ENCODING 20439
SWIDTH 1000 0
DWIDTH 26 0
BBX 22 21 2 -3
BITMAP
061180
0E39C0
1E70E0
1EC060
3C0C00
381C00
783E00
7C3700
7C63C0
E8C1F0
9980FC
190020
1ADF80
18FFC0
18F1C0
18E1C0
18E380
1C6780
1C7FC0
0C3D80
080000
ENDCHAR
STARTCHAR uni4FD8
ENCODING 20440
SWIDTH 1000 0
DWIDTH 26 0
BBX 21 22 2 -3
BITMAP
000380
040F80
0E1820
0E0070
1ECEE0
3CE780
386300
7822C0
7C17E0
787CE0
F87180
D80200
180E00
1807F0
18FFF8
19FFF8
188300
180300
1C0700
1C0700
183E00
081C00
ENDCHAR
STARTCHAR uni4FD9
ENCODING 20441
SWIDTH 1000 0
DWIDTH 26 0
BBX 20 22 3 -3
BITMAP
000300
040F00
0EFF00
1C3F00
3C6700
388100
7819E0
787FF0
FBFFC0
FBE400
D8CC00
10CFC0
11FEE0
137C60
126CE0
1C6CE0
186CE0
186FC0
186DC0
180C00
100C00
000C00
ENDCHAR
STARTCHAR uni4FDA
ENCODING 20442
SWIDTH 1000 0
DWIDTH 26 0
BBX 21 20 2 -2
BITMAP
0641F0
0E7FB8
1E7E38
1E6638
3C6730
387F30
7C7E70
7C6660
7C67C0
DC7F80
183E00
182600
1807C0
183FC0
183E00
180600
1C0600
1C7FF8
1CFFF8
08F800
ENDCHAR
STARTCHAR uni4FDB
ENCODING 20443
SWIDTH 1000 0
DWIDTH 26 0
BBX 21 22 3 -3
BITMAP
040C00
0E3D00
1E7F80
3CC300
3C0400
780840
701FC0
F9FCE0
F9FCC0
F999C0
D99F80
19FE00
18F000
183400
182C00
186C00
184C00
18CC10
198C18
190FF8
1A07F8
1001C0
ENDCHAR
STARTCHAR uni4FDC
ENCODING 20444
SWIDTH 1000 0
DWIDTH 26 0
BBX 20 22 3 -3
BITMAP
001800
0C1FC0
0DFEC0
1DF8C0
3D98C0
799FC0
71B980
799980
F8DF00
F8F000
D807F0
11FFF0
17E000
136180
107F80
10F980
184180
180180
180180
180380
101F00
001C00
ENDCHAR
STARTCHAR uni4FDD
ENCODING 20445
SWIDTH 1000 0
DWIDTH 26 0
BBX 22 21 2 -3
BITMAP
062180
0E7FC0
1E7FC0
3E7180
3C6180
783780
783F00
783C00
F80400
D807F8
99FFFC
1BFF10
19C600
180660
19C670
198630
198E30
180E00
183C00
181800
081000
ENDCHAR
STARTCHAR uni4FDE
ENCODING 20446
SWIDTH 1000 0
DWIDTH 26 0
BBX 22 23 2 -3
BITMAP
004000
00E000
01F800
039C00
030E00
060700
0CF380
1FF3E0
19C1F0
3000F8
6783FC
6CC990
C8C980
8CC980
1EC980
18C980
18C980
1EE180
1CE180
18E180
18E380
19C780
098600
ENDCHAR
STARTCHAR uni4FDF
ENCODING 20447
SWIDTH 1000 0
DWIDTH 26 0
BBX 22 21 2 -3
BITMAP
060C00
0E1C00
1E3980
3C31C0
3867E0
70FFE0
71FC60
F8E000
D823C0
987FC0
18FF80
18DC00
188C00
181FF8
19FFFC
1BFC00
1B9980
1831E0
1860E0
18C060
100060
ENDCHAR
STARTCHAR uni4FE0
ENCODING 20448
SWIDTH 1000 0
DWIDTH 26 0
BBX 23 22 2 -3
BITMAP
000400
0E0E00
0E0F80
1E0FC0
3C7F80
3CFF00
787C00
780C40
784CC0
F8CD80
F9CDE0
D9EF60
197C20
1A1C00
181E00
183F00
183380
1861C0
18C0F0
1980FC
18003E
080000
ENDCHAR
STARTCHAR uni4FE1
ENCODING 20449
SWIDTH 1000 0
DWIDTH 26 0
BBX 20 22 2 -3
BITMAP
060C00
060E00
0F0FF0
1E3FF0
1EFFF0
3CFC00
38E100
7C0F80
7C1F00
7C1C00
EC0100
8C0F80
0C3F00
0C1C00
0C03C0
0C7FE0
0C7FE0
0C78E0
0C70C0
0C33C0
043FE0
001E40
ENDCHAR
STARTCHAR uni4FEC
ENCODING 20460
SWIDTH 1000 0
DWIDTH 26 0
BBX 21 20 2 -2
BITMAP
043000
0EF000
1FE000
3CE0C0
38E0C0
78E1C0
78F980
FBF380
F9C300
D8C300
18F620
19F630
19C638
1BCFF8
1ACFF8
1CCC18
18C000
18C000
18C000
184000
ENDCHAR
STARTCHAR uni4FEE
ENCODING 20462
SWIDTH 1000 0
DWIDTH 26 0
BBX 22 22 2 -3
BITMAP
000800
0C1DE0
1E3FE0
1C3780
3C6180
787F00
701F00
730F80
FB0FE0
FB19FC
9B637C
1B0F00
331800
330300
330700
330E00
3310C0
3B01C0
180380
380700
181E00
101000
ENDCHAR
STARTCHAR uni4FEF
ENCODING 20463
SWIDTH 1000 0
DWIDTH 26 0
BBX 22 22 2 -3
BITMAP
000C00
060E00
0E07F0
1E7FF0
3CFF80
38E000
70C0C0
7898E0
F998F8
F9BFFC
D9BFE0
19E6E0
19E060
1BE0E0
1B6EE0
1A66E0
1A66E0
1860E0
1860E0
1860E0
1823E0
102180
ENDCHAR
STARTCHAR uni4FF1
ENCODING 20465
SWIDTH 1000 0
DWIDTH 26 0
BBX 22 21 2 -3
BITMAP
022080
067FC0
0E7FC0
1E70C0
3C6CC0
787EC0
7860C0
786CC0
F87CC0
D860C0
186CC0
187EC0
1860C0
1867F8
18FFFC
1BFFF8
1BF900
1971E0
1860E0
18C070
108070
ENDCHAR
STARTCHAR uni4FF3
ENCODING 20467
SWIDTH 1000 0
DWIDTH 26 0
BBX 21 22 2 -3
BITMAP
000100
041980
0E1980
1C39F0
3C39F0
39F180
71B180
703180
F831F0
F8F1F0
D9F1C0
183180
183180
183180
187180
1BF1F8
19B3F0
183380
183380
183380
183380
002300
ENDCHAR
STARTCHAR uni4FF4
ENCODING 20468
SWIDTH 1000 0
DWIDTH 26 0
BBX 22 22 2 -3
BITMAP
003000
063F60
0E3E60
1EFC20
3CF980
785F80
700E00
F83E00
F8C760
D82370
987DB0
307C00
33F900
33F380
339F00
301E00
381C00
387E00
18C780
1903F8
1801FC
000078
ENDCHAR
STARTCHAR uni4FF5
ENCODING 20469
SWIDTH 1000 0
DWIDTH 26 0
BBX 22 22 2 -3
BITMAP
000C00
000C00
0E0FC0
1E7FC0
1C7E00
3C0E00
780FC0
707F80
783C00
F80FF0
D8FFE0
19FE00
18FE30
187730
18F3E0
18F380
1931C0
1A31E0
181EF0
183C7C
18F020
10E000
ENDCHAR
STARTCHAR uni4FF6
ENCODING 20470
SWIDTH 1000 0
DWIDTH 26 0
BBX 22 21 2 -2
BITMAP
004000
0C6000
1C6000
3CE800
38FC20
70F0E0
70E3E0
F06260
F0F860
B3F860
33CEE0
3046C0
3063C0
3079C0
3669C0
3663E0
3266F8
306878
30C03C
31C000
108000
ENDCHAR
STARTCHAR uni4FF7
ENCODING 20471
SWIDTH 1000 0
DWIDTH 26 0
BBX 24 20 1 -2
BITMAP
0D0038
1DF3EC
39B39C
393018
713098
7130B0
71B0F0
F3F2E0
F333C0
B33300
337600
33F600
33B600
323600
323600
323602
323607
3433BE
3473FE
1460F0
ENDCHAR
STARTCHAR uni4FF8
ENCODING 20472
SWIDTH 1000 0
DWIDTH 26 0
BBX 22 22 2 -3
BITMAP
000C00
0C0FC0
1C7FC0
1CF800
3C1880
783FC0
70FE00
F07740
F867F0
D8FFE0
99F9E0
18CCF0
118F78
11BE3C
111C18
1A0D80
1A7FC0
1C7E00
180C00
180C00
180C00
000800
ENDCHAR
STARTCHAR uni4FFA
ENCODING 20474
SWIDTH 1000 0
DWIDTH 26 0
BBX 22 22 2 -3
BITMAP
000800
041C00
1C1980
1C3FC0
3DFF80
79FE00
F0CF00
F8C780
F983E0
919DF0
339FF8
33FFE4
37D9C0
3F9FC0
3DFD80
39FB80
30DF80
30FE00
387800
381800
181FE0
100FC0
ENDCHAR
STARTCHAR uni4FFE
ENCODING 20478
SWIDTH 1000 0
DWIDTH 26 0
BBX 22 22 2 -3
BITMAP
000400
060E00
0F1C00
1E7FF0
1EFE70
3CF670
78C770
7CDF60
FCCCE0
D867C0
987FC0
187C00
181B00
1833B8
187FFC
1BFFFC
1BFB80
180380
180380
1C0380
080300
080300
ENDCHAR
STARTCHAR uni5000
ENCODING 20480
SWIDTH 1000 0
DWIDTH 26 0
BBX 22 22 2 -3
BITMAP
042300
0C3F00
1E7C00
3C7000
387F00
707C00
706000
D86F00
D07800
906000
1067F8
11FFE0
37F080
33F980
309F00
308E00
308F80
1087C0
10DBF0
19F0F8
1BC03C
118000
ENDCHAR
STARTCHAR uni5005
ENCODING 20485
SWIDTH 1000 0
DWIDTH 26 0
BBX 21 21 2 -2
BITMAP
000C00
060E00
0E0FE0
1E7FE0
3C7FC0
3870C0
7031C0
787380
F8F3E0
D8DC60
198420
190E00
180FF0
19FFF8
1BFFF8
19EE00
180E00
180E00
180E00
180C00
180C00
ENDCHAR
STARTCHAR uni5006
ENCODING 20486
SWIDTH 1000 0
DWIDTH 26 0
BBX 21 21 2 -3
BITMAP
020000
0E0060
1E3FE0
1E7FC0
3C3E00
780600
780600
F80670
D9FFF8
D9FE38
19CE38
198C38
1BBCF8
1BBFF8
19EE78
19CE38
19C638
188438
1800F0
1800E0
100000
ENDCHAR
STARTCHAR uni5007
ENCODING 20487
SWIDTH 1000 0
DWIDTH 26 0
BBX 23 22 2 -3
BITMAP
000800
060C00
0E0E00
1E1FE0
1CFC70
3DC870
798000
798000
F98040
F863E0
987B60
18DA60
199E60
199640
18F6C0
1877C0
186600
18C608
18860C
1907FE
1803FC
1001F0
ENDCHAR
STARTCHAR uni5009
ENCODING 20489
SWIDTH 1000 0
DWIDTH 26 0
BBX 22 23 2 -3
BITMAP
004000
00E000
01F800
03FC00
078F00
07E780
0E63C0
1C01F0
39FEF8
33C67C
631610
47F600
87CE00
061C00
0FFC00
0DE000
0C0300
19FF00
13FB00
338300
218700
018E00
01FC00
ENDCHAR
STARTCHAR uni500B
ENCODING 20491
SWIDTH 1000 0
DWIDTH 26 0
BBX 21 22 2 -3
BITMAP
040000
0E0000
1EFFE0
3CF670
78C630
79C630
F98FB8
F9BFB8
D99C38
998C38
19BFB8
19BFB8
19B1B8
19B1B8
19B738
199E38
198038
19FF38
19FFB0
18C0F0
100060
000040
ENDCHAR
STARTCHAR uni500C
ENCODING 20492
SWIDTH 1000 0
DWIDTH 26 0
BBX 22 22 2 -3
BITMAP
000C00
060600
0E0700
1EDFF8
3DFE1C
39C03C
7180C0
79BFC0
F9BDC0
D87180
987180
187F80
187E00
186040
1867E0
187F60
187860
1860E0
1861C0
187FC0
183E00
082000
ENDCHAR
STARTCHAR uni500D
ENCODING 20493
SWIDTH 1000 0
DWIDTH 26 0
BBX 22 21 2 -3
BITMAP
030E00
070E00
0F07C0
1E7FC0
3C7E00
3830C0
7821C0
783180
F833F8
987FFC
19FF98
1BF000
190180
185FE0
18FEE0
18F0E0
1870C0
1871C0
187FC0
183FC0
001000
ENDCHAR
STARTCHAR uni500E
ENCODING 20494
SWIDTH 1000 0
DWIDTH 26 0
BBX 21 21 2 -3
BITMAP
0E0300
1E1300
1C1FE0
3DBFF0
79FF70
71F270
799370
F99FE0
D9FFE0
D1FB60
119360
109BF0
11FFF8
13FFF8
13F000
1070C0
10E0E0
19C070
198030
1A0010
100000
ENDCHAR
STARTCHAR uni500F
ENCODING 20495
SWIDTH 1000 0
DWIDTH 26 0
BBX 22 21 2 -3
BITMAP
0C0DE0
1C1FE0
1C1FC0
383180
783F80
714F00
F90780
FB0FE0
DB18F8
1B307C
1B0680
1B06C0
1B0FC0
1B3FE0
1B3E00
1B0C00
190DC0
1818E0
183060
186070
100000
ENDCHAR
STARTCHAR uni5011
ENCODING 20497
SWIDTH 1000 0
DWIDTH 26 0
BBX 21 22 2 -3
BITMAP
040000
0E19F0
1EF918
3D8D98
398998
71FBF8
71FBF8
F99B18
F99B18
D99BF8
19F1F8
19E018
198018
198018
198018
198018
198018
198018
198038
198038
198070
008060
ENDCHAR
STARTCHAR uni5012
ENCODING 20498
SWIDTH 1000 0
DWIDTH 26 0
BBX 21 22 2 -3
BITMAP
000070
060030
0F1C30
1FFC30
1EF030
3C6038
7861B8
78C9B8
F8CDB8
F8FDB8
DBF1B8
1BE1B8
187938
18F938
19F838
18E038
182038
187C38
19FC38
1BE078
1801F0
0000E0
ENDCHAR
STARTCHAR uni5013
ENCODING 20499
SWIDTH 1000 0
DWIDTH 26 0
BBX 20 22 3 -3
BITMAP
000800
040C00
0E9C40
1EDCE0
3CDD80
38DD00
783F00
F833C0
F861C0
F8C0C0
991800
181800
3018C0
3119C0
31BB00
313E00
383E00
187700
18E380
19C3E0
1B81F0
100000
ENDCHAR
STARTCHAR uni5014
ENCODING 20500
SWIDTH 1000 0
DWIDTH 26 0
BBX 21 21 2 -2
BITMAP
000400
063FC0
0E78C0
1E61C0
3C6180
786F80
707E00
F8F200
F8C330
D8C730
98B770
31B760
31BFE0
31BF00
310600
330630
3B6630
3A6670
1A67F8
1C7FB0
1C7C30
ENDCHAR
STARTCHAR uni5015
ENCODING 20501
SWIDTH 1000 0
DWIDTH 26 0
BBX 22 21 2 -2
BITMAP
0000C0
020FE0
073F00
0F0700
1F07F0
1E7FF8
3CFF00
784620
780778
787FFC
F9FFE0
99E640
182640
1827F0
187FF8
187F00
180600
180600
1807E0
183FE0
083F80
ENDCHAR
STARTCHAR uni5016
ENCODING 20502
SWIDTH 1000 0
DWIDTH 26 0
BBX 22 22 2 -3
BITMAP
000600
0207C0
0E0FC0
1E7F80
1E3E00
3C0600
7807F8
78FFFC
FBFFC8
DBE180
983180
183FC0
187FC0
187E00
180600
180FF8
19FFF8
19FE00
180C00
180C00
180C00
080400
ENDCHAR
STARTCHAR uni5017
ENCODING 20503
SWIDTH 1000 0
DWIDTH 26 0
BBX 20 21 2 -3
BITMAP
060000
0E0030
1EFBF0
1EDBB0
3CDB30
789B30
789BF0
78FBB0
F9FB30
999B30
199B30
199BF0
19FBB0
19DB30
191A30
191A30
191A30
191A30
1A3AF0
183060
000020
ENDCHAR
STARTCHAR uni5018
ENCODING 20504
SWIDTH 1000 0
DWIDTH 26 0
BBX 21 21 2 -2
BITMAP
000400
060E00
0E0E38
1E8E78
3CCC60
78CC80
704C00
F84C00
F80E00
D83FF8
9BFE18
33C018
338318
333FB8
333BB8
31B338
39BF38
39BC38
199078
1981F0
1801E0
ENDCHAR
STARTCHAR uni5019
ENCODING 20505
SWIDTH 1000 0
DWIDTH 26 0
BBX 20 22 2 -3
BITMAP
040380
0E0F80
1E3F80
1C3F80
3C0700
3907F0
791FF0
7BFF00
7BF800
DB3980
1B3F80
1B7E00
1B6C00
1B0FE0
1B3FE0
1B7F00
1B3800
1B30C0
1930E0
186070
180070
000020
ENDCHAR
STARTCHAR uni501A
ENCODING 20506
SWIDTH 1000 0
DWIDTH 26 0
BBX 21 22 2 -3
BITMAP
000800
0C0C00
1C0FC0
3C3F80
387C00
703B80
7031C0
F861F8
D87FF8
99F980
1BC1C0
1801C0
1879C0
1999C0
1999C0
19B9C0
18C1C0
1801C0
1801C0
180BC0
180780
000200
ENDCHAR
STARTCHAR uni501B
ENCODING 20507
SWIDTH 1000 0
DWIDTH 26 0
BBX 21 22 2 -3
BITMAP
000180
062180
0E71C0
1E7FF0
3DFFF0
78F980
706180
F86D80
F87D80
D86180
986980
307D80
306180
3063F0
33FFF8
33FF80
3BF800
3871C0
18E0E0
19C0F0
198070
020020
ENDCHAR
STARTCHAR uni501C
ENCODING 20508
SWIDTH 1000 0
DWIDTH 26 0
BBX 22 22 1 -3
BITMAP
020000
061FF8
0E7F1C
1E631C
3C639C
386FDC
787F9C
78671C
F847FC
D8FFDC
18FC1C
18C01C
18DFDC
18DEDC
18D8DC
1899DC
199B9C
199F1C
19081C
19007C
080078
000020
ENDCHAR
STARTCHAR uni501E
ENCODING 20510
SWIDTH 1000 0
DWIDTH 26 0
BBX 20 21 3 -3
BITMAP
041C00
0E0E00
1E3FE0
3FFFE0
39FE00
71C000
780FC0
F8FFC0
F8F1C0
98E1C0
18E380
307F80
307C00
300C00
310CC0
3B8CE0
1B0C70
1B0C70
180C60
183C00
103800
ENDCHAR
STARTCHAR uni501F
ENCODING 20511
SWIDTH 1000 0
DWIDTH 26 0
BBX 21 22 2 -3
BITMAP
000180
062180
0E33C0
1E7FE0
1EFFE0
3CFF80
783300
783300
F87FF8
DBFFF8
9BE000
192180
187F80
1871C0
1861C0
186DC0
187FC0
1861C0
1861C0
187FC0
187F80
000300
ENDCHAR
STARTCHAR uni5020
ENCODING 20512
SWIDTH 1000 0
DWIDTH 26 0
BBX 21 21 2 -2
BITMAP
001000
063900
0E7B80
1E7380
3CE180
79C7F0
71DFE0
FBCF00
FAC380
D8C7E0
98DFC0
30CF00
30C3E0
30C7E0
30DFC0
30C700
38C300
38FFF8
18FFF8
18F830
18C000
ENDCHAR
STARTCHAR uni5021
ENCODING 20513
SWIDTH 1000 0
DWIDTH 26 0
BBX 21 21 2 -3
BITMAP
031060
073FE0
0F3FE0
1E3860
3C38E0
3C3EE0
7C38C0
7C39C0
6C1F80
CC1F00
0C1010
0C0FF8
0CFF38
0CF038
0CC338
0CDF38
0CC070
0C6070
0C7FF0
0C3FE0
080080
ENDCHAR
STARTCHAR uni5022
ENCODING 20514
SWIDTH 1000 0
DWIDTH 26 0
BBX 21 22 3 -3
BITMAP
000800
041F80
0EFF80
1EFC00
3C1C00
38FF80
78F8C0
F81FF0
F9FFE0
FBF980
981B80
187F80
30FC00
301800
30DFC0
30DF80
39D800
19F800
1B7C00
1A3F80
1C0FF8
1001E0
ENDCHAR
STARTCHAR uni5023
ENCODING 20515
SWIDTH 1000 0
DWIDTH 26 0
BBX 22 20 2 -2
BITMAP
0C0180
1CC180
3CE380
786380
70F338
F7FFF8
F7E7E0
F3C7E0
B1C660
31BC60
31FE60
333740
3333C0
3333C0
3631C0
3E71F0
3EE7F8
3DEC7C
31803C
100000
ENDCHAR
STARTCHAR uni5025
ENCODING 20517
SWIDTH 1000 0
DWIDTH 26 0
BBX 22 21 1 -2
BITMAP
020400
070700
0F0300
0F03F8
1EFFFC
3CF03C
38C01C
7CC180
6CD900
4CB9F0
8C30E0
0C6000
0C01C0
0C3FE0
0C3FC0
0C1700
0C0700
0C0600
0C1FF8
0CFFFC
0CFF00
ENDCHAR
STARTCHAR uni5026
ENCODING 20518
SWIDTH 1000 0
DWIDTH 26 0
BBX 22 21 2 -3
BITMAP
040C00
0E0CC0
1E8DC0
3CDB00
381F00
78FF80
78FF00
F86780
D87FC0
DBFFC0
19E1C0
198FE0
19FFF0
19F3F8
1A637C
1A6338
184E00
184400
186300
187F80
183F80
ENDCHAR
STARTCHAR uni5027
ENCODING 20519
SWIDTH 1000 0
DWIDTH 26 0
BBX 21 22 2 -3
BITMAP
001800
061C00
0E0E00
1E0FF0
3DFC30
798078
718000
F99F00
F93E00
D80000
9801C0
307FC0
30FF00
300C00
300E00
310E60
398E30
398E30
198E30
180E00
183C00
003000
ENDCHAR
STARTCHAR uni5028
ENCODING 20520
SWIDTH 1000 0
DWIDTH 26 0
BBX 21 22 2 -3
BITMAP
020000
061FE0
0E7E60
1E3060
3C60C0
7861C0
787FC0
F87F00
D8E300
98C780
18DFF8
18FFF8
19FF00
198600
1987E0
197FF0
1B7C70
1A7060
1A30E0
1839E0
181FE0
101C00
ENDCHAR
STARTCHAR uni5029
ENCODING 20521
SWIDTH 1000 0
DWIDTH 26 0
BBX 21 22 2 -3
BITMAP
040C00
0E0F80
1E3F80
3C3C00
3C0F80
783F80
783C00
F80FF8
F8FFF8
D9F800
19C180
183F80
1831C0
186DC0
187CC0
1860C0
187CC0
187CC0
1860C0
1861C0
1847C0
080380
ENDCHAR
STARTCHAR uni502A
ENCODING 20522
SWIDTH 1000 0
DWIDTH 26 0
BBX 23 21 2 -3
BITMAP
060400
0E7DE0
1EF9F0
1EC070
3CC070
78D3F0
78FB70
7CE060
F860E0
D86FE0
987FC0
183980
181A00
183700
183600
186600
18C604
19860E
1D871E
0803FC
0000F0
ENDCHAR
STARTCHAR uni502B
ENCODING 20523
SWIDTH 1000 0
DWIDTH 26 0
BBX 22 20 2 -2
BITMAP
040C00
0C1E00
1C3F00
3C3780
3861C0
78C7F0
79FF78
F97E3C
FA3000
D80000
987FE0
1BF670
1BA670
1B3F70
1BFE70
1B6470
192470
1924E0
1903C0
180180
ENDCHAR
STARTCHAR uni502C
ENCODING 20524
SWIDTH 1000 0
DWIDTH 26 0
BBX 21 22 2 -3
BITMAP
000C00
060FC0
0E0FC0
1E0E00
3C0C00
780FE0
78FE60
F8F060
F8CE60
D8DCE0
18C0C0
186F80
187E00
182E00
180FF8
18FFF8
1BFE08
198E00
180E00
180E00
180600
000400
ENDCHAR
STARTCHAR uni502D
ENCODING 20525
SWIDTH 1000 0
DWIDTH 26 0
BBX 22 22 2 -3
BITMAP
000380
063F80
0E7F00
1E1C00
3C0FC0
783FE0
78FF80
78FC00
F83F00
D87FF0
186C70
188000
181000
187FFC
1BFFFC
1A6300
186300
187E00
181F80
1819C0
18E0E0
000040
ENDCHAR
STARTCHAR uni502F
ENCODING 20527
SWIDTH 1000 0
DWIDTH 26 0
BBX 23 21 1 -3
BITMAP
046000
0EE1C0
0EE0E0
1CE060
3CF260
39F670
33E670
7BCC38
78C81C
78D18E
D9F180
1BFB80
1AD300
1CC730
18C638
18C7F8
18CFF8
18CF18
18C000
184000
180000
ENDCHAR
STARTCHAR uni5030
ENCODING 20528
SWIDTH 1000 0
DWIDTH 26 0
BBX 22 22 2 -3
BITMAP
000C00
040C00
0E1F80
1E7F80
3C7C00
381C30
781FF8
78FFE0
FBFB80
F9F180
98E1F0
10D0E0
311900
303F80
30F380
30E300
38FB00
199F00
198F00
190FE0
183BF8
10C0F4
ENDCHAR
STARTCHAR uni5031
ENCODING 20529
SWIDTH 1000 0
DWIDTH 26 0
BBX 22 21 2 -3
BITMAP
0647C0
0EFEC0
1EF0C0
3CC0C0
78FDC0
70F9C0
F84180
F84300
D87E00
987000
308200
3187E0
31F7E0
31E600
318600
398600
399608
19E71C
1BC3F8
1B83F8
010000
ENDCHAR
STARTCHAR uni5033
ENCODING 20531
SWIDTH 1000 0
DWIDTH 26 0
BBX 21 23 2 -4
BITMAP
001800
061FF0
0FFFF0
1FF800
3C1FC0
79FDC0
71DD80
F8FE00
F8FC00
D83FC0
39FCE0
31DDF0
307FF8
33FDC0
371D80
303FC0
31FC80
399C00
181800
181800
187800
007000
002000
ENDCHAR
STARTCHAR uni5035
ENCODING 20533
SWIDTH 1000 0
DWIDTH 26 0
BBX 22 22 2 -3
BITMAP
000200
060770
0E1370
1EF330
1CF300
3C0300
7807E0
783FE0
F9FF80
F9FB00
987380
183180
183F80
193D80
19B180
19B0C0
19BCC0
19BCE0
19F864
19E078
198038
00001C
ENDCHAR
STARTCHAR uni5037
ENCODING 20535
SWIDTH 1000 0
DWIDTH 26 0
BBX 23 22 2 -3
BITMAP
000800
0E0C00
0E1FC0
1E7F80
3DFE00
78F600
706380
F863C0
F8FDE0
D8FCF0
998078
39803C
337F8E
327F80
3C0C00
380C40
398C60
398C20
198C20
180C00
183C00
001800
ENDCHAR
STARTCHAR uni503C
ENCODING 20540
SWIDTH 1000 0
DWIDTH 26 0
BBX 21 22 2 -3
BITMAP
020600
070600
0F07C0
1E7FC0
3C7F80
383C00
780C80
787FC0
F87CC0
D860C0
186EC0
187CC0
1860C0
187EC0
1878C0
1860C0
187EC0
1860C0
1860E0
19FFF8
1BFFF8
010000
ENDCHAR
STARTCHAR uni5040
ENCODING 20544
SWIDTH 1000 0
DWIDTH 26 0
BBX 21 20 2 -2
BITMAP
0600C0
0F30E0
0E79F0
1EF1C0
3C7100
381400
7C0600
7C1FE0
78FE60
98ECE0
18CCE0
18CCC0
184FF0
18FFF8
19FC00
199800
1831C0
1C20E0
1C6060
084060
ENDCHAR
STARTCHAR uni5041
ENCODING 20545
SWIDTH 1000 0
DWIDTH 26 0
BBX 22 23 2 -4
BITMAP
000380
040F90
0C1030
1D8070
3DD8C0
78C900
70C400
F84E00
D80FE0
98FE60
30CC60
30CF60
30BF70
31BE70
318C70
318FFC
33FFF8
33F070
398070
398070
1981E0
1080E0
000080
ENDCHAR
STARTCHAR uni5043
ENCODING 20547
SWIDTH 1000 0
DWIDTH 26 0
BBX 22 21 2 -3
BITMAP
063FE0
0EFFC0
1E7800
3C00C0
78DFC0
70D8C0
F8DFC0
D9DCC0
99D980
198E00
1984C0
19CFFC
19FD80
19DD80
198F80
1887C0
188860
18C060
18DFF8
18FFF8
004000
ENDCHAR
STARTCHAR uni5045
ENCODING 20549
SWIDTH 1000 0
DWIDTH 26 0
BBX 22 22 2 -3
BITMAP
000080
0607C0
0E1F80
1E0600
1E0FF8
3CFFF8
38FE00
7C07F0
7C7F30
7C7E30
DC6770
186F60
186EE0
1877C0
183F00
182600
183FC0
1C7F80
1C0600
1C3FF8
09FFFC
00C000
ENDCHAR
STARTCHAR uni5046
ENCODING 20550
SWIDTH 1000 0
DWIDTH 26 0
BBX 22 23 2 -4
BITMAP
040C00
0E0FC0
0E3FC0
1CFE00
3CF800
381F80
70FF00
78FE00
F83360
F87FF0
DBFFF0
1BE1E0
1BC0F0
198278
19FF3C
1B6314
1A6300
187B00
187300
186300
187F00
103F00
000400
ENDCHAR
STARTCHAR uni5047
ENCODING 20551
SWIDTH 1000 0
DWIDTH 26 0
BBX 22 21 2 -3
BITMAP
0C0000
0C83E0
1DFBE0
3DDA60
3990C0
71B0C0
79F3C0
D9C300
990000
1933E0
11F660
318C60
310E40
3163C0
31E3C0
3981C0
3903E0
190E78
19383C
190000
100000
ENDCHAR
STARTCHAR uni5048
ENCODING 20552
SWIDTH 1000 0
DWIDTH 26 0
BBX 21 22 2 -3
BITMAP
022180
063FC0
0E31C0
1E61C0
3C6DC0
387DC0
786180
782180
D83F80
983C00
183000
18CFF0
199C38
199838
199E38
19A138
19C030
18FE70
18F870
1800E0
1803E0
000300
ENDCHAR
STARTCHAR uni5049
ENCODING 20553
SWIDTH 1000 0
DWIDTH 26 0
BBX 21 22 2 -3
BITMAP
040800
0C3F80
1C7FC0
3C3980
381BF0
783FF8
7BFF10
FBC000
F81FC0
D87980
186380
187E00
182600
180F80
187E00
186E20
187FF0
1BFFF0
1BCE00
180E00
180400
000400
ENDCHAR
STARTCHAR uni504A
ENCODING 20554
SWIDTH 1000 0
DWIDTH 26 0
BBX 21 22 2 -3
BITMAP
000080
0207C0
073FC0
0F7E00
1E0700
1CFFE0
3CFC60
38E440
78E4C0
787FC0
783E00
981C10
180FF8
19FF18
19FC18
1BCC98
19CFD8
19FE78
19C038
18C078
0880F0
0000C0
ENDCHAR
STARTCHAR uni504B
ENCODING 20555
SWIDTH 1000 0
DWIDTH 26 0
BBX 22 22 2 -3
BITMAP
001FC0
021C60
072060
0F30C0
1F33C0
1E3F80
3C7C30
786060
7864C0
7864F0
F8CFF0
98DFE0
18DE60
198460
198FFC
191FFC
197C60
1A6C60
1A0860
180860
080840
000040
ENDCHAR
STARTCHAR uni504C
ENCODING 20556
SWIDTH 1000 0
DWIDTH 26 0
BBX 20 22 3 -3
BITMAP
000080
0C0180
1E61E0
1CFBF0
3DF300
78E200
702C00
F80C00
F81DE0
D87FF0
9BFFF0
1BF000
106000
10F7C0
10FFE0
11FDE0
1931C0
1B31C0
1831C0
183F80
181F80
100000
ENDCHAR
STARTCHAR uni504D
ENCODING 20557
SWIDTH 1000 0
DWIDTH 26 0
BBX 22 22 2 -3
BITMAP
000100
023F80
0731C0
0F31C0
1F3D80
1E3980
3C2180
783380
783F00
783000
F801F0
987FF0
19FF00
18CE00
180F80
186FC0
18EE00
18FE00
193E00
191F80
080FF8
0003FC
ENDCHAR
STARTCHAR uni504E
ENCODING 20558
SWIDTH 1000 0
DWIDTH 26 0
BBX 22 21 2 -3
BITMAP
0CFFC0
1FFCE0
1DC8C0
398EC0
79BDC0
71C980
F8CF80
D8FF00
987000
3003F8
33FFF0
37FC00
33CE60
30C7E0
30C380
30C3C0
30C1E0
38C8F0
38F078
19E03C
118000
ENDCHAR
STARTCHAR uni504F
ENCODING 20559
SWIDTH 1000 0
DWIDTH 26 0
BBX 21 22 2 -3
BITMAP
000180
060780
0F0E00
1E7000
1E7FE0
3C7E60
787060
7861C0
78C7C0
D8FE00
98F000
188000
19DFF8
19F918
19C918
19CFD8
1BFF38
1A7938
1A4B38
1849F0
1840E0
000040
ENDCHAR
STARTCHAR uni5051
ENCODING 20561
SWIDTH 1000 0
DWIDTH 26 0
BBX 23 20 2 -2
BITMAP
060000
0E07E0
1E3EE0
1ED0E0
3CC0C0
78DEC0
78FCC0
78F8C0
F89FC0
D8FD80
19FB80
19DB80
19FEC0
19F8C0
191BC0
191FC0
1A78C4
1A60FE
18007C
180038
ENDCHAR
STARTCHAR uni5053
ENCODING 20563
SWIDTH 1000 0
DWIDTH 26 0
BBX 22 22 2 -3
BITMAP
000400
033FE0
071860
0F18E0
1E19C0
3C3F80
383E00
783040
7823E0
786F80
D86300
186260
18C6F0
18CFF0
188F80
1981E0
1987C0
190780
190180
1A1FFC
183FFC
001800
ENDCHAR
STARTCHAR uni5055
ENCODING 20565
SWIDTH 1000 0
DWIDTH 26 0
BBX 22 22 2 -3
BITMAP
040100
0C8180
1CC3F0
3CF3F0
38E3C8
78C308
78830C
F8B3BC
F8E1FC
DBCCF0
198C00
183380
187FC0
1871C0
1861C0
187FC0
187DC0
1861C0
1861C0
187FC0
187B80
002300
ENDCHAR
STARTCHAR uni5057
ENCODING 20567
SWIDTH 1000 0
DWIDTH 26 0
BBX 20 22 3 -3
BITMAP
000800
0E1C00
0E0CC0
1E8DE0
3CDFF0
7D9F20
789E00
F81C00
F81800
F03F80
F078C0
30E0C0
31E4C0
33FCC0
3370C0
3660C0
387EC0
3070C0
3060C0
3861C0
107FC0
007180
ENDCHAR
STARTCHAR uni505A
ENCODING 20570
SWIDTH 1000 0
DWIDTH 26 0
BBX 23 21 2 -3
BITMAP
0C4080
1CE180
1CE180
38E300
78E330
70F7F8
F9F7F0
F3F7C0
F3C8C0
B0D8C0
30DCC0
37FEC0
37F780
363380
3633C0
36F3E0
33C7F0
303C78
38003C
18001E
100000
ENDCHAR
STARTCHAR uni505B
ENCODING 20571
SWIDTH 1000 0
DWIDTH 26 0
BBX 21 20 2 -2
BITMAP
0203C0
073FC0
0F3F00
1E0700
1C0720
3C3FF0
38FFF0
78C600
780600
7806F8
98F6F8
19C618
198618
19A6F8
19F6B8
18C638
18C630
18CFF0
18FFF0
0860E0
ENDCHAR
STARTCHAR uni505C
ENCODING 20572
SWIDTH 1000 0
DWIDTH 26 0
BBX 22 24 2 -4
BITMAP
000800
040E00
0C0FC0
1CFF80
3CF800
382780
703D80
787180
F83300
F83E00
D81010
183FF8
1BF01C
13C1EC
133FC0
133E00
130600
180600
180600
180600
180E00
103E00
003C00
001000
ENDCHAR
STARTCHAR uni505D
ENCODING 20573
SWIDTH 1000 0
DWIDTH 26 0
BBX 21 23 2 -4
BITMAP
003180
003380
06F3E0
0FF3E0
1E3300
1C3308
3CF338
7BF3F8
7920C0
780100
787F80
987380
186180
187D80
18F1C0
18C1C0
18F9C0
18F1C0
18C1C0
18C1C0
08C780
000700
000200
ENDCHAR
STARTCHAR uni505E
ENCODING 20574
SWIDTH 1000 0
DWIDTH 26 0
BBX 21 22 2 -3
BITMAP
040260
0E36E0
0E36E0
1C76F8
3C7FF8
39FFC0
71F6C0
7867C0
F86700
F82040
D83FC0
183F00
180730
183FF8
18FFF8
18F700
180330
18C738
188718
188718
181E00
100C00
ENDCHAR
STARTCHAR uni505F
ENCODING 20575
SWIDTH 1000 0
DWIDTH 26 0
BBX 21 23 2 -3
BITMAP
000200
000700
060C00
0E1840
1E7FE0
1E7CE0
3C60E0
386EE0
7C7CC0
7C67C0
7C3F80
DC2000
1800C0
187FC0
187F00
180400
181FC0
187FC0
1C3C00
1C0C00
1CFFF8
09FFF8
008000
ENDCHAR
STARTCHAR uni5060
ENCODING 20576
SWIDTH 1000 0
DWIDTH 26 0
BBX 21 20 2 -2
BITMAP
061F80
0E7F80
1E3100
1C17E0
3C3F60
79FA60
79D260
F997E0
D9BEC0
98A000
181880
181BF8
18FFF8
1BF180
196300
187F00
181F80
180FE0
1838E0
18C060
ENDCHAR
STARTCHAR uni5061
ENCODING 20577
SWIDTH 1000 0
DWIDTH 26 0
BBX 22 22 2 -3
BITMAP
001180
0619C0
0E3FE0
1E7FC0
1C7DC0
3C31C0
3835C0
783D80
783180
783580
D83F80
983180
1833FC
18FFFC
1BFD80
1BE070
18EC30
18E710
18E600
18E060
187FE0
087F80
ENDCHAR
STARTCHAR uni5062
ENCODING 20578
SWIDTH 1000 0
DWIDTH 26 0
BBX 22 21 2 -3
BITMAP
0C0080
0C38C0
1CF8C0
3CE0C0
3860C8
7060D8
78FDF0
DBFDC0
9BE580
18E580
11F980
31F9C0
3161C0
336360
326370
3C6670
386438
18683C
18601C
184000
100000
ENDCHAR
STARTCHAR uni5063
ENCODING 20579
SWIDTH 1000 0
DWIDTH 26 0
BBX 21 22 2 -3
BITMAP
000E00
020600
0707E0
0F7FE0
1F7F00
1E0040
3C10C0
781980
781BF8
78FFF8
F9FC00
98C000
1811C0
183FC0
1838E0
1830E0
183EE0
183CE0
1830E0
1830E0
083FC0
0011C0
ENDCHAR
STARTCHAR uni5064
ENCODING 20580
SWIDTH 1000 0
DWIDTH 26 0
BBX 21 22 2 -3
BITMAP
040040
0E00C0
0E6180
1C6200
3C2670
387FF8
73FF00
799B00
F81B00
F87FE0
D8FE60
18D260
18DE60
18BE60
188060
199F60
19BE60
198060
19FFE0
19FFE0
1880E0
100080
ENDCHAR
STARTCHAR uni5065
ENCODING 20581
SWIDTH 1000 0
DWIDTH 26 0
BBX 22 22 2 -3
BITMAP
000300
0C03E0
1C0F30
3C0F38
3803F8
79DFE0
73CF60
F7C7E0
F18F00
F103C0
31C7C0
32CF00
30C3F0
30C7F0
37CF00
33C300
31E300
31FA00
3E1F00
380FE0
1007FC
1001F0
ENDCHAR
STARTCHAR uni5068
ENCODING 20584
SWIDTH 1000 0
DWIDTH 26 0
BBX 21 23 3 -4
BITMAP
002200
0C6300
1E7300
1C7BC0
3C6780
7B6600
736600
F37A18
F17338
F3E3F0
B7C8E0
330C00
300C20
30FFF0
33FFF0
33CC00
300C00
318C60
318C60
318C60
31BC20
101800
001000
ENDCHAR
STARTCHAR uni5069
ENCODING 20585
SWIDTH 1000 0
DWIDTH 26 0
BBX 20 22 2 -3
BITMAP
000C00
061CC0
0F3FC0
0F7180
1E4300
3C07C0
387FE0
787860
7CE070
6CFE70
CCFC70
8CE070
18FE70
18FC70
18E070
18E3F0
18FFE0
1C7C40
0C3980
0C30E0
0C60F0
084060
ENDCHAR
STARTCHAR uni506A
ENCODING 20586
SWIDTH 1000 0
DWIDTH 26 0
BBX 21 22 2 -3
BITMAP
000380
0E3F80
0E3F80
1E1E00
3C0000
380FC0
787FC0
7879C0
F86180
D87380
987F00
183C00
180070
181FB8
19FC38
198E38
198F38
19BE70
18CC70
18CFF0
187FE0
000080
ENDCHAR
STARTCHAR uni506B
ENCODING 20587
SWIDTH 1000 0
DWIDTH 26 0
BBX 22 22 2 -3
BITMAP
040180
0C31C0
1CF1E0
3CC7E0
398780
711180
7271FC
F8F7FC
F9FF00
D9DCC0
1BC0F8
13C3F8
16CFE0
10CC60
10C060
10CC60
10CE60
18C6E0
18C0E0
18C0E0
18C1C0
100180
ENDCHAR
STARTCHAR uni506D
ENCODING 20589
SWIDTH 1000 0
DWIDTH 26 0
BBX 22 20 2 -2
BITMAP
060000
0E01E0
1E3FE0
3CFFE0
387E00
780C00
781800
F81800
D83FF8
99FF98
19F91C
199F1C
199D1C
19991C
199F18
199938
19DFB8
18FFF8
18E0F0
180000
ENDCHAR
STARTCHAR uni506E
ENCODING 20590
SWIDTH 1000 0
DWIDTH 26 0
BBX 21 22 2 -3
BITMAP
0003C0
027DC0
0760C0
0F6180
1F3F80
1E1060
3C1FE0
78FFC0
78F0C0
7823C0
F87FC0
9860C0
1861C0
187FC0
1860C0
1860D0
187FF8
1BFFF8
1980C0
1800C0
080080
000080
ENDCHAR
STARTCHAR uni506F
ENCODING 20591
SWIDTH 1000 0
DWIDTH 26 0
BBX 21 22 2 -3
BITMAP
003000
0E1880
0E3FC0
1FFF80
3FF000
380000
70FF80
78F980
F8C100
F8C300
D8CF00
107E00
1070E0
1078C0
107D00
10E700
19E380
19E3E0
1A60F8
187870
187000
10E000
ENDCHAR
STARTCHAR uni5070
ENCODING 20592
SWIDTH 1000 0
DWIDTH 26 0
BBX 21 22 2 -3
BITMAP
003000
023800
077BF0
0FF1B0
1F31B0
1E3930
3CF930
787330
783A30
787270
F8F0E0
D9F040
183600
180FF0
187FF8
19FFB8
19F800
183180
1820E0
186060
084070
000060
ENDCHAR
STARTCHAR uni5072
ENCODING 20594
SWIDTH 1000 0
DWIDTH 26 0
BBX 21 19 3 -2
BITMAP
040080
0EFFC0
1DFCC0
3D88C0
799FC0
71FFC0
70D980
F0C980
B0DF00
307C00
3000E0
300878
304E10
314600
336000
322000
323870
321FF0
300FE0
ENDCHAR
STARTCHAR uni5073
ENCODING 20595
SWIDTH 1000 0
DWIDTH 26 0
BBX 21 22 2 -3
BITMAP
000600
060620
0E6660
1E6660
1E6FE0
3C7FE0
787C00
780000
780FC0
F8FFE0
D8FC00
980C00
181FF8
19FB38
19F338
199338
199338
199238
199230
1883F0
188060
000040
ENDCHAR
STARTCHAR uni5074
ENCODING 20596
SWIDTH 1000 0
DWIDTH 26 0
BBX 22 22 2 -3
BITMAP
0C0018
0E0818
1DFC18
3DCC18
398C98
718D98
79EC98
F98C98
D98C98
99ECD8
19EC98
198C9C
198C1C
19FC1C
19E81C
18C01C
18981C
198C1C
19063C
1A04F8
100070
000040
ENDCHAR
STARTCHAR uni5075
ENCODING 20597
SWIDTH 1000 0
DWIDTH 26 0
BBX 20 22 2 -3
BITMAP
020600
070760
0F07E0
1F07C0
1E0600
3C4660
387FF0
787870
7C6070
ECEE70
CCFE70
0CE070
0CE670
0CFE70
0CE070
0C61F0
0C7FE0
0C7CC0
0C38E0
0C7070
0C4030
088010
ENDCHAR
STARTCHAR uni5076
ENCODING 20598
SWIDTH 1000 0
DWIDTH 26 0
BBX 22 20 2 -2
BITMAP
0C4FF0
1EFF70
1CF470
3CE670
38EF60
786E60
7864C0
F867C0
D87F80
983C00
182438
181FD8
19FC1C
1BEC9C
1BCF9C
19DFD8
19D8F8
19C038
18C0F8
1880F0
ENDCHAR
STARTCHAR uni5077
ENCODING 20599
SWIDTH 1000 0
DWIDTH 26 0
BBX 20 22 3 -3
BITMAP
000C00
0C1C00
1E3C00
1C7F00
3CE380
79CFC0
71FDF0
FA7070
F80000
D8B0C0
99F2C0
199AC0
119A60
11DA60
111A60
119A60
19DAE0
1918E0
1918E0
1938E0
1939C0
113180
ENDCHAR
STARTCHAR uni507A
ENCODING 20602
SWIDTH 1000 0
DWIDTH 26 0
BBX 21 21 2 -3
BITMAP
0E4420
1E7E60
1CFC60
3C8CC0
799CC0
71D9E0
7BF1B0
FA7B10
D87E00
D0DF00
10C7C0
1183F0
1103F8
12FF80
10C180
11C180
11F980
19C1C0
19C7C0
19FF80
108100
ENDCHAR
STARTCHAR uni507D
ENCODING 20605
SWIDTH 1000 0
DWIDTH 26 0
BBX 22 22 2 -3
BITMAP
0C0300
0C0E60
1C98E0
3DC980
38CF00
70EC00
707F00
F83D80
F06100
D06380
90DCC0
1191C0
118390
131FF8
16FC1C
1F249C
1B369C
11B018
118038
1081F8
1001F0
000080
ENDCHAR
STARTCHAR uni5080
ENCODING 20608
SWIDTH 1000 0
DWIDTH 26 0
BBX 23 22 2 -3
BITMAP
040C00
0C1C00
1E3C60
1CFFE0
38FE60
78EC60
70CF60
F8DEE0
F8DCC0
D8CDC0
187F80
187C00
183800
183340
1866F0
18E690
18C7F4
198406
1A061E
1807FC
1803F8
100000
ENDCHAR
STARTCHAR uni5082
ENCODING 20610
SWIDTH 1000 0
DWIDTH 26 0
BBX 22 22 2 -3
BITMAP
000080
061FC0
0E7F00
1E6320
3C63E0
384300
784270
78D7B8
F8DF20
D893E0
98B3C0
19BF00
19B360
1923C0
196000
1B6D80
1B4980
1AD900
1A9908
1C919C
1821F8
000070
ENDCHAR
STARTCHAR uni5083
ENCODING 20611
SWIDTH 1000 0
DWIDTH 26 0
BBX 20 23 3 -4
BITMAP
000800
0C3F80
1EFE00
3C5C00
383F00
787800
781BE0
F8FFF0
FBF000
DB3300
18E700
11CE00
107900
103180
107FC0
19FC40
198C00
180C80
198CC0
198C60
199C40
003800
001000
ENDCHAR
STARTCHAR uni5085
ENCODING 20613
SWIDTH 1000 0
DWIDTH 26 0
BBX 21 23 2 -4
BITMAP
040F00
0C3F30
1E7E10
1C0C00
381F80
787D80
70CD80
F8BDC0
F88DC0
D8BFC0
18BDC0
188B80
180780
181FF8
1BFFF0
1BC300
180300
18E300
186300
180700
181F00
100E00
000800
ENDCHAR
STARTCHAR uni5087
ENCODING 20615
SWIDTH 1000 0
DWIDTH 26 0
BBX 22 22 2 -3
BITMAP
0000C0
0638F0
0E79F0
1EF1C0
3C1100
3812C0
783FE0
787FC0
7871C0
D83DC0
1839C0
183180
183FC0
1839C0
1831D0
1837FC
187FFC
19F1C0
1981C0
180180
080080
000100
ENDCHAR
STARTCHAR uni508B
ENCODING 20619
SWIDTH 1000 0
DWIDTH 26 0
BBX 22 23 2 -4
BITMAP
000980
061FE0
0E7FC0
1E7980
1E1FC0
3C3FC0
383B00
7C1FF8
7CFFF8
7DFE00
DD87C0
183F60
183660
186760
186F60
186E60
1866F8
1CFFFC
1DFE70
1DE060
0861E0
0040C0
000080
ENDCHAR
STARTCHAR uni508C
ENCODING 20620
SWIDTH 1000 0
DWIDTH 26 0
BBX 21 22 2 -3
BITMAP
002000
0677C0
0E7FC0
1E7F00
3C6300
386F80
78FF00
78EF00
F8E380
D8FF80
98FF00
18E300
18E7D8
18FFF8
187018
190498
1BB698
199038
198038
188070
1803F0
0003C0
ENDCHAR
STARTCHAR uni508D
ENCODING 20621
SWIDTH 1000 0
DWIDTH 26 0
BBX 21 24 2 -4
BITMAP
000800
040C00
0C0F80
1C7FC0
3C7C00
380180
703380
781210
F91FF8
DBF038
9BCC38
1B0E00
1B0FC0
1B7EC0
1B6C00
181DC0
1838C0
1830C0
1860C0
18C0C0
1981C0
101F80
001F00
000800
ENDCHAR
STARTCHAR uni508E
ENCODING 20622
SWIDTH 1000 0
DWIDTH 26 0
BBX 22 23 2 -4
BITMAP
000600
060780
0E3FC0
1E7F80
1C3C00
3C0C80
787FC0
7870C0
7866C0
F87CC0
D860C0
187EC0
1870C0
1864C0
187EC0
1860C0
18FFFC
1BFFFC
1BF000
1871C0
1860E0
08C060
000020
ENDCHAR
STARTCHAR uni5091
ENCODING 20625
SWIDTH 1000 0
DWIDTH 26 0
BBX 22 22 2 -3
BITMAP
0000C0
0C40C0
1EE8E0
1CF9E0
3CDBC0
7938C0
7934F0
7BE7F0
F8EFC0
D8CCC0
988680
1906F8
181FFC
19FFB8
1BF600
1B8660
180670
18C630
188630
188630
189E00
001C00
ENDCHAR
STARTCHAR uni5092
ENCODING 20626
SWIDTH 1000 0
DWIDTH 26 0
BBX 22 22 2 -3
BITMAP
000380
060F80
0E1030
1E8C70
1CC4C0
38E100
786800
7819C0
787380
F87700
D81CE0
181CF0
187FF0
18E400
180FF8
18FFFC
1BFFB8
1BB000
1831C0
1860E0
184060
180060
ENDCHAR
STARTCHAR uni5094
ENCODING 20628
SWIDTH 1000 0
DWIDTH 26 0
BBX 22 22 2 -3
BITMAP
0010C0
073180
0F1100
0F1FE0
1E7FE0
3C7F00
780B60
783FF0
787F30
F81BFC
D8FFFC
1BFB60
1993F0
183FE0
187F00
183300
181330
191318
199318
191308
191700
081200
ENDCHAR
STARTCHAR uni5095
ENCODING 20629
SWIDTH 1000 0
DWIDTH 26 0
BBX 21 21 3 -3
BITMAP
0C0380
1E0700
1D9FF0
3DFE70
799878
71B880
F9B700
F96300
D8EFC0
90DF80
11CF00
11C380
13DF80
13CF00
14C380
10CFC0
18C700
18C7F0
18FFF8
18FF00
10C000
ENDCHAR
STARTCHAR uni5096
ENCODING 20630
SWIDTH 1000 0
DWIDTH 26 0
BBX 22 22 2 -3
BITMAP
000800
041C00
0E3E00
1E6F00
3CC3C0
38F9E0
7981F0
7B5FFC
FA7DBC
F86180
D8FD80
18F300
18CF00
18FE00
19E000
198780
197FC0
1B79C0
1A7180
1A3380
183F80
101000
ENDCHAR
STARTCHAR uni5098
ENCODING 20632
SWIDTH 1000 0
DWIDTH 26 0
BBX 21 22 3 -3
BITMAP
00C000
01F000
033800
071E00
0ECF00
1CE780
38E7C0
76EFF0
6EFCF8
CBF660
80E200
06E600
0CEE00
1CFB00
16E000
03FFC0
3FFFC0
7CE000
00E000
00C000
00C000
008000
ENDCHAR
STARTCHAR uni5099
ENCODING 20633
SWIDTH 1000 0
DWIDTH 26 0
BBX 21 22 2 -3
BITMAP
000100
0619C0
0E1FE0
1E7FE0
1CFF80
3C7300
3833F8
7C3FF8
7BFF80
7BF800
D87FC0
18FE60
18F660
19E760
196E60
1A6470
1867F0
187F70
186470
186470
0866E0
0805C0
ENDCHAR
STARTCHAR uni509A
ENCODING 20634
SWIDTH 1000 0
DWIDTH 26 0
BBX 24 21 1 -3
BITMAP
046040
0E70E0
1C38E0
1C3DC0
38FDDC
3BF1F8
7923F0
781B30
F8CF20
D98660
1B1E60
1E3F60
1933E0
19F1E0
18E1C0
18F1E0
1987F0
1E1C7C
18003E
18001F
080000
ENDCHAR
STARTCHAR uni509B
ENCODING 20635
SWIDTH 1000 0
DWIDTH 26 0
BBX 22 22 2 -3
BITMAP
001800
061C00
0E0E20
1EFFF0
3DEC70
3980B0
799300
79B180
786180
D80C00
181E00
183380
1861C0
18E0E0
18C7F0
19FFF8
1BF9DC
1A6180
1C6380
187780
183F80
003000
ENDCHAR
STARTCHAR uni509C
ENCODING 20636
SWIDTH 1000 0
DWIDTH 26 0
BBX 21 22 2 -3
BITMAP
000400
021C20
063FF0
0E7060
1E78C0
3CDF80
38EF00
787C00
783800
78F9C0
D87FC0
987F00
18C778
180FF8
19FFC0
19FE00
180630
186630
186630
186FF0
18FFF0
006020
ENDCHAR
STARTCHAR uni509D
ENCODING 20637
SWIDTH 1000 0
DWIDTH 26 0
BBX 21 22 2 -3
BITMAP
0001C0
067FE0
0F7C60
0E6060
1E7E60
3C7CC0
3831C0
783F00
781800
F800F0
D813B8
19F838
181838
199BB8
18D838
183818
187B98
1BD8B8
191838
183838
1870F0
006060
ENDCHAR
STARTCHAR uni509E
ENCODING 20638
SWIDTH 1000 0
DWIDTH 26 0
BBX 21 22 2 -3
BITMAP
0400C0
0E31C0
0E3100
1E33C0
3C3FE0
38FF80
786C00
780F80
F87FC0
D87C00
180FF0
18FFF8
1BFFF0
1BF000
1877C0
187FC0
18DE00
198600
190700
1A7FF0
18FFF0
084000
ENDCHAR
STARTCHAR uni50A2
ENCODING 20642
SWIDTH 1000 0
DWIDTH 26 0
BBX 21 22 3 -3
BITMAP
001800
0C1C00
1C1C60
3DFFE0
3DC0F0
798100
719F00
F9FE00
F87000
F06000
B0F1C0
31BB80
327C00
30CC00
319E00
323F00
306FC0
30CDE0
390CF8
3A1C00
107C00
103800
ENDCHAR
STARTCHAR uni50A3
ENCODING 20643
SWIDTH 1000 0
DWIDTH 26 0
BBX 21 22 3 -4
BITMAP
0C1800
1C1F80
1DFF80
3DF800
781B00
703F00
F0FE00
F07600
F07FE0
B1FFF0
33E180
33C1E0
31C8F0
31CDF0
33EF78
330C00
320C00
304D00
318DC0
3198C0
003800
001000
ENDCHAR
STARTCHAR uni50AC
ENCODING 20652
SWIDTH 1000 0
DWIDTH 26 0
BBX 21 23 2 -4
BITMAP
000620
044670
0EC670
1CC6F0
1CDFE0
38FE00
387700
783380
7873E0
58FFC0
99EF80
19E1C0
19E7C0
1B6F80
1B6100
1863E0
186FC0
186300
1863F0
187FF8
187FF8
086000
004000
ENDCHAR
STARTCHAR uni50AD
ENCODING 20653
SWIDTH 1000 0
DWIDTH 26 0
BBX 21 22 2 -3
BITMAP
000E00
0E07F0
1E7FE0
1E7F00
3C6760
785FB0
78C7F8
F8DFF8
D8F640
18C7C0
189F20
1987F0
19BE30
19BFB8
193FB8
192638
1B27B8
1B2FB8
1A2638
182638
1823F0
0002E0
ENDCHAR
STARTCHAR uni50AE
ENCODING 20654
SWIDTH 1000 0
DWIDTH 26 0
BBX 21 23 2 -4
BITMAP
000180
061980
0E1BF8
1FFF80
3FD990
3C1FF8
78FF18
79DBB8
F8FF38
F8DB30
D8FFF0
187FE0
180080
182FC0
1878C0
1860C0
186EE0
187EE0
1860E0
1860E0
183FC0
0823C0
000100
ENDCHAR
STARTCHAR uni50AF
ENCODING 20655
SWIDTH 1000 0
DWIDTH 26 0
BBX 22 22 2 -3
BITMAP
040800
0E1C00
0E18C0
1E7F60
3C6060
387460
787DE0
785F60
787660
D84760
985860
186FE0
187FE0
1860C0
180038
18261C
19260C
193000
193030
191C70
180FF0
0007C0
ENDCHAR
STARTCHAR uni50B0
ENCODING 20656
SWIDTH 1000 0
DWIDTH 26 0
BBX 20 21 2 -2
BITMAP
000600
060630
0EC630
1EC630
3CC660
38FFE0
787E00
780000
7891F0
F8F930
989930
19DBB0
19FBF0
199B30
199B30
19FBF0
199B30
191A30
191C30
1A7C30
183060
ENDCHAR
STARTCHAR uni50B1
ENCODING 20657
SWIDTH 1000 0
DWIDTH 26 0
BBX 22 21 2 -2
BITMAP
040000
0C2010
1C6630
3CC670
398EE0
780CE0
786CF0
F8FFB8
F8D190
D98180
1B8380
1A83F0
188BC0
189B80
18BB80
18BF80
18A780
18C380
1881E0
1880F8
18803C
ENDCHAR
STARTCHAR uni50B2
ENCODING 20658
SWIDTH 1000 0
DWIDTH 26 0
BBX 23 22 2 -3
BITMAP
004000
0C6180
1CF380
1FF380
3DE380
387730
79F7F8
79C7E0
F8CFC0
F87CC0
BBF8C0
378CC0
308EC0
31F7C0
31B3C0
3333C0
3A31E0
3C73F0
396EF8
38C07C
18801E
100000
ENDCHAR
STARTCHAR uni50B3
ENCODING 20659
SWIDTH 1000 0
DWIDTH 26 0
BBX 21 22 2 -3
BITMAP
000E00
0C3F00
1E3E00
1C0FE0
3CFF60
39FC60
79CEC0
78DEC0
D8DDC0
98DF00
187F00
186F80
183FC0
18F600
180FF8
19FFB8
1BE380
19F380
183300
180700
180F00
180C00
ENDCHAR
STARTCHAR uni50B4
ENCODING 20660
SWIDTH 1000 0
DWIDTH 26 0
BBX 21 21 2 -2
BITMAP
060000
0EC7F0
1EFFF0
1CCF00
3CC000
78CFE0
79CFE0
79CC60
D9CC60
99CDC0
19CF00
19C008
19C7F8
19FF98
19E398
18F6B0
18DCE0
18C000
18C7F8
18FFF8
187FF0
ENDCHAR
STARTCHAR uni50B5
ENCODING 20661
SWIDTH 1000 0
DWIDTH 26 0
BBX 22 23 2 -4
BITMAP
030600
070FC0
0F3FC0
1E3E00
3C0FC0
383FC0
7C1E00
7C0FFC
CDFFF8
8DF000
0CBFC0
0C30C0
1C3EE0
1C3CE0
1C30E0
1C3CE0
1C31E0
0C3FE0
0C39C0
0C39C0
0C60E0
0C4070
080000
ENDCHAR
STARTCHAR uni50B6
ENCODING 20662
SWIDTH 1000 0
DWIDTH 26 0
BBX 22 22 2 -3
BITMAP
000200
060300
0E0338
1E0338
3C0FD8
38FF80
79FB00
78D300
F89320
F89930
D999B0
1991A0
193DE0
19F1E0
1910E0
1BB6C0
1AD6E0
1A91E0
1A1370
18323C
18701C
00000C
ENDCHAR
STARTCHAR uni50B7
ENCODING 20663
SWIDTH 1000 0
DWIDTH 26 0
BBX 22 22 2 -3
BITMAP
061800
0F3FC0
1E7F80
3EE000
3CA780
7838C0
7C30C0
783CC0
D83180
183F00
1801FC
187FFC
19F000
19B7F0
187FB8
184DB8
189BB8
183330
182670
184C70
180FE0
0803C0
ENDCHAR
STARTCHAR uni50B8
ENCODING 20664
SWIDTH 1000 0
DWIDTH 26 0
BBX 22 22 2 -3
BITMAP
000C00
040C00
0C0F80
1CFFC0
3CFF00
387C40
782FC0
796DC0
F8CDC0
F8EE40
D92C00
180840
1849C0
19D9C0
19DF60
1B5F00
183B00
183380
1871C0
18E1F0
1B80F8
12007C
ENDCHAR
STARTCHAR uni50BA
ENCODING 20666
SWIDTH 1000 0
DWIDTH 26 0
BBX 22 22 2 -3
BITMAP
002000
066860
0EFFF0
1EDE40
3DDE80
397F80
783380
79E1E0
78EFF8
F8FE3C
988000
180000
181FE0
18FFE0
19EC00
180C00
190C60
198C70
198C30
198C30
183C00
003800
ENDCHAR
STARTCHAR uni50BB
ENCODING 20667
SWIDTH 1000 0
DWIDTH 26 0
BBX 22 22 2 -3
BITMAP
041C00
0E3800
1EFFE0
1DFE60
3DC360
79BE60
78CE60
F8D2E0
F8E0C0
D87FC0
187300
183300
1863E0
18D840
183900
187F80
19E300
18F300
19BE00
190F80
181FF0
00E0FC
ENDCHAR
STARTCHAR uni50BD
ENCODING 20669
SWIDTH 1000 0
DWIDTH 26 0
BBX 21 22 2 -3
BITMAP
041C00
0E0FC0
1EFF80
1C7100
3C3330
783FF8
7BFF80
FBC000
F83FC0
D8F8C0
18C6C0
18DDC0
1841C0
187F80
183F00
180C00
180FF8
19FFF8
1BCC00
180C00
180C00
000C00
ENDCHAR
STARTCHAR uni50BE
ENCODING 20670
SWIDTH 1000 0
DWIDTH 26 0
BBX 22 22 2 -3
BITMAP
000070
0607F8
0E0FF0
1E07C0
3C8180
3993F0
79F7F8
79E618
798618
D987D8
99BF18
19EC18
19CFD8
1B8F98
190418
1806F0
1807E0
180700
180670
180C38
18181C
000008
ENDCHAR
STARTCHAR uni50BF
ENCODING 20671
SWIDTH 1000 0
DWIDTH 26 0
BBX 21 22 2 -3
BITMAP
000380
067F80
0E7F00
1E0C00
3C0F80
3C4F00
784C00
785FE0
F9FFE0
FBE000
D86F80
187C00
186038
187FF8
187C18
180198
182698
1B3438
19A038
190070
1803F0
0001E0
ENDCHAR
STARTCHAR uni50C1
ENCODING 20673
SWIDTH 1000 0
DWIDTH 26 0
BBX 21 22 2 -3
BITMAP
040600
0E1E00
1E0CE0
1C8DE0
3CCF00
78CE40
781FE0
F9FFC0
F9FF00
D8FF80
187FC0
186CE0
18CC00
190040
180070
185C38
184C00
1B6000
1B7070
1B3FF0
1A1FE0
000380
ENDCHAR
STARTCHAR uni50C2
ENCODING 20674
SWIDTH 1000 0
DWIDTH 26 0
BBX 22 22 2 -3
BITMAP
000400
0E07E0
1EDF60
1EEE78
3CCFFC
78FEE0
7BEEC0
F87FC0
D82E00
180FE0
18FEE0
18E4C0
186FC0
183C00
181888
18FFFC
1BFF80
1B6100
187F00
183FC0
180CE0
183060
ENDCHAR
STARTCHAR uni50C4
ENCODING 20676
SWIDTH 1000 0
DWIDTH 26 0
BBX 21 22 2 -3
BITMAP
040FC0
0E7FC0
0E7800
1E1100
3C1FF0
39FB30
799230
7993E0
79BF40
D8B000
980FC0
187F80
183000
1807F8
19FFE0
19FE00
180660
190630
198618
198618
180E00
001C00
ENDCHAR
STARTCHAR uni50C5
ENCODING 20677
SWIDTH 1000 0
DWIDTH 26 0
BBX 20 23 3 -3
BITMAP
000100
041180
0E3BC0
1E3FE0
1DFFC0
3CFB00
787300
783B00
F83E00
D81CC0
D91FE0
99FCE0
19CDC0
18DF00
18FC00
181F80
187E00
180F00
187F80
183C00
183FF0
19FFF0
11E000
ENDCHAR
STARTCHAR uni50C6
ENCODING 20678
SWIDTH 1000 0
DWIDTH 26 0
BBX 21 21 2 -2
BITMAP
000200
0607C0
0E1F80
1E1F00
3C0660
39BFE0
79BE60
783360
783760
F83660
98F7C0
1B9F00
199E00
1987F0
18DFC0
18DE00
188600
19C600
1BFF80
1B7FF8
180FE0
ENDCHAR
STARTCHAR uni50C7
ENCODING 20679
SWIDTH 1000 0
DWIDTH 26 0
BBX 22 22 2 -3
BITMAP
0003C0
0DF2C0
1DB0C0
3C36C0
39B0C0
7836C0
78F8C0
F9BCC0
F83F80
B87700
38EB80
38DDE0
39B1F0
3B24F8
3A0C7C
3C1800
383300
382700
380E00
381C00
181000
102000
ENDCHAR
STARTCHAR uni50C8
ENCODING 20680
SWIDTH 1000 0
DWIDTH 26 0
BBX 20 22 2 -3
BITMAP
000380
04FF80
0EE180
1E7980
3C6300
387F00
787000
7807E0
FBFF70
FBA460
9B26E0
19BFC0
19F180
180300
187F80
18F300
187300
183F00
181F00
181F80
1877E0
1081F0
ENDCHAR
STARTCHAR uni50C9
ENCODING 20681
SWIDTH 1000 0
DWIDTH 26 0
BBX 22 22 3 -3
BITMAP
00C000
01E000
03F800
077C00
0E1E00
0E0F00
1C7780
3BF3E0
73E1F0
6000FC
C07F00
BF7F00
3B6200
336600
323E00
1E3C00
1E1C00
0C3E00
1F3700
336380
204380
000100
ENDCHAR
STARTCHAR uni50CA
ENCODING 20682
SWIDTH 1000 0
DWIDTH 26 0
BBX 22 22 2 -3
BITMAP
040780
0C7F80
1E7F00
3C3200
383FE0
797E60
79F660
F997E0
D9BEC0
98FC00
181FC0
18FFC0
19FF00
18E380
18C3C0
18FFF0
19F378
19633C
1A6600
186000
183FC0
103F80
ENDCHAR
STARTCHAR uni50CB
ENCODING 20683
SWIDTH 1000 0
DWIDTH 26 0
BBX 21 24 2 -4
BITMAP
000C00
001E00
063700
0E63C0
1E5DE0
1E8CF8
3D0200
7A3F00
787300
780600
F80F80
D83CC0
9860E0
187EE0
1878E0
1860E0
187EE0
1860E0
1867E0
187DC0
1861C0
1840E0
188060
000060
ENDCHAR
STARTCHAR uni50CE
ENCODING 20686
SWIDTH 1000 0
DWIDTH 26 0
BBX 22 22 2 -3
BITMAP
000010
061BF0
0EFB30
1F9B20
3DB3E0
39F3C0
71C300
7983F0
78F9E0
D87180
9833E0
183FE0
18FF80
18F300
183370
187FF8
1BFFFC
1BF000
1861C0
18C0E0
188070
110020
ENDCHAR
STARTCHAR uni50CF
ENCODING 20687
SWIDTH 1000 0
DWIDTH 26 0
BBX 22 22 2 -3
BITMAP
041980
0C3F80
1C4300
1C0C00
39BFE0
71FC60
7988C0
799F80
D9FE00
98E040
18E0C0
197100
1A7E00
1CDE00
193F00
1A6FC0
18CDF0
198CFC
190C20
181C00
187800
183000
ENDCHAR
STARTCHAR uni50D1
ENCODING 20689
SWIDTH 1000 0
DWIDTH 26 0
BBX 23 22 2 -3
BITMAP
000600
061F00
0E7C00
1C1800
383FC0
79FF80
79F700
D8C780
98FFE0
19E6F8
196C3C
1A3E02
1C00E0
39FF60
39F060
398E60
3BBB60
1B2260
193EE0
191FC0
1983C0
110180
ENDCHAR
STARTCHAR uni50D3
ENCODING 20691
SWIDTH 1000 0
DWIDTH 26 0
BBX 20 23 3 -4
BITMAP
000800
0C1D80
1CFF80
1CFD80
3CDB80
78DF00
707800
F01FF0
F0FFF0
F7E000
B72F00
307300
306380
30FB80
30E380
30FB80
30E380
30EF80
307300
306300
306180
10C180
000080
ENDCHAR
STARTCHAR uni50D4
ENCODING 20692
SWIDTH 1000 0
DWIDTH 26 0
BBX 22 22 2 -3
BITMAP
0000C0
062180
0E33F0
1EFFF0
1CEB00
380B60
78FEE0
78FA70
78DE70
F8C070
D8DE60
18C060
18FFE0
1861C0
1803FC
18FFFC
1BFF80
193180
183180
180180
180780
080700
ENDCHAR
STARTCHAR uni50D5
ENCODING 20693
SWIDTH 1000 0
DWIDTH 26 0
BBX 21 22 2 -3
BITMAP
000800
0E0B70
0EDBE0
1CDB00
3C1A00
387FF8
7BFFF8
7BF300
781200
D81F80
987E00
380F80
387F80
383C00
381FE0
38FFE0
39FC00
38F180
3831C0
1860E0
184060
100060
ENDCHAR
STARTCHAR uni50D6
ENCODING 20694
SWIDTH 1000 0
DWIDTH 26 0
BBX 22 22 2 -3
BITMAP
020600
070FC0
0F7FC0
1E3E00
1C0F80
383F80
383E00
7800C0
783FC0
D83880
183180
183F80
183100
1837FC
18FFFC
1BF000
19C7C0
187FC0
1878C0
1871C0
183FC0
083FC0
ENDCHAR
STARTCHAR uni50D7
ENCODING 20695
SWIDTH 1000 0
DWIDTH 26 0
BBX 22 22 2 -3
BITMAP
000040
0630D0
0E3EF0
1EBBC0
3CB0C0
38A0E0
7879B0
786B10
F84000
F81FF8
D9F81C
19C43C
190C00
191FC0
197CC0
1838C0
1830C0
1830C0
1861C0
1843C0
18CF80
000F00
ENDCHAR
STARTCHAR uni50DA
ENCODING 20698
SWIDTH 1000 0
DWIDTH 26 0
BBX 23 22 2 -3
BITMAP
000C00
080F80
1CFF80
3DFC00
387CC0
717FC0
73EF80
F1C7E0
F1C7F0
B1FCF8
33E0FE
33DD80
36C180
344F00
387E00
302CC0
314C60
338C60
338C60
318C40
103C00
001800
ENDCHAR
STARTCHAR uni50DB
ENCODING 20699
SWIDTH 1000 0
DWIDTH 26 0
BBX 22 22 2 -3
BITMAP
001000
0C1880
1C9980
3DFD80
3BFD80
73FB10
719BF8
F1FBB8
F1FA20
F19A00
B1B080
31F180
319180
31B980
33FDC0
37E1C0
37C1E0
319370
319B78
331638
32041C
000004
ENDCHAR
STARTCHAR uni50DD
ENCODING 20701
SWIDTH 1000 0
DWIDTH 26 0
BBX 22 23 2 -4
BITMAP
020060
063FE0
0E78E0
1E60C0
1C7FC0
387C00
3863C0
784CC0
78C340
D8CFC0
98C900
188310
1987F8
19BEA0
196440
19187C
1B1FF8
1A7BE0
1BC820
180860
1859E0
1038C0
001080
ENDCHAR
STARTCHAR uni50E0
ENCODING 20704
SWIDTH 1000 0
DWIDTH 26 0
BBX 21 22 3 -3
BITMAP
000300
0E1F00
0E3E40
1E0CC0
3DCD80
7CC900
784FC0
787FC0
F9FE00
F9FF00
D83B80
1879C0
18D8F0
199FF8
1BFFE0
19F8C0
1988C0
199EC0
18F9C0
18C980
18DF80
007F00
ENDCHAR
STARTCHAR uni50E3
ENCODING 20707
SWIDTH 1000 0
DWIDTH 26 0
BBX 22 22 2 -3
BITMAP
003080
0638E0
0EF9C0
1EF180
3C79E0
387FE0
79FBC0
7BE3E0
79D360
F8DA70
98CA38
19859C
193F80
1B30C0
1A30C0
1837C0
183EC0
1830C0
1830C0
183FC0
183F80
001380
ENDCHAR
STARTCHAR uni50E4
ENCODING 20708
SWIDTH 1000 0
DWIDTH 26 0
BBX 22 22 2 -3
BITMAP
0003F0
06FBF0
0EDB20
1E9220
1CF3C0
38C100
7801E0
787F70
787E70
786770
986F60
186660
1827E0
183FC0
183600
180630
187FFC
19FFFC
19C600
180600
180600
080400
ENDCHAR
STARTCHAR uni50E5
ENCODING 20709
SWIDTH 1000 0
DWIDTH 26 0
BBX 23 22 2 -3
BITMAP
020600
070F80
0F3F00
1E3E00
3C0FC0
383FC0
707E80
7820F0
D863E0
98F9C0
19E1F8
187FC0
18E200
1BC3C0
187F80
18FB00
183B00
183304
186206
18C20E
1983FC
1003FC
ENDCHAR
STARTCHAR uni50E6
ENCODING 20710
SWIDTH 1000 0
DWIDTH 26 0
BBX 23 21 2 -3
BITMAP
0CC080
1CE0D8
1C7CDC
3FF8C0
7FC080
7001F0
727BF8
F39BC0
F33180
B331B0
33E360
310360
30C360
304E60
366E40
366640
366440
30E444
30CC6E
31C87C
100018
ENDCHAR
STARTCHAR uni50E7
ENCODING 20711
SWIDTH 1000 0
DWIDTH 26 0
BBX 21 22 2 -3
BITMAP
000060
0600E0
0E3180
1E3110
3D1FF8
39FE38
79E6B8
79D6B8
D9F770
98D7E0
18FFE0
187000
186180
183FC0
1830C0
1830C0
183EC0
1830C0
1830C0
183FC0
183FC0
101180
ENDCHAR
STARTCHAR uni50E8
ENCODING 20712
SWIDTH 1000 0
DWIDTH 26 0
BBX 22 22 2 -3
BITMAP
020600
0707C0
0F3FC0
1E3F80
3C2660
3836F8
787FFC
6DFD80
DDB100
9C3FC0
1C38E0
1860E0
187CE0
1860E0
187EE0
1878E0
1861E0
1C7FE0
1C38C0
1C38E0
1C6070
088030
ENDCHAR
STARTCHAR uni50E9
ENCODING 20713
SWIDTH 1000 0
DWIDTH 26 0
BBX 21 22 2 -3
BITMAP
040000
0D71F0
1DDB98
1D9B18
39BB18
717BD8
711B18
791B18
DB33F8
9BE018
1B4118
1B1F18
1B1918
1B1F98
1B1998
1B1198
1B1F98
1B3198
192198
192738
1902F0
110060
ENDCHAR
STARTCHAR uni50EA
ENCODING 20714
SWIDTH 1000 0
DWIDTH 26 0
BBX 21 22 2 -3
BITMAP
0001C0
061FE0
0F3880
1E0500
1C0630
3C0FF8
78F738
7DCF00
6C1900
EC3300
CC4700
0C0610
0C9FF8
0DFB18
0DDB38
0DB1F8
0DB198
0DDF18
0D9118
0D9F18
0C98F8
088060
ENDCHAR
STARTCHAR uni50EC
ENCODING 20716
SWIDTH 1000 0
DWIDTH 26 0
BBX 22 22 2 -3
BITMAP
000200
061B80
0E3980
1E71E0
1CFFC0
3CEF80
39E1E0
7DEFC0
796F80
7861E0
9867E0
186F80
186180
186FF8
187FC0
186800
184000
180338
19B318
1D991C
098008
008000
ENDCHAR
STARTCHAR uni50ED
ENCODING 20717
SWIDTH 1000 0
DWIDTH 26 0
BBX 23 22 2 -3
BITMAP
0000E0
0679E0
0EF9C0
1EF0C0
3D32F8
397FF0
79F7E0
7BE360
DBBA44
99B26E
19307C
190080
1A7FC0
1870C0
1860C0
187EE0
187CE0
1860E0
1867C0
187FC0
1861C0
100100
ENDCHAR
STARTCHAR uni50EE
ENCODING 20718
SWIDTH 1000 0
DWIDTH 26 0
BBX 22 22 2 -3
BITMAP
020E00
070FC0
0F7FC0
1E7F80
1C1180
3813F8
78FFFC
7BFC00
5901E0
D8FF60
18F660
18CF60
18DEE0
18CCC0
18FF80
187C00
180F80
187F80
183C00
180FE0
18FFE0
18F860
ENDCHAR
STARTCHAR uni50EF
ENCODING 20719
SWIDTH 1000 0
DWIDTH 26 0
BBX 22 22 2 -3
BITMAP
000600
062630
0F26E0
0F3780
1E07C0
3C3FE0
387F00
787E00
781EF0
783620
F846C0
1880E0
187FE0
18FEC0
19B6C0
19E7FC
18DFC0
188CC0
1900C0
1800C0
0800C0
000080
ENDCHAR
STARTCHAR uni50F0
ENCODING 20720
SWIDTH 1000 0
DWIDTH 26 0
BBX 22 23 2 -4
BITMAP
0601C0
0783E0
1F0F80
160380
0FE3F0
3EFFB0
36FB30
36DB70
160B60
0F0780
1FCFE0
365BF8
6623B8
862380
067100
00F000
01F800
039E00
070F00
0C07C0
1803F0
0001FC
000030
ENDCHAR
STARTCHAR uni50F1
ENCODING 20721
SWIDTH 1000 0
DWIDTH 26 0
BBX 21 22 2 -3
BITMAP
060380
0E0F80
0E1800
1C60C0
3C7FE0
3870C0
784180
78CF80
D8FC00
D8E180
189DA0
199FE0
19BF80
1979E0
1977C0
1B1180
1A33E0
1A37C0
183180
183FF8
181E30
081000
ENDCHAR
STARTCHAR uni50F3
ENCODING 20723
SWIDTH 1000 0
DWIDTH 26 0
BBX 22 23 1 -4
BITMAP
0203C0
077FC0
0F7D00
0F1180
1E1FF0
3CFF30
38FB30
7CCA70
6CCBE0
4CFF80
8C7E40
0C06E0
0C6780
0C27FC
0C7FFC
0DFF00
0DC700
0C0770
0CC730
0CC738
0CDE38
008E00
000800
ENDCHAR
STARTCHAR uni50F5
ENCODING 20725
SWIDTH 1000 0
DWIDTH 26 0
BBX 22 22 2 -3
BITMAP
060FE0
0EFFC0
1E7800
1C07E0
3C7E70
78E760
78CE60
7866C0
D87F00
D83060
181FF0
19FF00
18C060
187FE0
187660
186F60
1866C0
186F80
183800
1803F8
19FFFC
19FF18
ENDCHAR
STARTCHAR uni50F6
ENCODING 20726
SWIDTH 1000 0
DWIDTH 26 0
BBX 22 20 2 -2
BITMAP
0607E0
0EFF60
1EDB60
3CDA60
38DBC0
78FB80
78FA00
7813F0
D833B0
99F230
1993F0
19B3E0
19F260
1992C0
1993C0
19F200
181208
18180C
180FF8
1807F8
ENDCHAR
STARTCHAR uni50F8
ENCODING 20728
SWIDTH 1000 0
DWIDTH 26 0
BBX 21 22 2 -3
BITMAP
0030C0
0630C0
0E31F0
1E7BE0
1DFB80
39F1C0
787BF8
78A298
78A480
F92000
D80F80
187F80
182000
1803F0
18FFF8
19FE00
188600
180670
198630
198618
198E00
081C00
ENDCHAR
STARTCHAR uni50F9
ENCODING 20729
SWIDTH 1000 0
DWIDTH 26 0
BBX 21 23 2 -4
BITMAP
0007C0
063F80
0E3980
1E0BF8
1E1FD8
3DF918
79CB18
798FF0
7CBE00
FCD1C0
D83EC0
9830E0
187EE0
1878E0
1870E0
187EE0
1870E0
1877E0
1C3DC0
1C31C0
1C60E0
084060
000060
ENDCHAR
STARTCHAR uni50FB
ENCODING 20731
SWIDTH 1000 0
DWIDTH 26 0
BBX 22 22 2 -3
BITMAP
040000
0E01C0
0E08C0
1C7CF8
3DFFF0
399FE0
719818
79B110
D97120
DBE120
9B80F0
1A03E0
13B9C0
13D8E8
1799FC
1D9FF8
1997C0
19B8C0
18E0C0
1880C0
1800C0
1000C0
ENDCHAR
STARTCHAR uni50FD
ENCODING 20733
SWIDTH 1000 0
DWIDTH 26 0
BBX 22 21 2 -3
BITMAP
0E7180
1EE180
3C6180
3875F0
70F5C0
7BE580
D9E100
98E380
19F3C0
117A60
326670
326438
304000
304020
300C38
384E1C
3B460C
1B6060
1B3030
1A1FF0
1007E0
ENDCHAR
STARTCHAR uni50FE
ENCODING 20734
SWIDTH 1000 0
DWIDTH 26 0
BBX 22 22 2 -3
BITMAP
060700
061F30
0E0870
1ECCC0
3CC580
386110
717FF8
71F038
7B8800
FB0C30
DB64B0
12D0D0
10CFC0
104300
101900
103F80
10F180
18F900
18DF00
188F80
180FF0
10F0FC
ENDCHAR
STARTCHAR uni50FF
ENCODING 20735
SWIDTH 1000 0
DWIDTH 26 0
BBX 22 22 2 -3
BITMAP
000600
0407F8
0EFF1C
1EF21C
1DC980
3D8FC0
39BD80
781BC0
781F80
783900
D81BE0
187FC0
18F9C0
1830C0
186660
186778
18DFBC
189E18
190600
180FC0
187FE0
007FE0
ENDCHAR
STARTCHAR uni5100
ENCODING 20736
SWIDTH 1000 0
DWIDTH 26 0
BBX 22 24 2 -4
BITMAP
000080
0261C0
076300
0F3780
1E7F80
3CFC00
380E00
783F00
787C00
F80FE0
D9FFC0
99F618
187608
18E700
103FF0
11F300
13A360
1831E0
19F1C0
19F1C8
1823E8
19E47C
18C03C
100000
ENDCHAR
STARTCHAR uni5102
ENCODING 20738
SWIDTH 1000 0
DWIDTH 26 0
BBX 22 22 2 -3
BITMAP
041200
0C1FE0
1DFE60
3DF260
799FC0
71FEC0
F0D7C0
D8FF00
B07800
300FC0
307E00
30E100
30DE00
309000
318F30
31FC60
316E80
332780
3227C0
3A3DE0
1270F8
14E07C
ENDCHAR
STARTCHAR uni5103
ENCODING 20739
SWIDTH 1000 0
DWIDTH 26 0
BBX 21 22 2 -3
BITMAP
000C00
060FF0
0FFFF0
1FE000
1C07E0
3DFE30
39C030
799F60
78D360
78DC60
D8C7C0
187980
180040
18FFE0
18F060
18CE60
1848E0
1862C0
183F80
180000
1BFFF8
0BFFF8
ENDCHAR
STARTCHAR uni5104
ENCODING 20740
SWIDTH 1000 0
DWIDTH 26 0
BBX 22 22 2 -3
BITMAP
000C00
040F80
0E7F80
1E7F00
3C3300
3833F8
70FFF8
7BFC00
DB8080
987FC0
30E0C0
30CCC0
304980
306180
307F20
303038
304C1C
334E08
3A6640
3A3070
1A1FF0
100FE0
ENDCHAR
STARTCHAR uni5105
ENCODING 20741
SWIDTH 1000 0
DWIDTH 26 0
BBX 22 22 2 -3
BITMAP
000400
060630
0EC670
1E6640
1C2600
3807F8
78FF18
79E03C
799F80
F9B980
D9B180
191F00
181800
1800F0
19FF30
19E430
19C730
18DE70
18C470
18E7E0
187FC0
082080
ENDCHAR
STARTCHAR uni5106
ENCODING 20742
SWIDTH 1000 0
DWIDTH 26 0
BBX 23 21 1 -3
BITMAP
040420
0D8C60
1DEF70
3FDFE0
39B8E0
7890FE
78C1FC
78C1F8
F9FDF8
DBCD98
1B0F10
1A4F30
1FEFB0
1A6DB0
1ACCF0
1BCCF0
181C78
18187C
1839FE
18F21E
180000
ENDCHAR
STARTCHAR uni5107
ENCODING 20743
SWIDTH 1000 0
DWIDTH 26 0
BBX 22 22 2 -3
BITMAP
000030
061FF0
077930
0ECB70
1E4FE0
3C5C00
380070
781FF8
79FC00
7981C0
D87EC0
9870C0
1861C0
183F00
183C30
183E70
187780
18F380
1931E0
1838F8
18387C
107000
ENDCHAR
STARTCHAR uni5108
ENCODING 20744
SWIDTH 1000 0
DWIDTH 26 0
BBX 23 23 1 -4
BITMAP
000600
030E00
071F80
0F31C0
1E76E0
3C7C70
38C07C
7D9FFE
7DFC3C
9AC5F0
18D670
18DFE0
187CC0
182000
182780
1839C0
1860C0
187FC0
1878C0
1861C0
1C3FC0
083380
080100
ENDCHAR
STARTCHAR uni5109
ENCODING 20745
SWIDTH 1000 0
DWIDTH 26 0
BBX 22 21 2 -3
BITMAP
0E1800
1E3C00
1E7F00
3C6780
78C3C0
71DDF0
F1FCF8
FB7C3C
F200C0
B007E0
31FFE0
33F4C0
3324C0
316780
31E700
31E300
30E700
31FEC0
333CE0
321870
101070
ENDCHAR
STARTCHAR uni510A
ENCODING 20746
SWIDTH 1000 0
DWIDTH 26 0
BBX 21 23 3 -4
BITMAP
006380
0C73C0
1E73C0
1DF7C0
3DE700
78E380
78F7E0
F8EF20
F9EF40
D963E0
987FE0
18FC80
19C400
182400
19FFC0
19EF80
19EC00
19BC00
1B1C00
1E1F00
1C0FE0
0803F8
0000C0
ENDCHAR
STARTCHAR uni510B
ENCODING 20747
SWIDTH 1000 0
DWIDTH 26 0
BBX 20 23 2 -4
BITMAP
020E00
061FE0
0E30C0
1E4300
1C0FF0
38FFC0
78E640
786E70
784B00
D8C370
98FFE0
18FC00
1883E0
199F00
198060
199FC0
190000
1B03F0
1B3FF0
1A3870
1A38E0
1C1FC0
000800
ENDCHAR
STARTCHAR uni510C
ENCODING 20748
SWIDTH 1000 0
DWIDTH 26 0
BBX 23 23 1 -4
BITMAP
003000
0C7040
1C4060
1DF8E0
3DCCE0
398DC0
71BDDC
79FDFC
799BF0
F9FBB0
99FB30
186230
187330
1BFBB0
1B41A0
18D8E0
18F8E0
199870
1918F8
1B1B3E
1A301E
106000
004000
ENDCHAR
STARTCHAR uni5110
ENCODING 20752
SWIDTH 1000 0
DWIDTH 26 0
BBX 22 23 2 -4
BITMAP
000600
060610
0EFFF8
1EF638
3EC1FC
3CDF80
789E60
7026E0
F83780
F82F00
D81FC0
987860
18F260
1B3E60
183060
183F60
183060
1833E0
183FC0
1838E0
183070
186030
000020
ENDCHAR
STARTCHAR uni5111
ENCODING 20753
SWIDTH 1000 0
DWIDTH 26 0
BBX 22 21 2 -3
BITMAP
064FE0
0EFCE0
1EE0E0
1CE2E0
3C7EC0
7860C0
786180
F87F80
D838C0
9861A0
18D360
18BFC0
19E180
19C120
1893F0
19F700
188030
1A1338
1B199C
1B000C
110000
ENDCHAR
STARTCHAR uni5112
ENCODING 20754
SWIDTH 1000 0
DWIDTH 26 0
BBX 22 22 2 -3
BITMAP
0401C0
0E3FC0
1E3E00
1C0610
3C3FF8
79E63C
7186C0
797600
D906C0
996400
180780
187FC0
187C00
180800
181FF0
18FB30
19D330
199230
189230
189270
1881E0
1800E0
ENDCHAR
STARTCHAR uni5113
ENCODING 20755
SWIDTH 1000 0
DWIDTH 26 0
BBX 21 24 2 -4
BITMAP
000400
000600
067FE0
0E7E00
1E0FC0
1C7F80
3C0000
383FE0
7870C0
783380
783C00
D81FF8
19FC18
198038
19BFC0
191C00
181180
183FC0
183C00
180780
183F80
180400
08FFF0
00FE30
ENDCHAR
STARTCHAR uni5114
ENCODING 20756
SWIDTH 1000 0
DWIDTH 26 0
BBX 23 22 1 -3
BITMAP
0007C0
03BF00
078600
0F8FC0
0F1810
1E07F8
3C7838
38CFC0
7C0E00
7C0780
6C1C00
4C03FC
8CFFFE
0DF060
0C1078
0C7BF8
0DD860
0CDE60
0CE660
0C4060
0C03E0
0001C0
ENDCHAR
STARTCHAR uni5115
ENCODING 20757
SWIDTH 1000 0
DWIDTH 26 0
BBX 22 23 2 -3
BITMAP
000400
000E00
0607E0
0E3FE0
0E7F00
1E7B30
3C0AC0
39F4E0
71B5B0
79B4B8
FD35DC
DAE480
9CC460
182460
187E60
187C60
186060
187F60
187C60
186060
184060
184060
008040
ENDCHAR
STARTCHAR uni5117
ENCODING 20759
SWIDTH 1000 0
DWIDTH 26 0
BBX 23 21 2 -2
BITMAP
040000
0CC020
1DD1F0
3DFF70
39E660
798080
71B380
F1E190
F001F8
D13798
93E5A0
13C180
12F1A0
10F5F0
13C5C0
178D80
13FF80
113380
1333C0
1221F8
10007E
ENDCHAR
STARTCHAR uni5118
ENCODING 20760
SWIDTH 1000 0
DWIDTH 26 0
BBX 21 22 2 -3
BITMAP
000C00
060C00
0E3FC0
1E7CF0
3C0FF0
39FFC0
79FDC0
780F80
F87E00
F80C40
D81FE0
18FF00
180010
1A3318
1B1118
191FE0
18FB60
18CA60
18CA60
187FF8
1BFFF8
13E000
ENDCHAR
STARTCHAR uni511A
ENCODING 20762
SWIDTH 1000 0
DWIDTH 26 0
BBX 21 24 3 -4
BITMAP
000100
0031C0
0C7BE0
1EF200
1C0400
3C1FC0
78F6C0
7996C0
F89F80
F8D800
D80FF0
99FC70
13D878
133F80
133300
136700
107E00
181E00
180E00
181E00
181800
183000
104000
008000
ENDCHAR
STARTCHAR uni511C
ENCODING 20764
SWIDTH 1000 0
DWIDTH 26 0
BBX 21 22 2 -3
BITMAP
000E00
040710
0EFEF8
1FC038
3D8400
3956B0
7958D0
784F80
780300
F87FE0
986B60
184AF8
18FFF8
19FC00
180020
187FF0
18FF00
180600
180600
180600
181E00
100C00
ENDCHAR
STARTCHAR uni511F
ENCODING 20767
SWIDTH 1000 0
DWIDTH 26 0
BBX 22 23 2 -4
BITMAP
000660
0666E0
0E2780
1E0600
3DBFF8
39C03C
799F00
79B100
F93700
F81C00
D82780
1838C0
1864C0
187CC0
1860C0
187EC0
1860C0
186FC0
183F80
1839C0
0830E0
086060
000040
ENDCHAR
STARTCHAR uni5120
ENCODING 20768
SWIDTH 1000 0
DWIDTH 26 0
BBX 22 22 2 -3
BITMAP
006040
066660
0E4480
1E8880
1CCCC0
3C4400
380FE0
78FC60
78CC60
78CEE0
D8D7C0
187EC0
184080
1804C0
18F7C0
18E6C0
188440
18E760
18C464
18F7B4
18EE3C
08801C
ENDCHAR
STARTCHAR uni5121
ENCODING 20769
SWIDTH 1000 0
DWIDTH 26 0
BBX 22 21 2 -3
BITMAP
040060
0EBFE0
1EFCE0
3CCCE0
38DEE0
78DCE0
784CC0
F86FC0
F87F80
980100
180008
187BFC
1BDF4C
1B5A4C
1A7BF8
1BDBD8
1B5258
1A5258
1BF1F0
198020
100000
ENDCHAR
STARTCHAR uni5122
ENCODING 20770
SWIDTH 1000 0
DWIDTH 26 0
BBX 21 23 3 -3
BITMAP
000800
001D80
0C1F80
1C1800
3C1FE0
38FC70
79CD80
71DF00
F1FC00
F18FC0
F18F00
3127C0
317E60
336660
336EC0
3224C0
323F80
323070
360638
34B600
359070
309FF0
008FE0
ENDCHAR
STARTCHAR uni5124
ENCODING 20772
SWIDTH 1000 0
DWIDTH 26 0
BBX 22 22 2 -3
BITMAP
0007C0
067CC0
0EE0C0
1EEEC0
1C61C0
3C6F80
783F00
7813C0
F87FC0
F8FF00
D83300
183FE0
19FB80
19E9C0
18CCE0
19EDF0
192E38
1A0C3C
184CC0
198CE0
183C40
001800
ENDCHAR
STARTCHAR uni5125
ENCODING 20773
SWIDTH 1000 0
DWIDTH 26 0
BBX 20 23 2 -4
BITMAP
000C00
060FC0
0EFF00
1E0C00
1E3F80
3C3800
380FF0
79FB30
7B93F0
F93FE0
D9B000
180780
1878C0
1864C0
187CC0
1860C0
187EC0
1861C0
187FC0
187180
1860C0
08C060
000040
ENDCHAR
STARTCHAR uni5126
ENCODING 20774
SWIDTH 1000 0
DWIDTH 26 0
BBX 20 22 3 -3
BITMAP
001000
0C1C00
1C1FE0
1DFF80
3DDB00
789BE0
719F60
F9BA60
F993C0
F13F00
B37100
3321E0
333900
326100
3661F0
36F9C0
34C000
3C0020
3D3330
399B30
199130
108010
ENDCHAR
STARTCHAR uni5129
ENCODING 20777
SWIDTH 1000 0
DWIDTH 26 0
BBX 21 21 2 -3
BITMAP
0C07E0
1E6660
3FE460
3B7460
727760
72F660
F3F460
F277E0
F277C0
33F600
3377F8
327F18
327218
33E6D8
33E4D8
310598
336338
327330
322670
1004F0
0000C0
ENDCHAR
STARTCHAR uni512A
ENCODING 20778
SWIDTH 1000 0
DWIDTH 26 0
BBX 21 23 2 -4
BITMAP
001F80
067F00
0E0800
1E3F80
3C7980
386D80
707180
786D80
F87380
D87FF0
D9E838
130CF0
1351C0
13DF80
129E00
101900
187F80
187100
18FF00
189F00
190FC0
1031F0
000038
ENDCHAR
STARTCHAR uni512D
ENCODING 20781
SWIDTH 1000 0
DWIDTH 26 0
BBX 22 22 2 -3
BITMAP
048000
0CC000
1C63E0
3CF330
3BE630
7186B0
7017B0
F93630
F9B630
99F7B0
33E630
30C630
30FEF0
33F7F0
31E320
307340
367AC0
3664C0
384480
19C8CC
11C0FC
008078
ENDCHAR
STARTCHAR uni512E
ENCODING 20782
SWIDTH 1000 0
DWIDTH 26 0
BBX 22 22 2 -3
BITMAP
060000
0F07E0
0EFFC0
1E7800
3C4470
78DEE0
78F860
78C870
F89FF0
D8FCE0
19BEE0
19BBDC
19B944
195A40
191800
1B0300
1A23E0
1A3300
183200
187FF8
18FFF8
18C000
ENDCHAR
STARTCHAR uni5130
ENCODING 20784
SWIDTH 1000 0
DWIDTH 26 0
BBX 21 24 2 -4
BITMAP
000100
046380
0C73E0
1DF7C0
38E600
380000
70C300
706600
F80C00
F03F80
F1F9C0
B07180
3063C0
30FCC0
31C0C0
3181D0
333FF8
327018
360498
39B698
199038
10C1F0
0000F0
000080
ENDCHAR
STARTCHAR uni5131
ENCODING 20785
SWIDTH 1000 0
DWIDTH 26 0
BBX 22 21 2 -2
BITMAP
0400C0
0C61F0
1C71C0
3DF180
39C1F0
701BF0
799330
F9B860
F9FBC0
DBC380
102340
31F3C0
311200
3133E0
31F780
311600
31F7E0
319E08
19120C
1933FC
1171F8
ENDCHAR
STARTCHAR uni5132
ENCODING 20786
SWIDTH 1000 0
DWIDTH 26 0
BBX 22 22 2 -3
BITMAP
000100
0C0380
1D8380
3CC3C8
38EFD8
7BEFB0
77C360
F303FC
F0C3F8
F3DF80
D31E00
104620
11CFF0
138F30
105638
11E7B8
176738
176638
13E638
1187F0
100670
100040
ENDCHAR
STARTCHAR uni5133
ENCODING 20787
SWIDTH 1000 0
DWIDTH 26 0
BBX 22 22 2 -3
BITMAP
043900
0E7700
1E0400
1C1FC0
3DFCC0
38C180
70FE00
7863C0
F1C200
F18330
D1FBE0
11F700
104680
117FC0
13F980
118B80
11FE00
107EE0
106C68
10CC0C
110E1C
1207F8
ENDCHAR
STARTCHAR uni5134
ENCODING 20788
SWIDTH 1000 0
DWIDTH 26 0
BBX 22 22 2 -3
BITMAP
000E00
060FE0
0EFFC0
1EFC00
3C03E0
38FB20
789BE0
789900
78F9C0
F83F80
987940
183FC0
18FA00
181FE0
18FC00
19FE60
1877E0
18D3C0
1991F0
1916F8
18383C
00F000
ENDCHAR
STARTCHAR uni5135
ENCODING 20789
SWIDTH 1000 0
DWIDTH 26 0
BBX 22 22 2 -3
BITMAP
040C00
0E1FE0
1E1FC0
1C39C0
3C3F00
384F00
791FC0
7938F8
7B63FC
DB3E60
1B77E0
1B6F60
1B2E40
1B2780
1B3E00
1B0700
1B1E00
1905E0
181F80
183990
199998
008888
ENDCHAR
STARTCHAR uni5137
ENCODING 20791
SWIDTH 1000 0
DWIDTH 26 0
BBX 22 22 2 -3
BITMAP
0001C0
0EF3C0
1EC000
1C13E0
3DF620
799FA0
7152A0
791000
F80DC0
D8FF80
D0FA00
10CFC0
10FEC0
109280
119F00
117300
1143E0
127780
1A4608
18560C
18E3FC
1081F0
ENDCHAR
STARTCHAR uni5138
ENCODING 20792
SWIDTH 1000 0
DWIDTH 26 0
BBX 22 22 2 -3
BITMAP
000020
0C1FF0
1CF320
3CD260
389FE0
78FE00
70C2C0
F8C670
F1ACF0
F36DE0
33CC60
31F4F0
31BDE0
33FCE0
330470
3035E0
30B440
36847C
3207FC
3A07C0
100400
000400
ENDCHAR
STARTCHAR uni5139
ENCODING 20793
SWIDTH 1000 0
DWIDTH 26 0
BBX 21 22 2 -3
BITMAP
003280
0E7FE0
0EFF80
1EB0E0
3C3FC0
39F380
79FA88
7854F8
788020
D8BF80
1870C0
186CC0
1878C0
1860C0
187CC0
1870C0
1861C0
187FC0
187180
187180
1840E0
008060
ENDCHAR
STARTCHAR uni513A
ENCODING 20794
SWIDTH 1000 0
DWIDTH 26 0
BBX 22 22 2 -3
BITMAP
040000
0C0180
0E9180
1FBB60
3DFB30
3BB678
79A7F0
78C6E0
787A60
DBDAF8
9B52F0
1BE260
11C270
11F2F0
10C260
18FA60
1BC3FC
1983FC
193300
191200
1A0200
100200
ENDCHAR
STARTCHAR uni513B
ENCODING 20795
SWIDTH 1000 0
DWIDTH 26 0
BBX 21 22 2 -3
BITMAP
000620
0666E0
0E3700
1E0E10
3DFFF8
39C138
799F80
799100
F91F00
F800C0
D8FF60
18E560
1855C0
187F80
182C00
183F80
183C00
180FC0
187C00
1981B8
199998
008018
ENDCHAR
STARTCHAR uni513C
ENCODING 20796
SWIDTH 1000 0
DWIDTH 26 0
BBX 22 22 2 -3
BITMAP
000040
0C37E0
1DF660
1D97C0
3CB380
38E000
7003C0
79FE80
F98080
D1B980
D17190
1131F0
13FF60
13DB60
12FB40
12DBC0
16B9C0
14D8E0
1C99F0
1BFB38
199C1C
101000
ENDCHAR
STARTCHAR uni513D
ENCODING 20797
SWIDTH 1000 0
DWIDTH 26 0
BBX 21 23 2 -4
BITMAP
000FC0
0E7CC0
0E6EC0
1E7CC0
3C6F80
383F00
780078
79FBD8
79CA78
D97BD8
19D950
19FDF0
18CC00
183300
187600
181CC0
183BC0
187E40
182600
180660
18C620
00CE20
000400
ENDCHAR
STARTCHAR uni513F
ENCODING 20799
SWIDTH 1000 0
DWIDTH 26 0
BBX 22 19 3 -2
BITMAP
001800
031800
073800
073800
063800
0E7000
0C7000
0C7000
1C7000
187000
386000
306000
706010
606010
C0701C
C07078
803FF8
001FF0
000780
ENDCHAR
STARTCHAR uni5140
ENCODING 20800
SWIDTH 1000 0
DWIDTH 26 0
BBX 21 19 3 -2
BITMAP
000400
00FF00
0FFF00
1FFC00
0FC000
039000
03B800
033800
073000
067000
0C6000
0C6000
186000
386010
706018
606038
C07BF8
803FF0
001FE0
ENDCHAR
STARTCHAR uni5141
ENCODING 20801
SWIDTH 1000 0
DWIDTH 26 0
BBX 21 21 4 -3
BITMAP
01C000
01C000
038000
078800
0F0C00
0E0E00
1E7E00
1FFF00
3FE600
3F8000
03A000
037000
067000
0C6000
18E000
38C020
30C030
60E078
C07FF0
807FE0
001F00
ENDCHAR
STARTCHAR uni5143
ENCODING 20803
SWIDTH 1000 0
DWIDTH 26 0
BBX 21 22 3 -3
BITMAP
003C00
03FC00
07FC00
07F000
030000
000000
003E00
01FF00
0FFE00
3FF000
1FE800
07D800
03B800
073000
0E3000
1C7000
386010
306038
607078
C03FF0
001FF0
000780
ENDCHAR
STARTCHAR uni5144
ENCODING 20804
SWIDTH 1000 0
DWIDTH 26 0
BBX 20 21 4 -3
BITMAP
0C7C00
1FFE00
1FFE00
1E0E00
1C0C00
0C1C00
0C1C00
0FF800
0FC000
078000
03B000
033000
067000
0C6000
0C6000
186020
306030
606070
407FF0
803FE0
000F00
ENDCHAR
STARTCHAR uni5145
ENCODING 20805
SWIDTH 1000 0
DWIDTH 26 0
BBX 20 22 4 -3
BITMAP
038000
01C000
01FC00
0FFC00
1FF800
1F8000
07A000
063800
0C3C00
0FFC00
3FCC00
3F8800
030000
066000
0EE000
0CC000
18C000
30C030
20C070
60FFE0
C07FE0
001F00
ENDCHAR
STARTCHAR uni5146
ENCODING 20806
SWIDTH 1000 0
DWIDTH 26 0
BBX 20 20 3 -2
BITMAP
001800
031800
073800
073000
073700
E77700
666700
066000
0E6000
0E6000
1C6E00
7C6F00
EC6700
C86000
986020
186030
1070F0
107FF0
203FE0
000300
ENDCHAR
STARTCHAR uni5147
ENCODING 20807
SWIDTH 1000 0
DWIDTH 26 0
BBX 21 22 3 -3
BITMAP
000800
031C00
03B800
03F300
18E380
39F380
39BB80
3B1B80
301F80
1FFF00
1FE700
19D200
03B000
073000
0E7000
0C6000
186010
306018
607038
407FF8
803FF0
0007C0
ENDCHAR
STARTCHAR uni5148
ENCODING 20808
SWIDTH 1000 0
DWIDTH 26 0
BBX 20 22 5 -3
BITMAP
008000
01C000
01C000
19C000
1DF000
3FF000
3FC000
638000
41FC00
03F800
7FE000
7F8000
3B6000
06E000
0EC000
0CC000
18C000
318040
618070
C0C1F0
80FFE0
007F80
ENDCHAR
STARTCHAR uni5149
ENCODING 20809
SWIDTH 1000 0
DWIDTH 26 0
BBX 22 22 2 -3
BITMAP
006000
00E0C0
08E1C0
1CE380
1CE600
0CE800
0CF000
00E700
00FF00
0FFF00
3FF800
3FE000
1DD800
039C00
073800
0E3000
1C3008
183008
30300C
60387C
803FFC
001FF0
ENDCHAR
STARTCHAR uni514B
ENCODING 20811
SWIDTH 1000 0
DWIDTH 26 0
BBX 19 22 5 -3
BITMAP
038000
03A000
0FF000
7FF000
3F8000
130000
13F000
3FF000
3F7000
387000
307000
31E000
1FE000
1F0000
078000
0D8000
198000
390040
710060
61C1E0
81FFC0
007F00
ENDCHAR
STARTCHAR uni514C
ENCODING 20812
SWIDTH 1000 0
DWIDTH 26 0
BBX 19 22 5 -3
BITMAP
00C000
00E000
0C7000
1C3800
381C00
703F00
7FFF80
FFFBC0
3E3800
387000
387000
39E000
1FE000
1F8000
0F8000
0D8000
198000
318040
618060
C1C1E0
01FFC0
007F00
ENDCHAR
STARTCHAR uni514D
ENCODING 20813
SWIDTH 1000 0
DWIDTH 26 0
BBX 19 22 5 -3
BITMAP
010000
073800
0FF800
3C7000
60C000
80DC00
23FC00
7F9C00
7B9800
73B800
37F000
3FC000
1E4000
1CC000
0DC000
198000
198040
318060
6180E0
61FFE0
C0FFC0
803E00
ENDCHAR
STARTCHAR uni5152
ENCODING 20818
SWIDTH 1000 0
DWIDTH 26 0
BBX 20 21 4 -3
BITMAP
020600
3E3E00
380600
300600
300E00
3E7E00
3C0E00
300E00
187C00
1FFC00
1FB800
0B0000
066000
0EE000
0CC000
18C000
308040
60C070
C0E1F0
007FE0
001F80
ENDCHAR
STARTCHAR uni5154
ENCODING 20820
SWIDTH 1000 0
DWIDTH 26 0
BBX 21 22 3 -3
BITMAP
018800
03DE00
07BE00
1C3800
306000
007E00
1BF600
1FC600
1C8E00
189C00
19F800
0FC000
0DA000
036700
066300
0CC000
18C010
30C038
60E0F8
407FF0
803FE0
000400
ENDCHAR
STARTCHAR uni5155
ENCODING 20821
SWIDTH 1000 0
DWIDTH 26 0
BBX 22 22 2 -3
BITMAP
000180
3B8FC0
3FDDC0
3FD980
389980
38F980
38F180
180300
180700
1C3E00
0FFE00
0FF000
03D800
03B800
073000
0C3000
183000
303018
20303C
403FF8
801FF0
000380
ENDCHAR
STARTCHAR uni5157
ENCODING 20823
SWIDTH 1000 0
DWIDTH 26 0
BBX 20 22 5 -3
BITMAP
038000
01F800
1FFC00
3FF000
1C0000
081C00
18FE00
3FFF00
7F3A00
D83800
983000
187000
0FE000
0F0000
064000
0CC000
19C000
398040
318070
60C0F0
C0FFE0
003F80
ENDCHAR
STARTCHAR uni5159
ENCODING 20825
SWIDTH 1000 0
DWIDTH 26 0
BBX 22 22 3 -3
BITMAP
080000
0C0300
0F0300
1F8300
7F0300
7C0300
1C0370
5F9FF0
FFBFE0
E1BF80
E30300
670300
7E0300
780300
1E0300
360300
660300
440218
C6001C
87FFF8
03FFF0
00FF80
ENDCHAR
STARTCHAR uni515A
ENCODING 20826
SWIDTH 1000 0
DWIDTH 26 0
BBX 20 22 3 -3
BITMAP
004000
00E380
0CE780
0CEC00
04F000
00FFC0
7FC0E0
7801C0
E00C00
E7FC00
CF1C00
0E1800
063000
07C000
039000
033000
062000
0E6000
0C6020
1830F0
203FE0
401FC0
ENDCHAR
STARTCHAR uni515B
ENCODING 20827
SWIDTH 1000 0
DWIDTH 26 0
BBX 23 22 2 -3
BITMAP
040000
060020
0781F0
1FC7E0
3F8180
3E0180
060180
27C3F8
7FDFF8
70DF80
71C980
318180
3F8180
3C0180
1D0180
1B0180
330100
230104
63000E
43C1FC
81FFF8
007FE0
ENDCHAR
STARTCHAR uni515C
ENCODING 20828
SWIDTH 1000 0
DWIDTH 26 0
BBX 20 22 3 -3
BITMAP
00C000
018000
0200C0
03F3C0
7B37C0
F231C0
67F180
47B180
463700
6F6E00
7FE000
738000
223800
03F800
073000
063000
0C3000
183000
383020
703870
603FF0
801FE0
ENDCHAR
STARTCHAR uni515D
ENCODING 20829
SWIDTH 1000 0
DWIDTH 26 0
BBX 21 22 3 -3
BITMAP
080000
0C0600
0F0700
3F8300
7F1B80
7C31C0
1C20E0
1FE078
FFC100
E1BF80
E3B980
631980
7F3180
7C3180
1E6180
364380
240700
640410
C40018
8783F8
03FFF0
01FFC0
ENDCHAR
STARTCHAR uni515E
ENCODING 20830
SWIDTH 1000 0
DWIDTH 26 0
BBX 22 22 3 -3
BITMAP
0C0000
0C0100
0F0780
3F9E00
7F0C00
7C0C00
1C0F80
0FBF00
FF8C00
F18C00
C38FC0
433F80
7F7C20
3C0C20
1E0670
3607E0
2601C0
640010
C40018
87007C
03FFF8
00FFE0
ENDCHAR
STARTCHAR uni515F
ENCODING 20831
SWIDTH 1000 0
DWIDTH 26 0
BBX 23 21 2 -2
BITMAP
000100
000180
060180
060B80
261BE0
379FE0
7F3F80
7E2300
C62120
87C3F0
1F1FC0
FF3F00
FA1A00
1A0680
120580
324D80
639980
671184
C2318E
8021FC
0040F8
ENDCHAR
STARTCHAR uni5161
ENCODING 20833
SWIDTH 1000 0
DWIDTH 26 0
BBX 22 22 3 -3
BITMAP
080000
0C0000
0F1FC0
3FBFC0
7F1E00
7C0600
1C1D80
4FBFC0
FFB8C0
F1B0C0
C3B0E0
433EE0
7F3CE0
3C30E0
1E30E0
363FC0
2611C0
640110
C40018
87007C
03FFF8
00FFE0
ENDCHAR
STARTCHAR uni5162
ENCODING 20834
SWIDTH 1000 0
DWIDTH 26 0
BBX 22 22 3 -3
BITMAP
000400
0C0600
0C0780
0F0FC0
7F3F80
7C3E00
2C0E00
0F2F80
7FFFC0
7371C0
636180
672380
3F3F80
383C00
3C1B00
343700
673600
666600
CCC60C
80871C
0183FC
0001F0
ENDCHAR
STARTCHAR uni5163
ENCODING 20835
SWIDTH 1000 0
DWIDTH 26 0
BBX 22 21 2 -3
BITMAP
040000
0E07C0
0E1FC0
0F9800
3F18F0
1C1FB0
0D9F30
3F9DB0
79BFA0
21BDE0
23B7C0
3F2500
3C21E0
1E27C0
364100
3647F0
660FE8
460008
C7003C
83FFFC
00FFF0
ENDCHAR
STARTCHAR uni5165
ENCODING 20837
SWIDTH 1000 0
DWIDTH 26 0
BBX 23 16 2 1
BITMAP
040000
0F8000
07C000
01E000
007000
007800
00FC00
01BE00
071F00
0E0F80
0C0FC0
1807E0
3003F0
6001F8
C000FC
80007E
ENDCHAR
STARTCHAR uni5167
ENCODING 20839
SWIDTH 1000 0
DWIDTH 26 0
BBX 19 21 4 -2
BITMAP
030000
038000
038000
01C000
3FFF80
7FF380
79C1C0
60E1C0
E0E1C0
E1F1C0
E3F9C0
C73DC0
C63FE0
CC1FE0
C00BC0
E001C0
E001C0
6001C0
6007C0
200780
000200
ENDCHAR
STARTCHAR uni5168
ENCODING 20840
SWIDTH 1000 0
DWIDTH 26 0
BBX 24 22 1 -3
BITMAP
004000
00F800
007C00
00FF00
038F80
0703C0
0601F0
0C00F8
183E7E
31FE3F
21F800
407800
803800
003E00
00FE00
01FC00
00F000
003000
003B80
01FFC0
07FFC0
03F000
ENDCHAR
STARTCHAR uni5169
ENCODING 20841
SWIDTH 1000 0
DWIDTH 26 0
BBX 20 19 3 -2
BITMAP
03FF00
1FFF80
3FFF80
1CE000
00E000
00FE40
0FFFE0
FEE070
E0E070
E0E870
ECEE70
EEEE70
EFFFF0
72F3F0
60E0E0
60E0E0
60C7E0
6043C0
000300
ENDCHAR
STARTCHAR uni516B
ENCODING 20843
SWIDTH 1000 0
DWIDTH 26 0
BBX 22 14 3 1
BITMAP
00E000
00F000
007800
043800
0C3800
0E3C00
1E1E00
3C1F00
380F80
7007C0
6007E0
C003F8
0001FC
000060
ENDCHAR
STARTCHAR uni516C
ENCODING 20844
SWIDTH 1000 0
DWIDTH 26 0
BBX 23 21 2 -2
BITMAP
003800
003800
001C00
000C00
020E00
070F00
070700
0E0780
1C03E0
3801F0
3800F8
70603E
607000
C0E000
01CC00
018E00
038700
078F00
0FFF80
1FFF80
1F8300
ENDCHAR
STARTCHAR uni516D
ENCODING 20845
SWIDTH 1000 0
DWIDTH 26 0
BBX 21 18 3 -1
BITMAP
00C000
00E000
00F000
007000
01FFF0
7FFFF8
FFF8F0
FE2000
000000
000000
030600
070780
0E0380
1C03C0
1801C0
3001C0
2001C0
000080
ENDCHAR
STARTCHAR uni516E
ENCODING 20846
SWIDTH 1000 0
DWIDTH 26 0
BBX 23 23 2 -4
BITMAP
003000
003800
001C00
018E00
038E00
070F00
0E0780
1C07E0
39FFF0
3FFCF8
6FF07E
C7C000
808400
00FE00
01EE00
018600
000E00
000E00
000E00
001E00
00FC00
00F800
006000
ENDCHAR
STARTCHAR uni5171
ENCODING 20849
SWIDTH 1000 0
DWIDTH 26 0
BBX 20 21 3 -2
BITMAP
000400
000E00
030E00
038E00
038F80
03FF80
1FFF00
1FFE00
0F0E00
030C00
030C00
031FE0
03FFF0
3FFFF0
FF8000
FB8E00
070700
0E0380
0C03C0
1801C0
1001C0
ENDCHAR
STARTCHAR uni5175
ENCODING 20853
SWIDTH 1000 0
DWIDTH 26 0
BBX 22 21 3 -3
BITMAP
007E00
03FE00
03F800
038000
030000
030780
037FC0
03FF00
03FC00
038C00
030C00
031CF0
03FFFC
3FFFFC
FFF000
FF8000
630300
060380
0C01C0
0C01C0
000080
ENDCHAR
ENDFONT
